Kadiri.ufo
<glyph name="question" format="2">
  <advance width="532"/>
  <unicode hex="003F"/>
  <outline>
    <contour>
      <point x="186" y="222" type="line"/>
      <point x="186" y="252" type="line" smooth="yes"/>
      <point x="186" y="316"/>
      <point x="228" y="397"/>
      <point x="279" y="440" type="qcurve" smooth="yes"/>
      <point x="338" y="490"/>
      <point x="375" y="533"/>
      <point x="390" y="576"/>
      <point x="390" y="605" type="qcurve" smooth="yes"/>
      <point x="390" y="658"/>
      <point x="321" y="716"/>
      <point x="256" y="716" type="qcurve" smooth="yes"/>
      <point x="213" y="716"/>
      <point x="130" y="694"/>
      <point x="79" y="669" type="qcurve"/>
      <point x="45" y="746" type="line"/>
      <point x="148" y="801"/>
      <point x="263" y="801" type="qcurve" smooth="yes"/>
      <point x="365" y="801"/>
      <point x="483" y="699"/>
      <point x="483" y="607" type="qcurve" smooth="yes"/>
      <point x="483" y="567"/>
      <point x="461" y="505"/>
      <point x="418" y="450"/>
      <point x="352" y="396" type="qcurve" smooth="yes"/>
      <point x="299" y="350"/>
      <point x="264" y="290"/>
      <point x="264" y="241" type="qcurve" smooth="yes"/>
      <point x="264" y="222" type="line"/>
    </contour>
    <contour>
      <point x="161" y="60" type="qcurve" smooth="yes"/>
      <point x="161" y="134"/>
      <point x="230" y="134" type="qcurve" smooth="yes"/>
      <point x="261" y="134"/>
      <point x="297" y="97"/>
      <point x="297" y="60" type="qcurve" smooth="yes"/>
      <point x="297" y="24"/>
      <point x="260" y="-16"/>
      <point x="230" y="-16" type="qcurve" smooth="yes"/>
      <point x="199" y="-16"/>
      <point x="161" y="20"/>
    </contour>
  </outline>
</glyph>
<glyph name="uni1B00" format="2">
  <advance width="0"/>
  <unicode hex="1B00"/>
  <anchor x="-366" y="505" name="_Anchor-0"/>
  <outline>
    <contour>
      <point x="-260" y="656" type="qcurve"/>
      <point x="-265" y="725"/>
      <point x="-342" y="725" type="qcurve" smooth="yes"/>
      <point x="-410" y="723"/>
      <point x="-416" y="659" type="qcurve"/>
      <point x="-416" y="652" type="line" smooth="yes"/>
      <point x="-416" y="579"/>
      <point x="-299" y="562" type="qcurve"/>
      <point x="-261" y="588"/>
    </contour>
    <contour>
      <point x="-445" y="653" type="qcurve" smooth="yes"/>
      <point x="-445" y="696"/>
      <point x="-390" y="757"/>
      <point x="-336" y="757" type="qcurve" smooth="yes"/>
      <point x="-281" y="755"/>
      <point x="-233" y="702"/>
      <point x="-233" y="653" type="qcurve" smooth="yes"/>
      <point x="-235" y="578"/>
      <point x="-288" y="540" type="qcurve" smooth="yes"/>
      <point x="-292" y="537"/>
      <point x="-294" y="537" type="qcurve" smooth="yes"/>
      <point x="-445" y="547"/>
    </contour>
    <contour>
      <point x="-219" y="489" type="qcurve" smooth="yes"/>
      <point x="-224" y="489"/>
      <point x="-227" y="494" type="qcurve"/>
      <point x="-150" y="587"/>
      <point x="-150" y="707" type="qcurve" smooth="yes"/>
      <point x="-154" y="850"/>
      <point x="-329" y="850" type="qcurve" smooth="yes"/>
      <point x="-407" y="850"/>
      <point x="-515" y="747"/>
      <point x="-515" y="657" type="qcurve" smooth="yes"/>
      <point x="-515" y="563"/>
      <point x="-420" y="496" type="qcurve"/>
      <point x="-425" y="496" type="line" smooth="yes"/>
      <point x="-446" y="496"/>
      <point x="-536" y="563"/>
      <point x="-546" y="643" type="qcurve" smooth="yes"/>
      <point x="-548" y="669" type="line"/>
      <point x="-548" y="755"/>
      <point x="-442" y="885"/>
      <point x="-322" y="885" type="qcurve" smooth="yes"/>
      <point x="-113" y="882"/>
      <point x="-111" y="703" type="qcurve" smooth="yes"/>
      <point x="-111" y="578"/>
      <point x="-211" y="492" type="qcurve" smooth="yes"/>
      <point x="-216" y="489"/>
    </contour>
  </outline>
</glyph>
<glyph name="uni1B01" format="2">
  <advance width="0"/>
  <unicode hex="1B01"/>
  <anchor x="-274" y="494" name="_Anchor-0"/>
  <outline>
    <contour>
      <point x="-305" y="595" type="line"/>
      <point x="-315" y="705"/>
      <point x="-315" y="795" type="qcurve"/>
      <point x="-310" y="878"/>
      <point x="-292" y="888" type="qcurve"/>
      <point x="-292" y="690"/>
      <point x="-279" y="620" type="qcurve"/>
    </contour>
    <contour>
      <point x="-294" y="481" type="qcurve"/>
      <point x="-480" y="484"/>
      <point x="-490" y="646" type="qcurve"/>
      <point x="-490" y="651" type="line" smooth="yes"/>
      <point x="-487" y="700"/>
      <point x="-475" y="716" type="qcurve"/>
      <point x="-475" y="701" type="line" smooth="yes"/>
      <point x="-475" y="592"/>
      <point x="-372" y="517"/>
      <point x="-293" y="517" type="qcurve" smooth="yes"/>
      <point x="-288" y="517" type="line"/>
      <point x="-117" y="522"/>
      <point x="-117" y="701" type="qcurve"/>
      <point x="-118" y="736" type="line"/>
      <point x="-95" y="707"/>
      <point x="-95" y="666" type="qcurve" smooth="yes"/>
      <point x="-95" y="494"/>
    </contour>
    <contour>
      <point x="-339" y="504" type="qcurve"/>
      <point x="-352" y="506" type="line"/>
      <point x="-355" y="542" type="line"/>
      <point x="-355" y="622"/>
      <point x="-296" y="622" type="qcurve" smooth="yes"/>
      <point x="-280" y="621" type="line"/>
      <point x="-231" y="613"/>
      <point x="-231" y="557" type="qcurve" smooth="yes"/>
      <point x="-231" y="537"/>
      <point x="-237" y="514" type="qcurve"/>
      <point x="-249" y="516" type="line"/>
      <point x="-248" y="532" type="line" smooth="yes"/>
      <point x="-248" y="586"/>
      <point x="-292" y="586" type="qcurve" smooth="yes"/>
      <point x="-339" y="586"/>
    </contour>
  </outline>
</glyph>
<glyph name="uni1B02" format="2">
  <advance width="0"/>
  <unicode hex="1B02"/>
  <anchor x="-225" y="502" name="_Anchor-0"/>
  <outline>
    <contour>
      <point x="-292" y="795" type="qcurve" smooth="yes"/>
      <point x="-264" y="795" type="line" smooth="yes"/>
      <point x="-183" y="795"/>
      <point x="-172" y="696" type="qcurve"/>
      <point x="-172" y="615"/>
      <point x="-253" y="501" type="qcurve"/>
      <point x="-263" y="509" type="line"/>
      <point x="-204" y="625"/>
      <point x="-204" y="696" type="qcurve"/>
      <point x="-215" y="774"/>
      <point x="-306" y="774" type="qcurve"/>
      <point x="-306" y="781" type="line" smooth="yes"/>
      <point x="-304" y="795"/>
    </contour>
  </outline>
</glyph>
<glyph name="uni1B03" format="2">
  <advance width="0"/>
  <unicode hex="1B03"/>
  <outline>
    <contour>
      <point x="-110" y="539" type="line"/>
      <point x="-353" y="577"/>
      <point x="-622" y="687"/>
      <point x="-734" y="789"/>
      <point x="-734" y="857" type="qcurve" smooth="yes"/>
      <point x="-734" y="895"/>
      <point x="-714" y="922" type="qcurve"/>
      <point x="-715" y="905" type="line"/>
      <point x="-715" y="794"/>
      <point x="-437" y="629"/>
      <point x="-106" y="554" type="qcurve"/>
    </contour>
  </outline>
</glyph>
<glyph name="uni1B04" format="2">
  <advance width="265"/>
  <unicode hex="1B04"/>
  <outline>
    <contour>
      <point x="129" y="-485" type="qcurve"/>
      <point x="123" y="-485" type="line" smooth="yes"/>
      <point x="77" y="-485"/>
      <point x="72" y="-400" type="qcurve" smooth="yes"/>
      <point x="72" y="-335"/>
      <point x="175" y="28"/>
      <point x="175" y="131" type="qcurve" smooth="yes"/>
      <point x="175" y="198"/>
      <point x="89" y="258" type="qcurve"/>
      <point x="93" y="271" type="line"/>
      <point x="204" y="317"/>
      <point x="204" y="377" type="qcurve" smooth="yes"/>
      <point x="204" y="392"/>
      <point x="181" y="392" type="qcurve" smooth="yes"/>
      <point x="114" y="392"/>
      <point x="55" y="303"/>
      <point x="46" y="210" type="qcurve"/>
      <point x="35" y="247"/>
      <point x="35" y="278" type="qcurve" smooth="yes"/>
      <point x="35" y="334"/>
      <point x="103" y="421"/>
      <point x="167" y="421" type="qcurve" smooth="yes"/>
      <point x="228" y="421"/>
      <point x="230" y="371" type="qcurve" smooth="yes"/>
      <point x="230" y="305"/>
      <point x="130" y="264" type="qcurve"/>
      <point x="201" y="234"/>
      <point x="209" y="126" type="qcurve"/>
      <point x="209" y="37"/>
      <point x="106" y="-325"/>
      <point x="106" y="-404" type="qcurve" smooth="yes"/>
      <point x="106" y="-463"/>
    </contour>
  </outline>
</glyph>
<glyph name="uni1B05" format="2">
  <advance width="594"/>
  <unicode hex="1B05"/>
  <anchor x="264" y="490" name="Anchor-0"/>
  <outline>
    <contour>
      <point x="295" y="0" type="qcurve" smooth="yes"/>
      <point x="246" y="1"/>
      <point x="190" y="32"/>
      <point x="190" y="48" type="qcurve" smooth="yes"/>
      <point x="191" y="55" type="line"/>
      <point x="231" y="31"/>
      <point x="295" y="31" type="qcurve" smooth="yes"/>
      <point x="300" y="31" type="line"/>
      <point x="466" y="43"/>
      <point x="466" y="223" type="qcurve" smooth="yes"/>
      <point x="463" y="313"/>
      <point x="415" y="404" type="qcurve"/>
      <point x="437" y="421"/>
      <point x="472" y="421" type="qcurve" smooth="yes"/>
      <point x="565" y="417"/>
      <point x="569" y="285" type="qcurve" smooth="yes"/>
      <point x="569" y="219"/>
      <point x="526" y="1"/>
      <point x="501" y="1" type="qcurve"/>
      <point x="530" y="173"/>
      <point x="530" y="270" type="qcurve" smooth="yes"/>
      <point x="527" y="385"/>
      <point x="461" y="385" type="qcurve" smooth="yes"/>
      <point x="456" y="385" type="line"/>
      <point x="497" y="311"/>
      <point x="497" y="207" type="qcurve" smooth="yes"/>
      <point x="497" y="202" type="line"/>
      <point x="490" y="4"/>
    </contour>
    <contour>
      <point x="537" y="-136" type="qcurve"/>
      <point x="525" y="-19"/>
      <point x="437" y="100" type="qcurve"/>
      <point x="408" y="133" type="line" smooth="yes"/>
      <point x="382" y="158"/>
      <point x="330" y="191" type="qcurve"/>
      <point x="340" y="206"/>
      <point x="360" y="206" type="qcurve" smooth="yes"/>
      <point x="384" y="206"/>
      <point x="425" y="167" type="qcurve"/>
      <point x="458" y="127" type="line" smooth="yes"/>
      <point x="494" y="79"/>
      <point x="543" y="-63"/>
      <point x="547" y="-100" type="qcurve" smooth="yes"/>
      <point x="548" y="-114" type="line" smooth="yes"/>
      <point x="548" y="-136"/>
    </contour>
    <contour>
      <point x="54" y="-7" type="qcurve" smooth="yes"/>
      <point x="26" y="-7"/>
      <point x="26" y="6" type="qcurve"/>
      <point x="149" y="67"/>
      <point x="149" y="156" type="qcurve" smooth="yes"/>
      <point x="149" y="216"/>
      <point x="33" y="222" type="qcurve"/>
      <point x="33" y="229" type="line"/>
      <point x="125" y="309"/>
      <point x="126" y="353" type="qcurve" smooth="yes"/>
      <point x="126" y="356" type="line" smooth="yes"/>
      <point x="126" y="381"/>
      <point x="104" y="381" type="qcurve" smooth="yes"/>
      <point x="93" y="380" type="line" smooth="yes"/>
      <point x="59" y="375"/>
      <point x="12" y="330" type="qcurve"/>
      <point x="4" y="336"/>
      <point x="4" y="345" type="qcurve" smooth="yes"/>
      <point x="5" y="350" type="line"/>
      <point x="50" y="409"/>
      <point x="125" y="409" type="qcurve"/>
      <point x="160" y="401"/>
      <point x="160" y="356" type="qcurve" smooth="yes"/>
      <point x="158" y="314"/>
      <point x="78" y="241" type="qcurve"/>
      <point x="179" y="234"/>
      <point x="179" y="155" type="qcurve"/>
      <point x="178" y="139" type="line"/>
      <point x="151" y="7"/>
    </contour>
  </outline>
</glyph>
<glyph name="uni1B06" format="2">
  <advance width="804"/>
  <unicode hex="1B06"/>
  <anchor x="686" y="0" name="Anchor-1"/>
  <anchor x="494" y="490" name="Anchor-0"/>
  <outline>
    <contour>
      <point x="273" y="0" type="qcurve" smooth="yes"/>
      <point x="224" y="1"/>
      <point x="168" y="32"/>
      <point x="168" y="48" type="qcurve" smooth="yes"/>
      <point x="169" y="55" type="line"/>
      <point x="209" y="31"/>
      <point x="276" y="31" type="qcurve"/>
      <point x="379" y="43"/>
      <point x="442" y="121"/>
      <point x="442" y="214" type="qcurve" smooth="yes"/>
      <point x="441" y="252" type="line" smooth="yes"/>
      <point x="441" y="341"/>
      <point x="527" y="420"/>
      <point x="618" y="420" type="qcurve"/>
      <point x="794" y="402"/>
      <point x="794" y="233" type="qcurve" smooth="yes"/>
      <point x="794" y="150"/>
      <point x="668" y="2"/>
      <point x="605" y="2" type="qcurve" smooth="yes"/>
      <point x="557" y="2"/>
      <point x="513" y="49" type="qcurve"/>
      <point x="544" y="45"/>
      <point x="571" y="45" type="qcurve" smooth="yes"/>
      <point x="661" y="45"/>
      <point x="762" y="148"/>
      <point x="762" y="228" type="qcurve" smooth="yes"/>
      <point x="762" y="366"/>
      <point x="625" y="385" type="qcurve"/>
      <point x="611" y="385" type="line" smooth="yes"/>
      <point x="547" y="385"/>
      <point x="474" y="329"/>
      <point x="470" y="244" type="qcurve"/>
      <point x="470" y="208" type="line" smooth="yes"/>
      <point x="470" y="4"/>
    </contour>
    <contour>
      <point x="514" y="-136" type="qcurve"/>
      <point x="502" y="-19"/>
      <point x="414" y="100" type="qcurve"/>
      <point x="385" y="133" type="line" smooth="yes"/>
      <point x="359" y="158"/>
      <point x="307" y="191" type="qcurve"/>
      <point x="317" y="206"/>
      <point x="337" y="206" type="qcurve" smooth="yes"/>
      <point x="361" y="206"/>
      <point x="402" y="167" type="qcurve"/>
      <point x="435" y="127" type="line" smooth="yes"/>
      <point x="471" y="79"/>
      <point x="520" y="-63"/>
      <point x="524" y="-100" type="qcurve" smooth="yes"/>
      <point x="525" y="-114" type="line" smooth="yes"/>
      <point x="525" y="-136"/>
    </contour>
    <contour>
      <point x="54" y="-7" type="qcurve" smooth="yes"/>
      <point x="26" y="-7"/>
      <point x="26" y="6" type="qcurve"/>
      <point x="149" y="67"/>
      <point x="149" y="156" type="qcurve" smooth="yes"/>
      <point x="149" y="216"/>
      <point x="33" y="222" type="qcurve"/>
      <point x="33" y="229" type="line"/>
      <point x="125" y="309"/>
      <point x="126" y="353" type="qcurve" smooth="yes"/>
      <point x="126" y="356" type="line" smooth="yes"/>
      <point x="126" y="381"/>
      <point x="104" y="381" type="qcurve" smooth="yes"/>
      <point x="93" y="380" type="line" smooth="yes"/>
      <point x="59" y="375"/>
      <point x="12" y="330" type="qcurve"/>
      <point x="4" y="336"/>
      <point x="4" y="345" type="qcurve" smooth="yes"/>
      <point x="5" y="350" type="line"/>
      <point x="50" y="409"/>
      <point x="125" y="409" type="qcurve"/>
      <point x="160" y="401"/>
      <point x="160" y="356" type="qcurve" smooth="yes"/>
      <point x="158" y="314"/>
      <point x="78" y="241" type="qcurve"/>
      <point x="179" y="234"/>
      <point x="179" y="155" type="qcurve"/>
      <point x="178" y="139" type="line"/>
      <point x="151" y="7"/>
    </contour>
  </outline>
</glyph>
<glyph name="uni1B0A" format="2">
  <advance width="781"/>
  <unicode hex="1B0A"/>
  <anchor x="686" y="0" name="Anchor-1"/>
  <anchor x="371" y="490" name="Anchor-0"/>
  <outline>
    <contour>
      <point x="575" y="2" type="qcurve" smooth="yes"/>
      <point x="527" y="2"/>
      <point x="483" y="49" type="qcurve"/>
      <point x="518" y="41"/>
      <point x="545" y="41" type="qcurve" smooth="yes"/>
      <point x="635" y="41"/>
      <point x="730" y="144"/>
      <point x="730" y="224" type="qcurve" smooth="yes"/>
      <point x="730" y="385"/>
      <point x="576" y="385" type="qcurve" smooth="yes"/>
      <point x="572" y="385" type="line" smooth="yes"/>
      <point x="479" y="385"/>
      <point x="363" y="300" type="qcurve"/>
      <point x="367" y="327"/>
      <point x="484" y="420"/>
      <point x="588" y="420" type="qcurve"/>
      <point x="764" y="412"/>
      <point x="764" y="233" type="qcurve" smooth="yes"/>
      <point x="764" y="125"/>
      <point x="638" y="2"/>
    </contour>
    <contour>
      <point x="91" y="-461" type="line"/>
      <point x="-72" y="-438"/>
      <point x="-75" y="-297" type="qcurve" smooth="yes"/>
      <point x="-75" y="-288" type="line" smooth="yes"/>
      <point x="-75" y="-111"/>
      <point x="308" y="114"/>
      <point x="314" y="274" type="qcurve"/>
      <point x="314" y="287" type="line"/>
      <point x="305" y="390"/>
      <point x="209" y="394" type="qcurve"/>
      <point x="120" y="390"/>
      <point x="113" y="256" type="qcurve" smooth="yes"/>
      <point x="113" y="203"/>
      <point x="128" y="179" type="qcurve"/>
      <point x="121" y="172" type="line"/>
      <point x="9" y="189"/>
      <point x="9" y="311" type="qcurve"/>
      <point x="15" y="370"/>
      <point x="53" y="374" type="qcurve"/>
      <point x="41" y="357"/>
      <point x="41" y="304" type="qcurve" smooth="yes"/>
      <point x="41" y="244"/>
      <point x="90" y="195" type="qcurve"/>
      <point x="82" y="216"/>
      <point x="82" y="233" type="qcurve" smooth="yes"/>
      <point x="82" y="241" type="line" smooth="yes"/>
      <point x="82" y="417"/>
      <point x="215" y="428" type="qcurve"/>
      <point x="340" y="425"/>
      <point x="348" y="273" type="qcurve"/>
      <point x="348" y="160"/>
      <point x="198" y="5"/>
      <point x="-32" y="-142"/>
      <point x="-37" y="-288" type="qcurve" smooth="yes"/>
      <point x="-37" y="-399"/>
      <point x="68" y="-427" type="qcurve"/>
      <point x="62" y="-392"/>
      <point x="62" y="-361" type="qcurve" smooth="yes"/>
      <point x="62" y="-137"/>
      <point x="202" y="-131" type="qcurve" smooth="yes"/>
      <point x="262" y="-131"/>
      <point x="340" y="-217"/>
      <point x="341" y="-302" type="qcurve" smooth="yes"/>
      <point x="341" y="-378"/>
      <point x="318" y="-426" type="qcurve"/>
      <point x="320" y="-378" type="line"/>
      <point x="320" y="-164"/>
      <point x="213" y="-164" type="qcurve" smooth="yes"/>
      <point x="148" y="-164"/>
      <point x="90" y="-289"/>
      <point x="90" y="-420" type="qcurve" smooth="yes"/>
    </contour>
  </outline>
</glyph>
<glyph name="uni1B0D" format="2">
  <advance width="577"/>
  <unicode hex="1B0D"/>
  <anchor x="686" y="0" name="Anchor-1"/>
  <anchor x="528" y="490" name="Anchor-0"/>
  <outline>
    <contour>
      <point x="153" y="0" type="qcurve"/>
      <point x="44" y="8"/>
      <point x="44" y="120" type="qcurve" smooth="yes"/>
      <point x="47" y="194"/>
      <point x="100" y="308" type="qcurve"/>
      <point x="55" y="280"/>
      <point x="28" y="187" type="qcurve"/>
      <point x="15" y="202"/>
      <point x="15" y="219" type="qcurve" smooth="yes"/>
      <point x="27" y="295"/>
      <point x="101" y="340" type="qcurve"/>
      <point x="132" y="340"/>
      <point x="132" y="308" type="qcurve"/>
      <point x="73" y="183"/>
      <point x="73" y="115" type="qcurve" smooth="yes"/>
      <point x="73" y="27"/>
      <point x="170" y="27" type="qcurve"/>
      <point x="187" y="28" type="line"/>
      <point x="136" y="89"/>
      <point x="136" y="196" type="qcurve" smooth="yes"/>
      <point x="136" y="212" type="line"/>
      <point x="140" y="330"/>
      <point x="215" y="330" type="qcurve" smooth="yes"/>
      <point x="268" y="329"/>
      <point x="298" y="288" type="qcurve"/>
      <point x="304" y="424"/>
      <point x="434" y="424" type="qcurve"/>
      <point x="555" y="415"/>
      <point x="557" y="296" type="qcurve" smooth="yes"/>
      <point x="557" y="246"/>
      <point x="514" y="1"/>
      <point x="489" y="1" type="qcurve"/>
      <point x="514" y="192"/>
      <point x="518" y="287" type="qcurve"/>
      <point x="516" y="390"/>
      <point x="418" y="390" type="qcurve" smooth="yes"/>
      <point x="366" y="390"/>
      <point x="322" y="299"/>
      <point x="322" y="203" type="qcurve" smooth="yes"/>
      <point x="323" y="152" type="line" smooth="yes"/>
      <point x="323" y="130"/>
      <point x="304" y="128" type="qcurve"/>
      <point x="294" y="294"/>
      <point x="216" y="294" type="qcurve" smooth="yes"/>
      <point x="165" y="293"/>
      <point x="165" y="205" type="qcurve" smooth="yes"/>
      <point x="165" y="186" type="line"/>
      <point x="170" y="83"/>
      <point x="230" y="20" type="qcurve"/>
      <point x="211" y="0"/>
    </contour>
    <contour>
      <point x="375" y="-438" type="qcurve"/>
      <point x="334" y="-568" type="line"/>
      <point x="359" y="-562"/>
      <point x="373" y="-482"/>
    </contour>
    <contour>
      <point x="311" y="-615" type="qcurve"/>
      <point x="296" y="-614"/>
      <point x="296" y="-598" type="qcurve" smooth="yes"/>
      <point x="298" y="-577"/>
      <point x="364" y="-403" type="qcurve"/>
      <point x="351" y="-381"/>
      <point x="125" y="-264"/>
      <point x="125" y="-186" type="qcurve" smooth="yes"/>
      <point x="125" y="-176" type="line"/>
      <point x="135" y="-54"/>
      <point x="317" y="-46" type="qcurve"/>
      <point x="411" y="-50"/>
      <point x="437" y="-101" type="qcurve"/>
      <point x="381" y="-76"/>
      <point x="305" y="-76" type="qcurve" smooth="yes"/>
      <point x="167" y="-76"/>
      <point x="166" y="-182" type="qcurve" smooth="yes"/>
      <point x="168" y="-249"/>
      <point x="339" y="-345"/>
      <point x="377" y="-375" type="qcurve"/>
      <point x="502" y="25"/>
      <point x="514" y="113" type="qcurve"/>
      <point x="530" y="113" type="line"/>
      <point x="479" y="-167"/>
      <point x="397" y="-400" type="qcurve"/>
      <point x="399" y="-490" type="line"/>
      <point x="389" y="-590"/>
    </contour>
  </outline>
</glyph>
<glyph name="uni1B0E" format="2">
  <advance width="577"/>
  <unicode hex="1B0E"/>
  <anchor x="686" y="0" name="Anchor-1"/>
  <anchor x="528" y="490" name="Anchor-0"/>
  <outline>
    <contour>
      <point x="153" y="0" type="qcurve"/>
      <point x="44" y="8"/>
      <point x="44" y="120" type="qcurve" smooth="yes"/>
      <point x="47" y="194"/>
      <point x="100" y="308" type="qcurve"/>
      <point x="55" y="280"/>
      <point x="28" y="187" type="qcurve"/>
      <point x="15" y="202"/>
      <point x="15" y="219" type="qcurve" smooth="yes"/>
      <point x="27" y="295"/>
      <point x="101" y="340" type="qcurve"/>
      <point x="132" y="340"/>
      <point x="132" y="308" type="qcurve"/>
      <point x="73" y="183"/>
      <point x="73" y="115" type="qcurve" smooth="yes"/>
      <point x="73" y="27"/>
      <point x="170" y="27" type="qcurve"/>
      <point x="187" y="28" type="line"/>
      <point x="136" y="89"/>
      <point x="136" y="196" type="qcurve" smooth="yes"/>
      <point x="136" y="212" type="line"/>
      <point x="140" y="330"/>
      <point x="215" y="330" type="qcurve" smooth="yes"/>
      <point x="268" y="329"/>
      <point x="298" y="288" type="qcurve"/>
      <point x="304" y="424"/>
      <point x="434" y="424" type="qcurve"/>
      <point x="555" y="415"/>
      <point x="557" y="296" type="qcurve" smooth="yes"/>
      <point x="557" y="246"/>
      <point x="514" y="1"/>
      <point x="489" y="1" type="qcurve"/>
      <point x="514" y="192"/>
      <point x="518" y="287" type="qcurve"/>
      <point x="516" y="390"/>
      <point x="418" y="390" type="qcurve" smooth="yes"/>
      <point x="366" y="390"/>
      <point x="322" y="299"/>
      <point x="322" y="203" type="qcurve" smooth="yes"/>
      <point x="323" y="152" type="line" smooth="yes"/>
      <point x="323" y="130"/>
      <point x="304" y="128" type="qcurve"/>
      <point x="294" y="294"/>
      <point x="216" y="294" type="qcurve" smooth="yes"/>
      <point x="165" y="293"/>
      <point x="165" y="205" type="qcurve" smooth="yes"/>
      <point x="165" y="186" type="line"/>
      <point x="170" y="83"/>
      <point x="230" y="20" type="qcurve"/>
      <point x="211" y="0"/>
    </contour>
    <contour>
      <point x="460" y="-107" type="qcurve"/>
      <point x="369" y="-69"/>
      <point x="169" y="-96"/>
      <point x="168" y="-182" type="qcurve" smooth="yes"/>
      <point x="170" y="-249"/>
      <point x="341" y="-345"/>
      <point x="379" y="-375" type="qcurve"/>
      <point x="429" y="-216"/>
    </contour>
    <contour>
      <point x="483" y="-118" type="qcurve"/>
      <point x="446" y="-267"/>
      <point x="399" y="-400" type="qcurve"/>
      <point x="400" y="-471"/>
      <point x="355" y="-512" type="qcurve"/>
      <point x="340" y="-511"/>
      <point x="340" y="-495" type="qcurve" smooth="yes"/>
      <point x="342" y="-474"/>
      <point x="366" y="-403" type="qcurve"/>
      <point x="353" y="-381"/>
      <point x="127" y="-264"/>
      <point x="127" y="-186" type="qcurve" smooth="yes"/>
      <point x="127" y="-176" type="line"/>
      <point x="137" y="-74"/>
      <point x="381" y="-40"/>
      <point x="467" y="-85" type="qcurve"/>
      <point x="509" y="63"/>
      <point x="516" y="113" type="qcurve"/>
      <point x="532" y="113" type="line"/>
      <point x="512" y="6"/>
      <point x="488" y="-95" type="qcurve"/>
      <point x="574" y="-135"/>
      <point x="563" y="-277"/>
      <point x="484" y="-349" type="qcurve"/>
      <point x="585" y="-356"/>
      <point x="585" y="-435" type="qcurve"/>
      <point x="584" y="-451" type="line"/>
      <point x="557" y="-583"/>
      <point x="460" y="-597" type="qcurve" smooth="yes"/>
      <point x="432" y="-597"/>
      <point x="432" y="-584" type="qcurve"/>
      <point x="555" y="-523"/>
      <point x="555" y="-434" type="qcurve" smooth="yes"/>
      <point x="555" y="-374"/>
      <point x="439" y="-368" type="qcurve"/>
      <point x="439" y="-361" type="line"/>
      <point x="531" y="-281"/>
      <point x="546" y="-157"/>
    </contour>
  </outline>
</glyph>
<glyph name="uni1B12" format="2">
  <advance width="998"/>
  <unicode hex="1B12"/>
  <anchor x="686" y="0" name="Anchor-1"/>
  <anchor x="540" y="490" name="Anchor-0"/>
  <outline>
    <contour>
      <point x="200" y="-461" type="line"/>
      <point x="37" y="-438"/>
      <point x="34" y="-297" type="qcurve" smooth="yes"/>
      <point x="34" y="-288" type="line" smooth="yes"/>
      <point x="34" y="-111"/>
      <point x="268" y="-20" type="qcurve" smooth="yes"/>
      <point x="517" y="74"/>
      <point x="523" y="274" type="qcurve"/>
      <point x="523" y="287" type="line"/>
      <point x="514" y="390"/>
      <point x="418" y="390" type="qcurve" smooth="yes"/>
      <point x="352" y="390"/>
      <point x="323" y="286"/>
      <point x="323" y="158" type="qcurve" smooth="yes"/>
      <point x="323" y="130"/>
      <point x="304" y="128" type="qcurve"/>
      <point x="294" y="294"/>
      <point x="216" y="294" type="qcurve" smooth="yes"/>
      <point x="165" y="293"/>
      <point x="165" y="205" type="qcurve" smooth="yes"/>
      <point x="165" y="186" type="line"/>
      <point x="170" y="83"/>
      <point x="230" y="23" type="qcurve"/>
      <point x="211" y="3"/>
      <point x="173" y="3" type="qcurve" smooth="yes"/>
      <point x="159" y="4" type="line"/>
      <point x="44" y="21"/>
      <point x="44" y="118" type="qcurve" smooth="yes"/>
      <point x="44" y="122" type="line" smooth="yes"/>
      <point x="47" y="194"/>
      <point x="100" y="308" type="qcurve"/>
      <point x="55" y="280"/>
      <point x="28" y="187" type="qcurve"/>
      <point x="20" y="202"/>
      <point x="20" y="219" type="qcurve" smooth="yes"/>
      <point x="32" y="295"/>
      <point x="101" y="340" type="qcurve"/>
      <point x="132" y="340"/>
      <point x="132" y="308" type="qcurve"/>
      <point x="73" y="183"/>
      <point x="73" y="135" type="qcurve" smooth="yes"/>
      <point x="73" y="33"/>
      <point x="187" y="31" type="qcurve"/>
      <point x="136" y="89"/>
      <point x="136" y="196" type="qcurve" smooth="yes"/>
      <point x="136" y="212" type="line"/>
      <point x="140" y="330"/>
      <point x="215" y="330" type="qcurve" smooth="yes"/>
      <point x="268" y="329"/>
      <point x="298" y="288" type="qcurve"/>
      <point x="304" y="424"/>
      <point x="424" y="424" type="qcurve"/>
      <point x="549" y="415"/>
      <point x="557" y="273" type="qcurve"/>
      <point x="557" y="160"/>
      <point x="407" y="5"/>
      <point x="77" y="-142"/>
      <point x="72" y="-288" type="qcurve" smooth="yes"/>
      <point x="72" y="-399"/>
      <point x="177" y="-427" type="qcurve"/>
      <point x="171" y="-392"/>
      <point x="171" y="-361" type="qcurve" smooth="yes"/>
      <point x="171" y="-235"/>
      <point x="289" y="-114"/>
      <point x="384" y="-114" type="qcurve" smooth="yes"/>
      <point x="393" y="-114" type="line"/>
      <point x="469" y="-119"/>
      <point x="569" y="-227"/>
      <point x="570" y="-302" type="qcurve" smooth="yes"/>
      <point x="570" y="-378"/>
      <point x="547" y="-426" type="qcurve"/>
      <point x="549" y="-378" type="line"/>
      <point x="549" y="-277"/>
      <point x="470" y="-149"/>
      <point x="391" y="-149" type="qcurve" smooth="yes"/>
      <point x="199" y="-149"/>
      <point x="199" y="-420" type="qcurve"/>
    </contour>
    <contour>
      <point x="782" y="2" type="qcurve" smooth="yes"/>
      <point x="734" y="2"/>
      <point x="690" y="49" type="qcurve"/>
      <point x="725" y="41"/>
      <point x="752" y="41" type="qcurve" smooth="yes"/>
      <point x="842" y="41"/>
      <point x="937" y="144"/>
      <point x="937" y="224" type="qcurve" smooth="yes"/>
      <point x="937" y="385"/>
      <point x="783" y="385" type="qcurve" smooth="yes"/>
      <point x="779" y="385" type="line" smooth="yes"/>
      <point x="686" y="385"/>
      <point x="570" y="300" type="qcurve"/>
      <point x="574" y="327"/>
      <point x="691" y="420"/>
      <point x="795" y="420" type="qcurve"/>
      <point x="971" y="412"/>
      <point x="971" y="233" type="qcurve" smooth="yes"/>
      <point x="971" y="125"/>
      <point x="845" y="2"/>
    </contour>
  </outline>
</glyph>
<glyph name="uni1B15" format="2">
  <advance width="653"/>
  <unicode hex="1B15"/>
  <anchor x="472" y="0" name="Anchor-3"/>
  <anchor x="686" y="0" name="Anchor-1"/>
  <anchor x="426" y="490" name="Anchor-0"/>
  <outline>
    <contour>
      <point x="424" y="0" type="qcurve"/>
      <point x="440" y="80"/>
      <point x="448" y="158"/>
      <point x="449" y="239" type="qcurve" smooth="yes"/>
      <point x="449" y="320"/>
      <point x="343" y="384"/>
      <point x="250" y="388" type="qcurve"/>
      <point x="146" y="388"/>
      <point x="146" y="170" type="qcurve" smooth="yes"/>
      <point x="146" y="100"/>
      <point x="183" y="1" type="qcurve"/>
      <point x="164" y="0" type="line"/>
      <point x="40" y="0"/>
      <point x="40" y="151" type="qcurve" smooth="yes"/>
      <point x="40" y="263"/>
      <point x="107" y="307" type="qcurve"/>
      <point x="73" y="243"/>
      <point x="73" y="150" type="qcurve" smooth="yes"/>
      <point x="73" y="56"/>
      <point x="139" y="36" type="qcurve"/>
      <point x="109" y="100"/>
      <point x="109" y="170" type="qcurve" smooth="yes"/>
      <point x="109" y="421"/>
      <point x="242" y="421" type="qcurve" smooth="yes"/>
      <point x="393" y="421"/>
      <point x="442" y="362" type="qcurve"/>
      <point x="465" y="421"/>
      <point x="512" y="421" type="qcurve" smooth="yes"/>
      <point x="613" y="414"/>
      <point x="613" y="312" type="qcurve" smooth="yes"/>
      <point x="613" y="246"/>
      <point x="570" y="1"/>
      <point x="545" y="1" type="qcurve"/>
      <point x="570" y="192"/>
      <point x="574" y="274" type="qcurve" smooth="yes"/>
      <point x="575" y="307" type="line" smooth="yes"/>
      <point x="575" y="380"/>
      <point x="521" y="388" type="qcurve"/>
      <point x="516" y="388" type="line" smooth="yes"/>
      <point x="490" y="388"/>
      <point x="467" y="341" type="qcurve"/>
      <point x="481" y="300"/>
      <point x="481" y="229" type="qcurve" smooth="yes"/>
      <point x="481" y="157"/>
      <point x="458" y="0"/>
    </contour>
  </outline>
</glyph>
<glyph name="uni1B16" format="2">
  <advance width="994"/>
  <unicode hex="1B16"/>
  <anchor x="588" y="0" name="Anchor-3"/>
  <anchor x="686" y="0" name="Anchor-1"/>
  <anchor x="539" y="490" name="Anchor-0"/>
  <outline>
    <contour>
      <point x="415" y="-4" type="qcurve" smooth="yes"/>
      <point x="404" y="-4" type="line" smooth="yes"/>
      <point x="299" y="-4"/>
      <point x="299" y="85" type="qcurve" smooth="yes"/>
      <point x="299" y="161"/>
      <point x="349" y="335" type="qcurve"/>
      <point x="351" y="347" type="line"/>
      <point x="351" y="381"/>
      <point x="278" y="387" type="qcurve"/>
      <point x="274" y="387" type="line" smooth="yes"/>
      <point x="165" y="387"/>
      <point x="149" y="153" type="qcurve"/>
      <point x="149" y="76"/>
      <point x="164" y="-3" type="qcurve"/>
      <point x="40" y="5"/>
      <point x="40" y="152" type="qcurve" smooth="yes"/>
      <point x="40" y="229"/>
      <point x="98" y="340"/>
      <point x="133" y="350" type="qcurve"/>
      <point x="75" y="254"/>
      <point x="75" y="165" type="qcurve" smooth="yes"/>
      <point x="75" y="58"/>
      <point x="129" y="43" type="qcurve"/>
      <point x="115" y="65"/>
      <point x="115" y="162" type="qcurve"/>
      <point x="135" y="421"/>
      <point x="284" y="421" type="qcurve" smooth="yes"/>
      <point x="292" y="421" type="line"/>
      <point x="386" y="414"/>
      <point x="386" y="349" type="qcurve"/>
      <point x="384" y="331" type="line"/>
      <point x="340" y="149"/>
      <point x="340" y="89" type="qcurve" smooth="yes"/>
      <point x="340" y="29"/>
      <point x="416" y="29" type="qcurve" smooth="yes"/>
      <point x="562" y="29"/>
      <point x="588" y="345" type="qcurve"/>
      <point x="609" y="344"/>
      <point x="614" y="335" type="qcurve" smooth="yes"/>
      <point x="658" y="33"/>
      <point x="759" y="33" type="qcurve" smooth="yes"/>
      <point x="762" y="33" type="line"/>
      <point x="807" y="38"/>
      <point x="852" y="140"/>
      <point x="852" y="206" type="qcurve" smooth="yes"/>
      <point x="852" y="305"/>
      <point x="800" y="404" type="qcurve"/>
      <point x="822" y="421"/>
      <point x="857" y="421" type="qcurve" smooth="yes"/>
      <point x="950" y="417"/>
      <point x="954" y="285" type="qcurve" smooth="yes"/>
      <point x="954" y="219"/>
      <point x="911" y="1"/>
      <point x="886" y="1" type="qcurve"/>
      <point x="915" y="173"/>
      <point x="915" y="270" type="qcurve" smooth="yes"/>
      <point x="912" y="385"/>
      <point x="846" y="385" type="qcurve" smooth="yes"/>
      <point x="841" y="385" type="line"/>
      <point x="883" y="309"/>
      <point x="883" y="212" type="qcurve" smooth="yes"/>
      <point x="880" y="11"/>
      <point x="760" y="-1" type="qcurve"/>
      <point x="643" y="-1"/>
      <point x="601" y="233" type="qcurve"/>
      <point x="563" y="-4"/>
    </contour>
  </outline>
</glyph>
<glyph name="uni1B17" format="2">
  <advance width="622"/>
  <unicode hex="1B17"/>
  <anchor x="483" y="0" name="Anchor-3"/>
  <anchor x="686" y="0" name="Anchor-1"/>
  <anchor x="453" y="490" name="Anchor-0"/>
  <outline>
    <contour>
      <point x="178" y="0" type="qcurve"/>
      <point x="69" y="8"/>
      <point x="69" y="120" type="qcurve" smooth="yes"/>
      <point x="72" y="194"/>
      <point x="125" y="308" type="qcurve"/>
      <point x="80" y="280"/>
      <point x="53" y="187" type="qcurve"/>
      <point x="40" y="202"/>
      <point x="40" y="219" type="qcurve" smooth="yes"/>
      <point x="52" y="295"/>
      <point x="126" y="340" type="qcurve"/>
      <point x="157" y="340"/>
      <point x="157" y="308" type="qcurve"/>
      <point x="98" y="183"/>
      <point x="98" y="115" type="qcurve" smooth="yes"/>
      <point x="98" y="27"/>
      <point x="195" y="27" type="qcurve"/>
      <point x="212" y="28" type="line"/>
      <point x="161" y="89"/>
      <point x="161" y="196" type="qcurve" smooth="yes"/>
      <point x="161" y="212" type="line"/>
      <point x="165" y="330"/>
      <point x="240" y="330" type="qcurve" smooth="yes"/>
      <point x="293" y="329"/>
      <point x="323" y="288" type="qcurve"/>
      <point x="329" y="424"/>
      <point x="459" y="424" type="qcurve"/>
      <point x="580" y="415"/>
      <point x="582" y="296" type="qcurve" smooth="yes"/>
      <point x="582" y="246"/>
      <point x="539" y="1"/>
      <point x="514" y="1" type="qcurve"/>
      <point x="539" y="192"/>
      <point x="543" y="287" type="qcurve"/>
      <point x="541" y="390"/>
      <point x="443" y="390" type="qcurve" smooth="yes"/>
      <point x="391" y="390"/>
      <point x="347" y="299"/>
      <point x="347" y="203" type="qcurve" smooth="yes"/>
      <point x="348" y="152" type="line" smooth="yes"/>
      <point x="348" y="130"/>
      <point x="329" y="128" type="qcurve"/>
      <point x="319" y="294"/>
      <point x="241" y="294" type="qcurve" smooth="yes"/>
      <point x="190" y="293"/>
      <point x="190" y="205" type="qcurve" smooth="yes"/>
      <point x="190" y="186" type="line"/>
      <point x="195" y="83"/>
      <point x="255" y="20" type="qcurve"/>
      <point x="236" y="0"/>
    </contour>
  </outline>
</glyph>
<glyph name="uni1B18" format="2">
  <advance width="681"/>
  <unicode hex="1B18"/>
  <anchor x="427" y="0" name="Anchor-3"/>
  <anchor x="686" y="0" name="Anchor-1"/>
  <anchor x="347" y="490" name="Anchor-0"/>
  <outline>
    <contour>
      <point x="114" y="-1" type="qcurve"/>
      <point x="106" y="-1" type="line"/>
      <point x="106" y="60" type="line" smooth="yes"/>
      <point x="106" y="100"/>
      <point x="223" y="196" type="qcurve"/>
      <point x="256" y="277"/>
      <point x="256" y="327" type="qcurve" smooth="yes"/>
      <point x="255" y="342" type="line" smooth="yes"/>
      <point x="249" y="394"/>
      <point x="199" y="394" type="qcurve" smooth="yes"/>
      <point x="93" y="394"/>
      <point x="59" y="203" type="qcurve"/>
      <point x="40" y="214"/>
      <point x="40" y="244" type="qcurve" smooth="yes"/>
      <point x="41" y="257" type="line"/>
      <point x="75" y="421"/>
      <point x="196" y="421" type="qcurve" smooth="yes"/>
      <point x="289" y="421"/>
      <point x="289" y="334" type="qcurve" smooth="yes"/>
      <point x="289" y="293"/>
      <point x="254" y="192" type="qcurve"/>
      <point x="298" y="182"/>
      <point x="366" y="73" type="qcurve"/>
      <point x="397" y="31"/>
      <point x="433" y="31" type="qcurve" smooth="yes"/>
      <point x="469" y="31"/>
      <point x="492" y="74" type="qcurve" smooth="yes"/>
      <point x="514" y="119"/>
      <point x="514" y="203" type="qcurve" smooth="yes"/>
      <point x="513" y="287"/>
      <point x="443" y="337" type="qcurve"/>
      <point x="528" y="337"/>
      <point x="544" y="212" type="qcurve"/>
      <point x="544" y="6"/>
      <point x="432" y="1" type="qcurve"/>
      <point x="427" y="1" type="line" smooth="yes"/>
      <point x="382" y="1"/>
      <point x="349" y="48" type="qcurve" smooth="yes"/>
      <point x="313" y="98"/>
      <point x="269" y="153"/>
      <point x="246" y="167" type="qcurve"/>
      <point x="180" y="57"/>
    </contour>
    <contour>
      <point x="506" y="390" type="qcurve" smooth="yes"/>
      <point x="409" y="390"/>
      <point x="382" y="228" type="qcurve"/>
      <point x="366" y="228"/>
      <point x="366" y="267" type="qcurve"/>
      <point x="395" y="424"/>
      <point x="518" y="424" type="qcurve"/>
      <point x="639" y="420"/>
      <point x="641" y="296" type="qcurve" smooth="yes"/>
      <point x="641" y="246"/>
      <point x="598" y="1"/>
      <point x="573" y="1" type="qcurve"/>
      <point x="598" y="192"/>
      <point x="602" y="287" type="qcurve"/>
      <point x="600" y="388"/>
    </contour>
  </outline>
</glyph>
<glyph name="uni1B19" format="2">
  <advance width="652"/>
  <unicode hex="1B19"/>
  <anchor x="477" y="0" name="Anchor-3"/>
  <anchor x="686" y="0" name="Anchor-1"/>
  <anchor x="463" y="490" name="Anchor-0"/>
  <outline>
    <contour>
      <point x="530" y="225" type="qcurve" smooth="yes"/>
      <point x="529" y="321"/>
      <point x="478" y="419" type="qcurve"/>
      <point x="500" y="436"/>
      <point x="535" y="436" type="qcurve" smooth="yes"/>
      <point x="552" y="435" type="line"/>
      <point x="628" y="416"/>
      <point x="632" y="312" type="qcurve" smooth="yes"/>
      <point x="632" y="246"/>
      <point x="589" y="1"/>
      <point x="564" y="1" type="qcurve"/>
      <point x="589" y="192"/>
      <point x="593" y="274" type="qcurve"/>
      <point x="593" y="285" type="line" smooth="yes"/>
      <point x="590" y="395"/>
      <point x="521" y="404" type="qcurve"/>
      <point x="561" y="301"/>
      <point x="561" y="222" type="qcurve" smooth="yes"/>
      <point x="561" y="13"/>
      <point x="421" y="5" type="qcurve"/>
      <point x="346" y="9"/>
      <point x="293" y="219"/>
      <point x="269" y="385"/>
      <point x="185" y="385" type="qcurve" smooth="yes"/>
      <point x="56" y="385"/>
      <point x="56" y="190" type="qcurve" smooth="yes"/>
      <point x="58" y="33"/>
      <point x="131" y="33" type="qcurve" smooth="yes"/>
      <point x="198" y="33"/>
      <point x="198" y="154" type="qcurve" smooth="yes"/>
      <point x="198" y="210"/>
      <point x="188" y="243" type="qcurve"/>
      <point x="223" y="221"/>
      <point x="223" y="137" type="qcurve" smooth="yes"/>
      <point x="223" y="5"/>
      <point x="130" y="-1" type="qcurve"/>
      <point x="32" y="-1"/>
      <point x="20" y="174" type="qcurve"/>
      <point x="20" y="415"/>
      <point x="190" y="415" type="qcurve" smooth="yes"/>
      <point x="299" y="413"/>
      <point x="326" y="212"/>
      <point x="375" y="38"/>
      <point x="435" y="38" type="qcurve"/>
      <point x="529" y="50"/>
    </contour>
  </outline>
</glyph>
<glyph name="uni1B1E" format="2">
  <advance width="618"/>
  <unicode hex="1B1E"/>
  <anchor x="470" y="0" name="Anchor-3"/>
  <anchor x="686" y="0" name="Anchor-1"/>
  <anchor x="440" y="490" name="Anchor-0"/>
  <outline>
    <contour>
      <point x="502" y="1" type="qcurve"/>
      <point x="529" y="192"/>
      <point x="533" y="275" type="qcurve"/>
      <point x="533" y="393"/>
      <point x="423" y="393" type="qcurve"/>
      <point x="359" y="389"/>
      <point x="286" y="295" type="qcurve"/>
      <point x="284" y="301"/>
      <point x="284" y="308" type="qcurve" smooth="yes"/>
      <point x="284" y="333"/>
      <point x="314" y="368" type="qcurve" smooth="yes"/>
      <point x="358" y="417"/>
      <point x="423" y="421" type="qcurve"/>
      <point x="562" y="421"/>
      <point x="570" y="312" type="qcurve"/>
      <point x="570" y="246"/>
      <point x="527" y="1"/>
    </contour>
    <contour>
      <point x="284" y="28" type="qcurve"/>
      <point x="338" y="35"/>
      <point x="405" y="93"/>
      <point x="405" y="119" type="qcurve" smooth="yes"/>
      <point x="403" y="142"/>
      <point x="376" y="142" type="qcurve" smooth="yes"/>
      <point x="369" y="142" type="line"/>
      <point x="291" y="133"/>
    </contour>
    <contour>
      <point x="250" y="-2" type="qcurve" smooth="yes"/>
      <point x="219" y="-6"/>
      <point x="192" y="-6" type="qcurve" smooth="yes"/>
      <point x="55" y="-6"/>
      <point x="49" y="91" type="qcurve"/>
      <point x="49" y="178"/>
      <point x="183" y="344" type="qcurve"/>
      <point x="164" y="352"/>
      <point x="151" y="352" type="qcurve" smooth="yes"/>
      <point x="77" y="352"/>
      <point x="59" y="212" type="qcurve"/>
      <point x="40" y="212"/>
      <point x="40" y="231" type="qcurve" smooth="yes"/>
      <point x="40" y="303"/>
      <point x="100" y="381"/>
      <point x="147" y="381" type="qcurve" smooth="yes"/>
      <point x="212" y="381"/>
      <point x="218" y="339" type="qcurve"/>
      <point x="203" y="317"/>
      <point x="142" y="243"/>
      <point x="83" y="133"/>
      <point x="83" y="103" type="qcurve" smooth="yes"/>
      <point x="83" y="22"/>
      <point x="204" y="22" type="qcurve" smooth="yes"/>
      <point x="227" y="22"/>
      <point x="254" y="25" type="qcurve"/>
      <point x="265" y="101"/>
      <point x="338" y="171"/>
      <point x="382" y="171" type="qcurve" smooth="yes"/>
      <point x="389" y="171" type="line"/>
      <point x="431" y="167"/>
      <point x="438" y="132" type="qcurve" smooth="yes"/>
      <point x="439" y="123" type="line" smooth="yes"/>
      <point x="439" y="91"/>
      <point x="402" y="54" type="qcurve" smooth="yes"/>
      <point x="360" y="12"/>
    </contour>
  </outline>
</glyph>
<glyph name="uni1B1F" format="2">
  <advance width="624"/>
  <unicode hex="1B1F"/>
  <anchor x="427" y="0" name="Anchor-3"/>
  <anchor x="686" y="0" name="Anchor-1"/>
  <anchor x="398" y="484" name="Anchor-0"/>
  <outline>
    <contour>
      <point x="406" y="-1" type="qcurve"/>
      <point x="328" y="1"/>
      <point x="259" y="81" type="qcurve"/>
      <point x="213" y="0"/>
      <point x="144" y="0" type="qcurve" smooth="yes"/>
      <point x="137" y="0" type="line"/>
      <point x="63" y="8"/>
      <point x="59" y="91" type="qcurve"/>
      <point x="59" y="188"/>
      <point x="183" y="346" type="qcurve"/>
      <point x="170" y="353"/>
      <point x="157" y="353" type="qcurve" smooth="yes"/>
      <point x="61" y="353"/>
      <point x="39" y="222" type="qcurve"/>
      <point x="33" y="222" type="line" smooth="yes"/>
      <point x="20" y="222"/>
      <point x="20" y="234" type="qcurve" smooth="yes"/>
      <point x="20" y="241" type="line" smooth="yes"/>
      <point x="20" y="313"/>
      <point x="110" y="391"/>
      <point x="157" y="391" type="qcurve" smooth="yes"/>
      <point x="222" y="391"/>
      <point x="222" y="346" type="qcurve" smooth="yes"/>
      <point x="222" y="327"/>
      <point x="143" y="235"/>
      <point x="93" y="133"/>
      <point x="93" y="93" type="qcurve" smooth="yes"/>
      <point x="93" y="32"/>
      <point x="146" y="30" type="qcurve"/>
      <point x="212" y="35"/>
      <point x="259" y="133" type="qcurve"/>
      <point x="345" y="33"/>
      <point x="411" y="30" type="qcurve"/>
      <point x="502" y="35"/>
      <point x="502" y="208" type="qcurve" smooth="yes"/>
      <point x="502" y="305"/>
      <point x="450" y="404" type="qcurve"/>
      <point x="472" y="421"/>
      <point x="507" y="421" type="qcurve" smooth="yes"/>
      <point x="524" y="420" type="line"/>
      <point x="600" y="401"/>
      <point x="604" y="297" type="qcurve" smooth="yes"/>
      <point x="604" y="231"/>
      <point x="561" y="1"/>
      <point x="536" y="1" type="qcurve"/>
      <point x="561" y="177"/>
      <point x="565" y="259" type="qcurve"/>
      <point x="565" y="270" type="line" smooth="yes"/>
      <point x="562" y="380"/>
      <point x="493" y="389" type="qcurve"/>
      <point x="533" y="286"/>
      <point x="533" y="202" type="qcurve" smooth="yes"/>
      <point x="533" y="4"/>
    </contour>
  </outline>
</glyph>
<glyph name="uni1B21" format="2">
  <advance width="800"/>
  <unicode hex="1B21"/>
  <anchor x="471" y="0" name="Anchor-3"/>
  <anchor x="686" y="0" name="Anchor-1"/>
  <anchor x="430" y="490" name="Anchor-0"/>
  <outline>
    <contour>
      <point x="561" y="-1" type="qcurve" smooth="yes"/>
      <point x="499" y="-1"/>
      <point x="499" y="101" type="qcurve" smooth="yes"/>
      <point x="499" y="126"/>
      <point x="503" y="158" type="qcurve" smooth="yes"/>
      <point x="521" y="317"/>
      <point x="521" y="342" type="qcurve" smooth="yes"/>
      <point x="521" y="385"/>
      <point x="502" y="385" type="qcurve" smooth="yes"/>
      <point x="463" y="385"/>
      <point x="347" y="198" type="qcurve"/>
      <point x="342" y="198" type="line" smooth="yes"/>
      <point x="316" y="198"/>
      <point x="316" y="231" type="qcurve" smooth="yes"/>
      <point x="319" y="336" type="line" smooth="yes"/>
      <point x="319" y="388"/>
      <point x="258" y="392" type="qcurve"/>
      <point x="254" y="392" type="line" smooth="yes"/>
      <point x="163" y="389"/>
      <point x="163" y="255" type="qcurve" smooth="yes"/>
      <point x="163" y="197"/>
      <point x="184" y="147" type="qcurve"/>
      <point x="40" y="155"/>
      <point x="40" y="263" type="qcurve" smooth="yes"/>
      <point x="40" y="320"/>
      <point x="98" y="421"/>
      <point x="130" y="421" type="qcurve" smooth="yes"/>
      <point x="133" y="421" type="line"/>
      <point x="69" y="353"/>
      <point x="69" y="266" type="qcurve" smooth="yes"/>
      <point x="69" y="186"/>
      <point x="142" y="173" type="qcurve"/>
      <point x="149" y="173" type="line"/>
      <point x="135" y="215"/>
      <point x="135" y="282" type="qcurve"/>
      <point x="145" y="422"/>
      <point x="274" y="422" type="qcurve" smooth="yes"/>
      <point x="282" y="422" type="line"/>
      <point x="352" y="414"/>
      <point x="352" y="338" type="qcurve" smooth="yes"/>
      <point x="352" y="329" type="line"/>
      <point x="344" y="242" type="line"/>
      <point x="443" y="418"/>
      <point x="513" y="418" type="qcurve" smooth="yes"/>
      <point x="517" y="418" type="line"/>
      <point x="550" y="414"/>
      <point x="555" y="367" type="qcurve" smooth="yes"/>
      <point x="556" y="348" type="line" smooth="yes"/>
      <point x="556" y="295"/>
      <point x="540" y="177" type="qcurve" smooth="yes"/>
      <point x="534" y="131"/>
      <point x="534" y="100" type="qcurve" smooth="yes"/>
      <point x="534" y="33"/>
      <point x="563" y="33" type="qcurve" smooth="yes"/>
      <point x="639" y="35"/>
      <point x="658" y="208" type="qcurve"/>
      <point x="659" y="242" type="line" smooth="yes"/>
      <point x="659" y="345"/>
      <point x="606" y="404" type="qcurve"/>
      <point x="628" y="421"/>
      <point x="663" y="421" type="qcurve" smooth="yes"/>
      <point x="756" y="417"/>
      <point x="760" y="285" type="qcurve" smooth="yes"/>
      <point x="760" y="219"/>
      <point x="717" y="1"/>
      <point x="692" y="1" type="qcurve"/>
      <point x="721" y="173"/>
      <point x="721" y="270" type="qcurve" smooth="yes"/>
      <point x="718" y="385"/>
      <point x="652" y="385" type="qcurve" smooth="yes"/>
      <point x="647" y="385" type="line"/>
      <point x="691" y="346"/>
      <point x="691" y="244" type="qcurve"/>
      <point x="689" y="202" type="line"/>
      <point x="673" y="-1"/>
    </contour>
  </outline>
</glyph>
<glyph name="uni1B23" format="2">
  <advance width="621"/>
  <unicode hex="1B23"/>
  <anchor x="412" y="0" name="Anchor-3"/>
  <anchor x="686" y="0" name="Anchor-1"/>
  <anchor x="362" y="490" name="Anchor-0"/>
  <outline>
    <contour>
      <point x="262" y="-2" type="qcurve"/>
      <point x="79" y="6"/>
      <point x="79" y="163" type="qcurve" smooth="yes"/>
      <point x="79" y="269"/>
      <point x="146" y="381" type="qcurve"/>
      <point x="100" y="376"/>
      <point x="50" y="227" type="qcurve"/>
      <point x="40" y="227"/>
      <point x="40" y="248" type="qcurve" smooth="yes"/>
      <point x="41" y="265" type="line"/>
      <point x="77" y="418"/>
      <point x="155" y="418" type="qcurve" smooth="yes"/>
      <point x="179" y="418"/>
      <point x="188" y="389" type="qcurve"/>
      <point x="115" y="272"/>
      <point x="115" y="160" type="qcurve"/>
      <point x="120" y="33"/>
      <point x="267" y="30" type="qcurve" smooth="yes"/>
      <point x="456" y="30"/>
      <point x="456" y="202" type="qcurve"/>
      <point x="452" y="299"/>
      <point x="387" y="347" type="qcurve"/>
      <point x="476" y="347"/>
      <point x="488" y="211" type="qcurve"/>
      <point x="488" y="-2"/>
    </contour>
    <contour>
      <point x="446" y="390" type="qcurve" smooth="yes"/>
      <point x="349" y="390"/>
      <point x="322" y="228" type="qcurve"/>
      <point x="306" y="228"/>
      <point x="306" y="267" type="qcurve"/>
      <point x="335" y="424"/>
      <point x="458" y="424" type="qcurve"/>
      <point x="579" y="420"/>
      <point x="581" y="296" type="qcurve" smooth="yes"/>
      <point x="581" y="246"/>
      <point x="538" y="1"/>
      <point x="513" y="1" type="qcurve"/>
      <point x="538" y="192"/>
      <point x="542" y="287" type="qcurve"/>
      <point x="540" y="388"/>
    </contour>
    <contour>
      <point x="458" y="-136" type="qcurve"/>
      <point x="446" y="-19"/>
      <point x="358" y="100" type="qcurve"/>
      <point x="329" y="133" type="line" smooth="yes"/>
      <point x="303" y="158"/>
      <point x="251" y="191" type="qcurve"/>
      <point x="261" y="206"/>
      <point x="281" y="206" type="qcurve" smooth="yes"/>
      <point x="305" y="206"/>
      <point x="346" y="167" type="qcurve"/>
      <point x="379" y="127" type="line" smooth="yes"/>
      <point x="415" y="79"/>
      <point x="464" y="-63"/>
      <point x="468" y="-100" type="qcurve" smooth="yes"/>
      <point x="469" y="-114" type="line" smooth="yes"/>
      <point x="469" y="-136"/>
    </contour>
  </outline>
</glyph>
<glyph name="uni1B24" format="2">
  <advance width="653"/>
  <unicode hex="1B24"/>
  <anchor x="400" y="0" name="Anchor-3"/>
  <anchor x="686" y="0" name="Anchor-1"/>
  <anchor x="370" y="490" name="Anchor-0"/>
  <outline>
    <contour>
      <point x="410" y="64" type="qcurve" smooth="yes"/>
      <point x="428" y="64"/>
      <point x="433" y="81" type="qcurve" smooth="yes"/>
      <point x="434" y="88" type="line" smooth="yes"/>
      <point x="434" y="110"/>
      <point x="393" y="146"/>
      <point x="347" y="146" type="qcurve"/>
      <point x="367" y="64"/>
    </contour>
    <contour>
      <point x="199" y="-1" type="qcurve"/>
      <point x="53" y="-1"/>
      <point x="49" y="91" type="qcurve" smooth="yes"/>
      <point x="49" y="178"/>
      <point x="183" y="344" type="qcurve"/>
      <point x="164" y="352"/>
      <point x="151" y="352" type="qcurve" smooth="yes"/>
      <point x="77" y="352"/>
      <point x="59" y="212" type="qcurve"/>
      <point x="40" y="212"/>
      <point x="40" y="231" type="qcurve" smooth="yes"/>
      <point x="40" y="303"/>
      <point x="100" y="381"/>
      <point x="147" y="381" type="qcurve" smooth="yes"/>
      <point x="212" y="381"/>
      <point x="218" y="339" type="qcurve"/>
      <point x="203" y="317"/>
      <point x="142" y="243"/>
      <point x="83" y="133"/>
      <point x="83" y="103" type="qcurve" smooth="yes"/>
      <point x="83" y="35"/>
      <point x="178" y="27" type="qcurve"/>
      <point x="226" y="119"/>
      <point x="304" y="163" type="qcurve"/>
      <point x="288" y="227"/>
      <point x="288" y="273" type="qcurve" smooth="yes"/>
      <point x="288" y="421"/>
      <point x="413" y="421" type="qcurve" smooth="yes"/>
      <point x="607" y="421"/>
      <point x="613" y="263" type="qcurve"/>
      <point x="613" y="247" type="line" smooth="yes"/>
      <point x="611" y="171"/>
      <point x="556" y="11"/>
      <point x="532" y="0" type="qcurve"/>
      <point x="531" y="1" type="line"/>
      <point x="530" y="5" type="line"/>
      <point x="574" y="104"/>
      <point x="578" y="247" type="qcurve"/>
      <point x="574" y="389"/>
      <point x="406" y="389" type="qcurve" smooth="yes"/>
      <point x="399" y="389" type="line" smooth="yes"/>
      <point x="322" y="389"/>
      <point x="322" y="254" type="qcurve"/>
      <point x="326" y="206"/>
      <point x="337" y="175" type="qcurve"/>
      <point x="357" y="175" type="line" smooth="yes"/>
      <point x="404" y="175"/>
      <point x="464" y="126"/>
      <point x="464" y="93" type="qcurve" smooth="yes"/>
      <point x="464" y="39"/>
      <point x="415" y="38" type="qcurve" smooth="yes"/>
      <point x="344" y="38"/>
      <point x="315" y="138" type="qcurve"/>
      <point x="251" y="98"/>
    </contour>
  </outline>
</glyph>
<glyph name="uni1B25" format="2">
  <advance width="622"/>
  <unicode hex="1B25"/>
  <anchor x="419" y="0" name="Anchor-3"/>
  <anchor x="686" y="0" name="Anchor-1"/>
  <anchor x="320" y="490" name="Anchor-0"/>
  <outline>
    <contour>
      <point x="447" y="390" type="qcurve" smooth="yes"/>
      <point x="350" y="390"/>
      <point x="323" y="228" type="qcurve"/>
      <point x="307" y="228"/>
      <point x="307" y="267" type="qcurve"/>
      <point x="336" y="424"/>
      <point x="459" y="424" type="qcurve"/>
      <point x="580" y="420"/>
      <point x="582" y="296" type="qcurve" smooth="yes"/>
      <point x="582" y="246"/>
      <point x="539" y="1"/>
      <point x="514" y="1" type="qcurve"/>
      <point x="539" y="192"/>
      <point x="543" y="287" type="qcurve"/>
      <point x="541" y="388"/>
    </contour>
    <contour>
      <point x="381" y="-1" type="qcurve"/>
      <point x="299" y="4"/>
      <point x="246" y="81" type="qcurve"/>
      <point x="194" y="0"/>
      <point x="125" y="0" type="qcurve" smooth="yes"/>
      <point x="118" y="0" type="line"/>
      <point x="44" y="8"/>
      <point x="40" y="91" type="qcurve"/>
      <point x="40" y="218"/>
      <point x="155" y="384" type="qcurve"/>
      <point x="148" y="389"/>
      <point x="140" y="389" type="qcurve" smooth="yes"/>
      <point x="80" y="389"/>
      <point x="59" y="225" type="qcurve"/>
      <point x="40" y="225"/>
      <point x="40" y="244" type="qcurve" smooth="yes"/>
      <point x="40" y="316"/>
      <point x="91" y="421"/>
      <point x="138" y="421" type="qcurve" smooth="yes"/>
      <point x="183" y="421"/>
      <point x="189" y="381" type="qcurve"/>
      <point x="71" y="210"/>
      <point x="71" y="102" type="qcurve" smooth="yes"/>
      <point x="71" y="32"/>
      <point x="127" y="30" type="qcurve"/>
      <point x="193" y="35"/>
      <point x="250" y="133" type="qcurve"/>
      <point x="304" y="31"/>
      <point x="376" y="31" type="qcurve" smooth="yes"/>
      <point x="379" y="31" type="line" smooth="yes"/>
      <point x="456" y="32"/>
      <point x="456" y="202" type="qcurve"/>
      <point x="452" y="299"/>
      <point x="387" y="347" type="qcurve"/>
      <point x="476" y="347"/>
      <point x="488" y="211" type="qcurve"/>
      <point x="488" y="4"/>
    </contour>
  </outline>
</glyph>
<glyph name="uni1B26" format="2">
  <advance width="601"/>
  <unicode hex="1B26"/>
  <anchor x="419" y="0" name="Anchor-3"/>
  <anchor x="686" y="0" name="Anchor-1"/>
  <anchor x="314" y="490" name="Anchor-0"/>
  <outline>
    <contour>
      <point x="343" y="35" type="qcurve"/>
      <point x="378" y="48"/>
      <point x="380" y="79" type="qcurve" smooth="yes"/>
      <point x="380" y="136"/>
      <point x="300" y="174" type="qcurve"/>
      <point x="325" y="35"/>
    </contour>
    <contour>
      <point x="383" y="428" type="qcurve"/>
      <point x="555" y="422"/>
      <point x="561" y="312" type="qcurve" smooth="yes"/>
      <point x="561" y="246"/>
      <point x="518" y="1"/>
      <point x="493" y="1" type="qcurve"/>
      <point x="518" y="192"/>
      <point x="526" y="307" type="qcurve"/>
      <point x="526" y="385"/>
      <point x="367" y="396" type="qcurve"/>
      <point x="292" y="391"/>
      <point x="292" y="254" type="qcurve" smooth="yes"/>
      <point x="292" y="235"/>
      <point x="295" y="213" type="qcurve"/>
      <point x="414" y="156"/>
      <point x="414" y="79" type="qcurve" smooth="yes"/>
      <point x="414" y="11"/>
      <point x="330" y="-5" type="qcurve"/>
      <point x="300" y="-5"/>
      <point x="265" y="193" type="qcurve"/>
      <point x="242" y="195" type="line" smooth="yes"/>
      <point x="225" y="195"/>
      <point x="208" y="190" type="qcurve"/>
      <point x="182" y="127"/>
      <point x="149" y="-5" type="qcurve"/>
      <point x="106" y="4"/>
      <point x="102" y="36" type="qcurve"/>
      <point x="103" y="128"/>
      <point x="187" y="219" type="qcurve"/>
      <point x="201" y="285"/>
      <point x="202" y="323" type="qcurve" smooth="yes"/>
      <point x="202" y="387"/>
      <point x="154" y="389" type="qcurve" smooth="yes"/>
      <point x="119" y="388"/>
      <point x="66" y="303"/>
      <point x="66" y="234" type="qcurve" smooth="yes"/>
      <point x="66" y="213"/>
      <point x="72" y="195" type="qcurve"/>
      <point x="40" y="195"/>
      <point x="40" y="247" type="qcurve" smooth="yes"/>
      <point x="41" y="272" type="line"/>
      <point x="66" y="421"/>
      <point x="161" y="421" type="qcurve" smooth="yes"/>
      <point x="232" y="419"/>
      <point x="232" y="335" type="qcurve" smooth="yes"/>
      <point x="231" y="284"/>
      <point x="217" y="221" type="qcurve"/>
      <point x="232" y="225"/>
      <point x="246" y="225" type="qcurve" smooth="yes"/>
      <point x="262" y="224" type="line"/>
      <point x="258" y="246"/>
      <point x="258" y="273" type="qcurve" smooth="yes"/>
      <point x="258" y="428"/>
    </contour>
  </outline>
</glyph>
<glyph name="uni1B27" format="2">
  <advance width="590"/>
  <unicode hex="1B27"/>
  <anchor x="372" y="0" name="Anchor-3"/>
  <anchor x="686" y="0" name="Anchor-1"/>
  <anchor x="286" y="490" name="Anchor-0"/>
  <outline>
    <contour>
      <point x="261" y="-2" type="qcurve"/>
      <point x="79" y="6"/>
      <point x="79" y="163" type="qcurve" smooth="yes"/>
      <point x="79" y="269"/>
      <point x="146" y="381" type="qcurve"/>
      <point x="100" y="376"/>
      <point x="50" y="227" type="qcurve"/>
      <point x="40" y="227"/>
      <point x="40" y="248" type="qcurve" smooth="yes"/>
      <point x="41" y="265" type="line"/>
      <point x="77" y="418"/>
      <point x="155" y="418" type="qcurve" smooth="yes"/>
      <point x="179" y="418"/>
      <point x="188" y="389" type="qcurve"/>
      <point x="115" y="272"/>
      <point x="115" y="160" type="qcurve"/>
      <point x="120" y="33"/>
      <point x="267" y="30" type="qcurve"/>
      <point x="448" y="35"/>
      <point x="448" y="208" type="qcurve" smooth="yes"/>
      <point x="448" y="305"/>
      <point x="396" y="404" type="qcurve"/>
      <point x="418" y="421"/>
      <point x="453" y="421" type="qcurve" smooth="yes"/>
      <point x="546" y="417"/>
      <point x="550" y="285" type="qcurve" smooth="yes"/>
      <point x="550" y="219"/>
      <point x="507" y="1"/>
      <point x="482" y="1" type="qcurve"/>
      <point x="511" y="173"/>
      <point x="511" y="270" type="qcurve" smooth="yes"/>
      <point x="508" y="385"/>
      <point x="442" y="385" type="qcurve" smooth="yes"/>
      <point x="437" y="385" type="line"/>
      <point x="479" y="309"/>
      <point x="479" y="202" type="qcurve" smooth="yes"/>
      <point x="479" y="-2"/>
    </contour>
  </outline>
</glyph>
<glyph name="uni1B28" format="2">
  <advance width="532"/>
  <unicode hex="1B28"/>
  <anchor x="306" y="0" name="Anchor-3"/>
  <anchor x="686" y="0" name="Anchor-1"/>
  <anchor x="281" y="490" name="Anchor-0"/>
  <outline>
    <contour>
      <point x="462" y="259" type="line"/>
      <point x="462" y="285" type="line"/>
      <point x="458" y="381"/>
      <point x="440" y="381" type="qcurve" smooth="yes"/>
      <point x="431" y="381"/>
      <point x="397" y="314"/>
      <point x="397" y="289" type="qcurve" smooth="yes"/>
      <point x="397" y="259"/>
      <point x="453" y="259" type="qcurve" smooth="yes"/>
    </contour>
    <contour>
      <point x="455" y="109"/>
      <point x="461" y="238" type="qcurve"/>
      <point x="438" y="232"/>
      <point x="420" y="232" type="qcurve" smooth="yes"/>
      <point x="369" y="232"/>
      <point x="369" y="282" type="qcurve" smooth="yes"/>
      <point x="369" y="319"/>
      <point x="422" y="419"/>
      <point x="448" y="419" type="qcurve" smooth="yes"/>
      <point x="492" y="419"/>
      <point x="492" y="279" type="qcurve" smooth="yes"/>
      <point x="492" y="132"/>
      <point x="465" y="67" type="qcurve" smooth="yes"/>
      <point x="438" y="3"/>
      <point x="380" y="-1" type="qcurve"/>
      <point x="299" y="4"/>
      <point x="246" y="81" type="qcurve"/>
      <point x="194" y="0"/>
      <point x="125" y="0" type="qcurve" smooth="yes"/>
      <point x="118" y="0" type="line"/>
      <point x="44" y="8"/>
      <point x="40" y="91" type="qcurve"/>
      <point x="40" y="218"/>
      <point x="155" y="384" type="qcurve"/>
      <point x="148" y="389"/>
      <point x="140" y="389" type="qcurve" smooth="yes"/>
      <point x="80" y="389"/>
      <point x="59" y="225" type="qcurve"/>
      <point x="40" y="225"/>
      <point x="40" y="244" type="qcurve" smooth="yes"/>
      <point x="40" y="316"/>
      <point x="91" y="421"/>
      <point x="138" y="421" type="qcurve" smooth="yes"/>
      <point x="183" y="421"/>
      <point x="189" y="381" type="qcurve"/>
      <point x="71" y="210"/>
      <point x="71" y="102" type="qcurve" smooth="yes"/>
      <point x="71" y="32"/>
      <point x="127" y="30" type="qcurve"/>
      <point x="193" y="35"/>
      <point x="250" y="133" type="qcurve"/>
      <point x="304" y="31"/>
      <point x="379" y="31" type="qcurve" smooth="yes"/>
      <point x="411" y="33"/>
    </contour>
  </outline>
</glyph>
<glyph name="uni1B29" format="2">
  <advance width="708"/>
  <unicode hex="1B29"/>
  <anchor x="545" y="0" name="Anchor-3"/>
  <anchor x="686" y="0" name="Anchor-1"/>
  <anchor x="383" y="490" name="Anchor-0"/>
  <outline>
    <contour>
      <point x="600" y="1" type="qcurve"/>
      <point x="625" y="192"/>
      <point x="629" y="274" type="qcurve" smooth="yes"/>
      <point x="630" y="307" type="line" smooth="yes"/>
      <point x="630" y="380"/>
      <point x="576" y="388" type="qcurve"/>
      <point x="571" y="388" type="line" smooth="yes"/>
      <point x="540" y="388"/>
      <point x="531" y="297" type="qcurve" smooth="yes"/>
      <point x="525" y="216"/>
      <point x="488" y="1"/>
      <point x="463" y="1" type="qcurve"/>
      <point x="488" y="192"/>
      <point x="492" y="287" type="qcurve"/>
      <point x="490" y="385"/>
      <point x="440" y="385" type="qcurve" smooth="yes"/>
      <point x="434" y="385" type="line"/>
      <point x="370" y="376"/>
      <point x="356" y="221" type="qcurve"/>
      <point x="341" y="221" type="line"/>
      <point x="330" y="363"/>
      <point x="261" y="363" type="qcurve" smooth="yes"/>
      <point x="197" y="362"/>
      <point x="197" y="227" type="qcurve" smooth="yes"/>
      <point x="197" y="123"/>
      <point x="247" y="15" type="qcurve"/>
      <point x="220" y="3"/>
      <point x="177" y="3" type="qcurve" smooth="yes"/>
      <point x="86" y="6"/>
      <point x="81" y="119" type="qcurve" smooth="yes"/>
      <point x="81" y="200"/>
      <point x="115" y="303" type="qcurve"/>
      <point x="61" y="251"/>
      <point x="57" y="142" type="qcurve"/>
      <point x="40" y="162"/>
      <point x="40" y="192" type="qcurve" smooth="yes"/>
      <point x="50" y="301"/>
      <point x="127" y="342" type="qcurve"/>
      <point x="143" y="342"/>
      <point x="148" y="306" type="qcurve"/>
      <point x="111" y="194"/>
      <point x="111" y="118" type="qcurve"/>
      <point x="119" y="32"/>
      <point x="178" y="32" type="qcurve" smooth="yes"/>
      <point x="190" y="32"/>
      <point x="205" y="36" type="qcurve"/>
      <point x="164" y="131"/>
      <point x="164" y="230" type="qcurve" smooth="yes"/>
      <point x="164" y="371"/>
      <point x="246" y="391" type="qcurve"/>
      <point x="262" y="392" type="line" smooth="yes"/>
      <point x="323" y="392"/>
      <point x="348" y="341" type="qcurve"/>
      <point x="381" y="421"/>
      <point x="443" y="421" type="qcurve" smooth="yes"/>
      <point x="492" y="421"/>
      <point x="512" y="373" type="qcurve"/>
      <point x="528" y="421"/>
      <point x="567" y="421" type="qcurve" smooth="yes"/>
      <point x="668" y="414"/>
      <point x="668" y="312" type="qcurve" smooth="yes"/>
      <point x="668" y="246"/>
      <point x="625" y="1"/>
    </contour>
  </outline>
</glyph>
<glyph name="uni1B2A" format="2">
  <advance width="666"/>
  <unicode hex="1B2A"/>
  <anchor x="394" y="0" name="Anchor-3"/>
  <anchor x="686" y="0" name="Anchor-1"/>
  <anchor x="372" y="490" name="Anchor-0"/>
  <outline>
    <contour>
      <point x="433" y="25" type="qcurve" smooth="yes"/>
      <point x="443" y="26" type="line" smooth="yes"/>
      <point x="478" y="33"/>
      <point x="481" y="100" type="qcurve" smooth="yes"/>
      <point x="481" y="165"/>
      <point x="340" y="171" type="qcurve"/>
      <point x="346" y="110"/>
      <point x="400" y="25"/>
    </contour>
    <contour>
      <point x="426" y="-1" type="qcurve" smooth="yes"/>
      <point x="341" y="-1"/>
      <point x="311" y="164" type="qcurve"/>
      <point x="219" y="6"/>
      <point x="96" y="6" type="qcurve" smooth="yes"/>
      <point x="48" y="6"/>
      <point x="40" y="42" type="qcurve"/>
      <point x="40" y="80"/>
      <point x="70" y="96" type="qcurve"/>
      <point x="61" y="70"/>
      <point x="61" y="56" type="qcurve" smooth="yes"/>
      <point x="61" y="35"/>
      <point x="103" y="35" type="qcurve" smooth="yes"/>
      <point x="174" y="35"/>
      <point x="245" y="122" type="qcurve"/>
      <point x="258" y="162"/>
      <point x="258" y="197" type="qcurve" smooth="yes"/>
      <point x="258" y="303"/>
      <point x="156" y="310" type="qcurve" smooth="yes"/>
      <point x="103" y="310"/>
      <point x="74" y="295" type="qcurve"/>
      <point x="74" y="338"/>
      <point x="158" y="338" type="qcurve"/>
      <point x="281" y="328"/>
      <point x="281" y="207" type="qcurve" smooth="yes"/>
      <point x="281" y="179"/>
      <point x="273" y="149" type="qcurve"/>
      <point x="306" y="197" type="line"/>
      <point x="306" y="306" type="line" smooth="yes"/>
      <point x="307" y="365"/>
      <point x="369" y="421"/>
      <point x="462" y="421" type="qcurve"/>
      <point x="616" y="414"/>
      <point x="626" y="292" type="qcurve"/>
      <point x="626" y="226"/>
      <point x="583" y="1"/>
      <point x="558" y="1" type="qcurve"/>
      <point x="585" y="172"/>
      <point x="589" y="267" type="qcurve"/>
      <point x="589" y="383"/>
      <point x="453" y="391" type="qcurve"/>
      <point x="384" y="391"/>
      <point x="334" y="349"/>
      <point x="334" y="197" type="qcurve"/>
      <point x="509" y="191"/>
      <point x="509" y="104" type="qcurve" smooth="yes"/>
      <point x="509" y="95" type="line"/>
      <point x="499" y="-1"/>
    </contour>
  </outline>
</glyph>
<glyph name="uni1B2B" format="2">
  <advance width="594"/>
  <unicode hex="1B2B"/>
  <anchor x="389" y="0" name="Anchor-3"/>
  <anchor x="686" y="0" name="Anchor-1"/>
  <anchor x="299" y="490" name="Anchor-0"/>
  <outline>
    <contour>
      <point x="280" y="0" type="qcurve"/>
      <point x="131" y="3"/>
      <point x="131" y="121" type="qcurve"/>
      <point x="137" y="209"/>
      <point x="223" y="228" type="qcurve"/>
      <point x="123" y="240"/>
      <point x="123" y="338" type="qcurve"/>
      <point x="69" y="285"/>
      <point x="69" y="115" type="qcurve" smooth="yes"/>
      <point x="69" y="86" type="line"/>
      <point x="40" y="100"/>
      <point x="40" y="168" type="qcurve" smooth="yes"/>
      <point x="42" y="206" type="line"/>
      <point x="68" y="418"/>
      <point x="224" y="418" type="qcurve" smooth="yes"/>
      <point x="240" y="418" type="line" smooth="yes"/>
      <point x="252" y="418"/>
      <point x="264" y="393" type="qcurve"/>
      <point x="264" y="384" type="line"/>
      <point x="243" y="385" type="line" smooth="yes"/>
      <point x="163" y="385"/>
      <point x="153" y="339" type="qcurve"/>
      <point x="152" y="330" type="line"/>
      <point x="152" y="252"/>
      <point x="324" y="239" type="qcurve"/>
      <point x="324" y="223" type="line"/>
      <point x="193" y="223"/>
      <point x="167" y="138" type="qcurve"/>
      <point x="166" y="127" type="line"/>
      <point x="166" y="34"/>
      <point x="291" y="30" type="qcurve"/>
      <point x="452" y="37"/>
      <point x="452" y="208" type="qcurve" smooth="yes"/>
      <point x="452" y="305"/>
      <point x="400" y="404" type="qcurve"/>
      <point x="422" y="421"/>
      <point x="457" y="421" type="qcurve" smooth="yes"/>
      <point x="550" y="417"/>
      <point x="554" y="285" type="qcurve" smooth="yes"/>
      <point x="554" y="219"/>
      <point x="511" y="1"/>
      <point x="486" y="1" type="qcurve"/>
      <point x="515" y="173"/>
      <point x="515" y="270" type="qcurve" smooth="yes"/>
      <point x="512" y="385"/>
      <point x="446" y="385" type="qcurve" smooth="yes"/>
      <point x="441" y="385" type="line"/>
      <point x="483" y="309"/>
      <point x="483" y="202" type="qcurve" smooth="yes"/>
      <point x="483" y="2"/>
    </contour>
  </outline>
</glyph>
<glyph name="uni1B2C" format="2">
  <advance width="705"/>
  <unicode hex="1B2C"/>
  <anchor x="503" y="0" name="Anchor-3"/>
  <anchor x="686" y="0" name="Anchor-1"/>
  <anchor x="372" y="490" name="Anchor-0"/>
  <outline>
    <contour>
      <point x="441" y="0" type="qcurve"/>
      <point x="318" y="0"/>
      <point x="318" y="110" type="qcurve" smooth="yes"/>
      <point x="321" y="175"/>
      <point x="342" y="276" type="qcurve"/>
      <point x="254" y="0"/>
      <point x="122" y="0" type="qcurve" smooth="yes"/>
      <point x="118" y="0" type="line"/>
      <point x="44" y="8"/>
      <point x="40" y="91" type="qcurve"/>
      <point x="40" y="218"/>
      <point x="155" y="384" type="qcurve"/>
      <point x="148" y="389"/>
      <point x="140" y="389" type="qcurve" smooth="yes"/>
      <point x="80" y="389"/>
      <point x="59" y="225" type="qcurve"/>
      <point x="40" y="225"/>
      <point x="40" y="244" type="qcurve" smooth="yes"/>
      <point x="40" y="316"/>
      <point x="91" y="421"/>
      <point x="138" y="421" type="qcurve" smooth="yes"/>
      <point x="183" y="421"/>
      <point x="189" y="381" type="qcurve"/>
      <point x="71" y="210"/>
      <point x="71" y="102" type="qcurve" smooth="yes"/>
      <point x="71" y="32"/>
      <point x="127" y="30" type="qcurve"/>
      <point x="262" y="35"/>
      <point x="351" y="419" type="qcurve"/>
      <point x="379" y="416"/>
      <point x="379" y="385" type="qcurve" smooth="yes"/>
      <point x="351" y="112" type="line"/>
      <point x="351" y="33"/>
      <point x="442" y="33" type="qcurve"/>
      <point x="497" y="37"/>
      <point x="557" y="149"/>
      <point x="557" y="243" type="qcurve" smooth="yes"/>
      <point x="557" y="316"/>
      <point x="511" y="404" type="qcurve"/>
      <point x="533" y="421"/>
      <point x="568" y="421" type="qcurve" smooth="yes"/>
      <point x="661" y="417"/>
      <point x="665" y="285" type="qcurve" smooth="yes"/>
      <point x="665" y="219"/>
      <point x="622" y="1"/>
      <point x="597" y="1" type="qcurve"/>
      <point x="626" y="173"/>
      <point x="626" y="270" type="qcurve" smooth="yes"/>
      <point x="623" y="385"/>
      <point x="557" y="385" type="qcurve" smooth="yes"/>
      <point x="552" y="385" type="line"/>
      <point x="588" y="320"/>
      <point x="588" y="241" type="qcurve" smooth="yes"/>
      <point x="587" y="215" type="line"/>
      <point x="574" y="11"/>
    </contour>
  </outline>
</glyph>
<glyph name="uni1B2E" format="2">
  <advance width="794"/>
  <unicode hex="1B2E"/>
  <anchor x="524" y="0" name="Anchor-3"/>
  <anchor x="686" y="0" name="Anchor-1"/>
  <anchor x="402" y="490" name="Anchor-0"/>
  <outline>
    <contour>
      <point x="278" y="387" type="qcurve" smooth="yes"/>
      <point x="274" y="387" type="line" smooth="yes"/>
      <point x="165" y="387"/>
      <point x="149" y="153" type="qcurve"/>
      <point x="149" y="76"/>
      <point x="164" y="-3" type="qcurve"/>
      <point x="40" y="5"/>
      <point x="40" y="152" type="qcurve" smooth="yes"/>
      <point x="40" y="229"/>
      <point x="98" y="340"/>
      <point x="133" y="350" type="qcurve"/>
      <point x="75" y="254"/>
      <point x="75" y="165" type="qcurve" smooth="yes"/>
      <point x="75" y="58"/>
      <point x="129" y="43" type="qcurve"/>
      <point x="115" y="65"/>
      <point x="115" y="162" type="qcurve"/>
      <point x="135" y="421"/>
      <point x="284" y="421" type="qcurve" smooth="yes"/>
      <point x="292" y="421" type="line" smooth="yes"/>
      <point x="413" y="420"/>
      <point x="413" y="337" type="qcurve" smooth="yes"/>
      <point x="413" y="307"/>
      <point x="376" y="156"/>
      <point x="376" y="125" type="qcurve" smooth="yes"/>
      <point x="376" y="33"/>
      <point x="486" y="33" type="qcurve"/>
      <point x="651" y="45"/>
      <point x="652" y="208" type="qcurve" smooth="yes"/>
      <point x="652" y="305"/>
      <point x="600" y="404" type="qcurve"/>
      <point x="622" y="421"/>
      <point x="657" y="421" type="qcurve" smooth="yes"/>
      <point x="750" y="417"/>
      <point x="754" y="285" type="qcurve" smooth="yes"/>
      <point x="754" y="219"/>
      <point x="711" y="1"/>
      <point x="686" y="1" type="qcurve"/>
      <point x="715" y="173"/>
      <point x="715" y="270" type="qcurve" smooth="yes"/>
      <point x="712" y="385"/>
      <point x="646" y="385" type="qcurve" smooth="yes"/>
      <point x="641" y="385" type="line"/>
      <point x="683" y="309"/>
      <point x="683" y="202" type="qcurve" smooth="yes"/>
      <point x="681" y="8"/>
      <point x="472" y="0" type="qcurve"/>
      <point x="343" y="5"/>
      <point x="343" y="129" type="qcurve" smooth="yes"/>
      <point x="343" y="153"/>
      <point x="350" y="183" type="qcurve" smooth="yes"/>
      <point x="371" y="282"/>
      <point x="375" y="326" type="qcurve"/>
      <point x="375" y="330" type="line" smooth="yes"/>
      <point x="375" y="387"/>
    </contour>
  </outline>
</glyph>
<glyph name="uni1B2F" format="2">
  <advance width="621"/>
  <unicode hex="1B2F"/>
  <anchor x="368" y="0" name="Anchor-3"/>
  <anchor x="686" y="0" name="Anchor-1"/>
  <anchor x="332" y="490" name="Anchor-0"/>
  <outline>
    <contour>
      <point x="262" y="-2" type="qcurve"/>
      <point x="79" y="6"/>
      <point x="79" y="163" type="qcurve" smooth="yes"/>
      <point x="79" y="269"/>
      <point x="146" y="381" type="qcurve"/>
      <point x="100" y="376"/>
      <point x="50" y="227" type="qcurve"/>
      <point x="40" y="227"/>
      <point x="40" y="248" type="qcurve" smooth="yes"/>
      <point x="41" y="265" type="line"/>
      <point x="77" y="418"/>
      <point x="155" y="418" type="qcurve" smooth="yes"/>
      <point x="179" y="418"/>
      <point x="188" y="389" type="qcurve"/>
      <point x="115" y="272"/>
      <point x="115" y="160" type="qcurve"/>
      <point x="120" y="33"/>
      <point x="267" y="30" type="qcurve" smooth="yes"/>
      <point x="456" y="30"/>
      <point x="456" y="202" type="qcurve"/>
      <point x="452" y="299"/>
      <point x="387" y="347" type="qcurve"/>
      <point x="476" y="347"/>
      <point x="488" y="211" type="qcurve"/>
      <point x="488" y="-2"/>
    </contour>
    <contour>
      <point x="446" y="390" type="qcurve" smooth="yes"/>
      <point x="349" y="390"/>
      <point x="322" y="228" type="qcurve"/>
      <point x="306" y="228"/>
      <point x="306" y="267" type="qcurve"/>
      <point x="335" y="424"/>
      <point x="458" y="424" type="qcurve"/>
      <point x="579" y="420"/>
      <point x="581" y="296" type="qcurve" smooth="yes"/>
      <point x="581" y="246"/>
      <point x="538" y="1"/>
      <point x="513" y="1" type="qcurve"/>
      <point x="538" y="192"/>
      <point x="542" y="287" type="qcurve"/>
      <point x="540" y="388"/>
    </contour>
  </outline>
</glyph>
<glyph name="uni1B31" format="2">
  <advance width="590"/>
  <unicode hex="1B31"/>
  <anchor x="408" y="0" name="Anchor-3"/>
  <anchor x="686" y="0" name="Anchor-1"/>
  <anchor x="303" y="490" name="Anchor-0"/>
  <outline>
    <contour>
      <point x="261" y="-2" type="qcurve"/>
      <point x="79" y="6"/>
      <point x="79" y="163" type="qcurve" smooth="yes"/>
      <point x="79" y="269"/>
      <point x="146" y="381" type="qcurve"/>
      <point x="100" y="376"/>
      <point x="50" y="227" type="qcurve"/>
      <point x="40" y="227"/>
      <point x="40" y="248" type="qcurve" smooth="yes"/>
      <point x="41" y="265" type="line"/>
      <point x="77" y="418"/>
      <point x="155" y="418" type="qcurve" smooth="yes"/>
      <point x="179" y="418"/>
      <point x="188" y="389" type="qcurve"/>
      <point x="115" y="272"/>
      <point x="115" y="160" type="qcurve"/>
      <point x="120" y="33"/>
      <point x="267" y="30" type="qcurve"/>
      <point x="448" y="35"/>
      <point x="448" y="208" type="qcurve" smooth="yes"/>
      <point x="448" y="305"/>
      <point x="396" y="404" type="qcurve"/>
      <point x="418" y="421"/>
      <point x="453" y="421" type="qcurve" smooth="yes"/>
      <point x="546" y="417"/>
      <point x="550" y="285" type="qcurve" smooth="yes"/>
      <point x="550" y="219"/>
      <point x="507" y="1"/>
      <point x="482" y="1" type="qcurve"/>
      <point x="511" y="173"/>
      <point x="511" y="270" type="qcurve" smooth="yes"/>
      <point x="508" y="385"/>
      <point x="442" y="385" type="qcurve" smooth="yes"/>
      <point x="437" y="385" type="line"/>
      <point x="479" y="309"/>
      <point x="479" y="202" type="qcurve" smooth="yes"/>
      <point x="479" y="-2"/>
    </contour>
    <contour>
      <point x="518" y="-136" type="qcurve"/>
      <point x="506" y="-19"/>
      <point x="418" y="100" type="qcurve"/>
      <point x="389" y="133" type="line" smooth="yes"/>
      <point x="363" y="158"/>
      <point x="311" y="191" type="qcurve"/>
      <point x="321" y="206"/>
      <point x="341" y="206" type="qcurve" smooth="yes"/>
      <point x="365" y="206"/>
      <point x="406" y="167" type="qcurve"/>
      <point x="439" y="127" type="line" smooth="yes"/>
      <point x="475" y="79"/>
      <point x="524" y="-63"/>
      <point x="528" y="-100" type="qcurve" smooth="yes"/>
      <point x="529" y="-114" type="line" smooth="yes"/>
      <point x="529" y="-136"/>
    </contour>
  </outline>
</glyph>
<glyph name="uni1B32" format="2">
  <advance width="655"/>
  <unicode hex="1B32"/>
  <anchor x="443" y="0" name="Anchor-3"/>
  <anchor x="686" y="0" name="Anchor-1"/>
  <anchor x="393" y="490" name="Anchor-0"/>
  <outline>
    <contour>
      <point x="461" y="404" type="qcurve"/>
      <point x="483" y="421"/>
      <point x="518" y="421" type="qcurve" smooth="yes"/>
      <point x="611" y="417"/>
      <point x="615" y="285" type="qcurve" smooth="yes"/>
      <point x="615" y="219"/>
      <point x="572" y="1"/>
      <point x="547" y="1" type="qcurve"/>
      <point x="576" y="173"/>
      <point x="576" y="270" type="qcurve" smooth="yes"/>
      <point x="573" y="385"/>
      <point x="507" y="385" type="qcurve" smooth="yes"/>
      <point x="502" y="385" type="line"/>
      <point x="544" y="309"/>
      <point x="544" y="202" type="qcurve" smooth="yes"/>
      <point x="544" y="6"/>
      <point x="432" y="1" type="qcurve"/>
      <point x="427" y="1" type="line" smooth="yes"/>
      <point x="382" y="1"/>
      <point x="349" y="48" type="qcurve" smooth="yes"/>
      <point x="313" y="98"/>
      <point x="269" y="153"/>
      <point x="246" y="167" type="qcurve"/>
      <point x="180" y="57"/>
      <point x="114" y="-1" type="qcurve"/>
      <point x="106" y="-1" type="line"/>
      <point x="106" y="60" type="line" smooth="yes"/>
      <point x="106" y="100"/>
      <point x="223" y="196" type="qcurve"/>
      <point x="256" y="277"/>
      <point x="256" y="327" type="qcurve" smooth="yes"/>
      <point x="255" y="342" type="line" smooth="yes"/>
      <point x="249" y="394"/>
      <point x="199" y="394" type="qcurve" smooth="yes"/>
      <point x="93" y="394"/>
      <point x="59" y="203" type="qcurve"/>
      <point x="40" y="214"/>
      <point x="40" y="244" type="qcurve" smooth="yes"/>
      <point x="41" y="257" type="line"/>
      <point x="75" y="421"/>
      <point x="196" y="421" type="qcurve" smooth="yes"/>
      <point x="289" y="421"/>
      <point x="289" y="334" type="qcurve" smooth="yes"/>
      <point x="289" y="293"/>
      <point x="254" y="192" type="qcurve"/>
      <point x="298" y="182"/>
      <point x="366" y="73" type="qcurve"/>
      <point x="397" y="31"/>
      <point x="433" y="31" type="qcurve" smooth="yes"/>
      <point x="469" y="31"/>
      <point x="492" y="74" type="qcurve" smooth="yes"/>
      <point x="514" y="119"/>
      <point x="514" y="203" type="qcurve" smooth="yes"/>
      <point x="513" y="305"/>
    </contour>
  </outline>
</glyph>
<glyph name="uni1B33" format="2">
  <advance width="687"/>
  <unicode hex="1B33"/>
  <anchor x="483" y="0" name="Anchor-3"/>
  <anchor x="686" y="0" name="Anchor-1"/>
  <anchor x="438" y="490" name="Anchor-0"/>
  <outline>
    <contour>
      <point x="161" y="-1" type="qcurve"/>
      <point x="63" y="5"/>
      <point x="63" y="128" type="qcurve"/>
      <point x="72" y="274"/>
      <point x="146" y="381" type="qcurve"/>
      <point x="100" y="376"/>
      <point x="50" y="227" type="qcurve"/>
      <point x="40" y="227"/>
      <point x="40" y="248" type="qcurve" smooth="yes"/>
      <point x="41" y="265" type="line"/>
      <point x="77" y="418"/>
      <point x="155" y="418" type="qcurve" smooth="yes"/>
      <point x="179" y="418"/>
      <point x="188" y="389" type="qcurve"/>
      <point x="95" y="252"/>
      <point x="95" y="128" type="qcurve" smooth="yes"/>
      <point x="95" y="33"/>
      <point x="167" y="30" type="qcurve" smooth="yes"/>
      <point x="248" y="30"/>
      <point x="256" y="117" type="qcurve" smooth="yes"/>
      <point x="264" y="209"/>
      <point x="276" y="421"/>
      <point x="367" y="421" type="qcurve" smooth="yes"/>
      <point x="454" y="421"/>
      <point x="490" y="370" type="qcurve"/>
      <point x="506" y="421"/>
      <point x="546" y="421" type="qcurve" smooth="yes"/>
      <point x="647" y="414"/>
      <point x="647" y="312" type="qcurve" smooth="yes"/>
      <point x="647" y="246"/>
      <point x="604" y="1"/>
      <point x="579" y="1" type="qcurve"/>
      <point x="604" y="192"/>
      <point x="608" y="274" type="qcurve" smooth="yes"/>
      <point x="609" y="307" type="line" smooth="yes"/>
      <point x="609" y="380"/>
      <point x="555" y="388" type="qcurve"/>
      <point x="550" y="388" type="line" smooth="yes"/>
      <point x="517" y="388"/>
      <point x="509" y="287" type="qcurve"/>
      <point x="507" y="211"/>
      <point x="496" y="31"/>
      <point x="481" y="1"/>
      <point x="469" y="1" type="qcurve"/>
      <point x="474" y="138"/>
      <point x="474" y="242" type="qcurve" smooth="yes"/>
      <point x="473" y="333"/>
      <point x="461" y="352" type="qcurve" smooth="yes"/>
      <point x="438" y="384"/>
      <point x="374" y="388" type="qcurve"/>
      <point x="368" y="388" type="line" smooth="yes"/>
      <point x="311" y="388"/>
      <point x="304" y="314" type="qcurve" smooth="yes"/>
      <point x="289" y="117" type="line" smooth="yes"/>
      <point x="280" y="-1"/>
    </contour>
  </outline>
</glyph>
<glyph name="uni1B34" format="2">
  <advance width="0"/>
  <unicode hex="1B34"/>
  <anchor x="-341" y="530" name="_Anchor-0"/>
  <outline>
    <contour>
      <point x="-292" y="795" type="qcurve" smooth="yes"/>
      <point x="-264" y="795" type="line" smooth="yes"/>
      <point x="-183" y="795"/>
      <point x="-172" y="696" type="qcurve"/>
      <point x="-172" y="615"/>
      <point x="-253" y="501" type="qcurve"/>
      <point x="-263" y="509" type="line"/>
      <point x="-204" y="625"/>
      <point x="-204" y="696" type="qcurve"/>
      <point x="-215" y="774"/>
      <point x="-306" y="774" type="qcurve"/>
      <point x="-306" y="781" type="line" smooth="yes"/>
      <point x="-304" y="795"/>
    </contour>
    <contour>
      <point x="-414" y="696" type="line"/>
      <point x="-272" y="664"/>
      <point x="-281" y="506" type="qcurve"/>
      <point x="-297" y="504" type="line"/>
      <point x="-309" y="553"/>
      <point x="-378" y="666"/>
      <point x="-421" y="682" type="qcurve"/>
    </contour>
  </outline>
</glyph>
<glyph name="uni1B35" format="2">
  <advance width="441"/>
  <unicode hex="1B35"/>
  <outline>
    <contour>
      <point x="232" y="2" type="qcurve" smooth="yes"/>
      <point x="184" y="2"/>
      <point x="140" y="49" type="qcurve"/>
      <point x="175" y="41"/>
      <point x="202" y="41" type="qcurve" smooth="yes"/>
      <point x="292" y="41"/>
      <point x="387" y="144"/>
      <point x="387" y="224" type="qcurve" smooth="yes"/>
      <point x="387" y="385"/>
      <point x="233" y="385" type="qcurve" smooth="yes"/>
      <point x="229" y="385" type="line" smooth="yes"/>
      <point x="136" y="385"/>
      <point x="20" y="300" type="qcurve"/>
      <point x="24" y="327"/>
      <point x="141" y="420"/>
      <point x="245" y="420" type="qcurve"/>
      <point x="421" y="412"/>
      <point x="421" y="233" type="qcurve" smooth="yes"/>
      <point x="421" y="125"/>
      <point x="295" y="2"/>
    </contour>
  </outline>
</glyph>
<glyph name="uni1B36" format="2">
  <advance width="0"/>
  <unicode hex="1B36"/>
  <anchor x="-360" y="512" name="_Anchor-0"/>
  <outline>
    <contour>
      <point x="-290" y="496" type="qcurve" smooth="yes"/>
      <point x="-296" y="496" type="line"/>
      <point x="-201" y="579"/>
      <point x="-201" y="696" type="qcurve" smooth="yes"/>
      <point x="-201" y="832"/>
      <point x="-348" y="838" type="qcurve"/>
      <point x="-359" y="838" type="line" smooth="yes"/>
      <point x="-426" y="838"/>
      <point x="-502" y="756"/>
      <point x="-502" y="690" type="qcurve" smooth="yes"/>
      <point x="-502" y="640"/>
      <point x="-447" y="543"/>
      <point x="-390" y="522" type="qcurve"/>
      <point x="-400" y="500" type="line"/>
      <point x="-462" y="522"/>
      <point x="-577" y="600"/>
      <point x="-577" y="630" type="qcurve" smooth="yes"/>
      <point x="-577" y="642"/>
      <point x="-565" y="652" type="qcurve"/>
      <point x="-557" y="631"/>
      <point x="-512" y="589" type="qcurve"/>
      <point x="-502" y="585" type="line"/>
      <point x="-534" y="635"/>
      <point x="-536" y="694" type="qcurve" smooth="yes"/>
      <point x="-536" y="702" type="line" smooth="yes"/>
      <point x="-536" y="766"/>
      <point x="-446" y="871"/>
      <point x="-354" y="871" type="qcurve" smooth="yes"/>
      <point x="-337" y="871" type="line"/>
      <point x="-251" y="867"/>
      <point x="-165" y="772"/>
      <point x="-165" y="701" type="qcurve" smooth="yes"/>
      <point x="-165" y="631"/>
      <point x="-250" y="496"/>
    </contour>
  </outline>
</glyph>
<glyph name="uni1B37" format="2">
  <advance width="0"/>
  <unicode hex="1B37"/>
  <anchor x="-360" y="512" name="_Anchor-0"/>
  <outline>
    <contour>
      <point x="-254" y="526" type="qcurve"/>
      <point x="-269" y="527" type="line"/>
      <point x="-275" y="609"/>
      <point x="-371" y="706" type="qcurve" smooth="yes"/>
      <point x="-397" y="731"/>
      <point x="-444" y="754" type="qcurve"/>
      <point x="-434" y="779"/>
      <point x="-414" y="779" type="qcurve" smooth="yes"/>
      <point x="-390" y="779"/>
      <point x="-349" y="740" type="qcurve"/>
      <point x="-270" y="653"/>
    </contour>
    <contour>
      <point x="-311" y="491" type="line" smooth="yes"/>
      <point x="-321" y="491"/>
      <point x="-326" y="498" type="qcurve"/>
      <point x="-201" y="579"/>
      <point x="-201" y="706" type="qcurve" smooth="yes"/>
      <point x="-201" y="767"/>
      <point x="-274" y="841"/>
      <point x="-348" y="844" type="qcurve" smooth="yes"/>
      <point x="-359" y="844" type="line" smooth="yes"/>
      <point x="-426" y="844"/>
      <point x="-502" y="762"/>
      <point x="-502" y="700" type="qcurve" smooth="yes"/>
      <point x="-502" y="640"/>
      <point x="-447" y="543"/>
      <point x="-390" y="522" type="qcurve"/>
      <point x="-400" y="500" type="line"/>
      <point x="-462" y="522"/>
      <point x="-577" y="600"/>
      <point x="-577" y="630" type="qcurve" smooth="yes"/>
      <point x="-577" y="642"/>
      <point x="-565" y="652" type="qcurve"/>
      <point x="-557" y="631"/>
      <point x="-512" y="589" type="qcurve"/>
      <point x="-502" y="585" type="line"/>
      <point x="-538" y="635"/>
      <point x="-540" y="704" type="qcurve" smooth="yes"/>
      <point x="-540" y="712" type="line" smooth="yes"/>
      <point x="-540" y="776"/>
      <point x="-446" y="881"/>
      <point x="-354" y="881" type="qcurve" smooth="yes"/>
      <point x="-337" y="881" type="line"/>
      <point x="-251" y="877"/>
      <point x="-160" y="782"/>
      <point x="-160" y="711" type="qcurve" smooth="yes"/>
      <point x="-160" y="597"/>
      <point x="-253" y="523" type="qcurve" smooth="yes"/>
      <point x="-292" y="492"/>
      <point x="-303" y="492" type="qcurve" smooth="yes"/>
    </contour>
  </outline>
</glyph>
<glyph name="uni1B38" format="2">
  <advance width="0"/>
  <unicode hex="1B38"/>
  <anchor x="-59" y="0" name="_Anchor-4"/>
  <outline>
    <contour>
      <point x="-289" y="-535" type="qcurve"/>
      <point x="-358" y="-531"/>
      <point x="-359" y="-496" type="qcurve" smooth="yes"/>
      <point x="-359" y="-494" type="line" smooth="yes"/>
      <point x="-359" y="-449"/>
      <point x="-73" y="48"/>
      <point x="-64" y="113" type="qcurve"/>
      <point x="-48" y="113" type="line"/>
      <point x="-89" y="-254"/>
      <point x="-196" y="-522"/>
    </contour>
    <contour>
      <point x="-306" y="-505" type="qcurve" smooth="yes"/>
      <point x="-233" y="-504"/>
      <point x="-136" y="-259"/>
      <point x="-98" y="-50" type="qcurve"/>
      <point x="-319" y="-481" type="line" smooth="yes"/>
      <point x="-322" y="-488"/>
      <point x="-322" y="-493" type="qcurve" smooth="yes"/>
      <point x="-322" y="-505"/>
    </contour>
  </outline>
</glyph>
<glyph name="uni1B39" format="2">
  <advance width="0"/>
  <unicode hex="1B39"/>
  <anchor x="-59" y="0" name="_Anchor-4"/>
  <outline>
    <contour>
      <point x="-340" y="-559" type="qcurve" smooth="yes"/>
      <point x="-412" y="-559"/>
      <point x="-412" y="-496" type="qcurve" smooth="yes"/>
      <point x="-412" y="-482"/>
      <point x="-397" y="-470" type="qcurve"/>
      <point x="-397" y="-473" type="line" smooth="yes"/>
      <point x="-397" y="-525"/>
      <point x="-356" y="-525" type="qcurve" smooth="yes"/>
      <point x="-250" y="-525"/>
      <point x="-62" y="-388"/>
      <point x="-62" y="-351" type="qcurve" smooth="yes"/>
      <point x="-62" y="-330"/>
      <point x="-348" y="-187"/>
      <point x="-348" y="-131" type="qcurve" smooth="yes"/>
      <point x="-348" y="-98"/>
      <point x="-244" y="-16"/>
      <point x="-221" y="-16" type="qcurve" smooth="yes"/>
      <point x="-215" y="-17" type="line"/>
      <point x="-266" y="-66" type="line"/>
      <point x="-316" y="-122"/>
      <point x="-316" y="-140" type="qcurve" smooth="yes"/>
      <point x="-316" y="-157"/>
      <point x="-81" y="-282"/>
      <point x="-37" y="-322"/>
      <point x="-37" y="-351" type="qcurve" smooth="yes"/>
      <point x="-37" y="-423"/>
      <point x="-273" y="-559"/>
    </contour>
  </outline>
</glyph>
<glyph name="uni1B3A" format="2">
  <advance width="0"/>
  <unicode hex="1B3A"/>
  <anchor x="-59" y="0" name="_Anchor-4"/>
  <outline>
    <contour>
      <point x="-290" y="-668" type="qcurve"/>
      <point x="-303" y="-541"/>
      <point x="-398" y="-413" type="qcurve"/>
      <point x="-430" y="-377" type="line" smooth="yes"/>
      <point x="-458" y="-350"/>
      <point x="-514" y="-314" type="qcurve"/>
      <point x="-503" y="-298"/>
      <point x="-482" y="-298" type="qcurve" smooth="yes"/>
      <point x="-456" y="-298"/>
      <point x="-411" y="-340" type="qcurve"/>
      <point x="-376" y="-383" type="line" smooth="yes"/>
      <point x="-337" y="-435"/>
      <point x="-284" y="-589"/>
      <point x="-279" y="-629" type="qcurve" smooth="yes"/>
      <point x="-278" y="-644" type="line" smooth="yes"/>
      <point x="-278" y="-668"/>
    </contour>
    <contour>
      <point x="-252" y="-678" type="qcurve" smooth="yes"/>
      <point x="-398" y="-678"/>
      <point x="-595" y="-537"/>
      <point x="-598" y="-418" type="qcurve" smooth="yes"/>
      <point x="-598" y="-405" type="line" smooth="yes"/>
      <point x="-598" y="-310"/>
      <point x="-500" y="-140"/>
      <point x="-448" y="-131" type="qcurve"/>
      <point x="-550" y="-235"/>
      <point x="-563" y="-366" type="qcurve"/>
      <point x="-564" y="-388" type="line"/>
      <point x="-564" y="-600"/>
      <point x="-289" y="-638" type="qcurve"/>
      <point x="-242" y="-640" type="line"/>
      <point x="-107" y="-640"/>
      <point x="53" y="-485"/>
      <point x="53" y="-315" type="qcurve" smooth="yes"/>
      <point x="51" y="-150"/>
      <point x="12" y="-30" type="qcurve"/>
      <point x="20" y="-30" type="line"/>
      <point x="63" y="-47"/>
      <point x="86" y="-306" type="qcurve"/>
      <point x="86" y="-509"/>
      <point x="-101" y="-678"/>
    </contour>
  </outline>
</glyph>
<glyph name="uni1B3B" format="2">
  <advance width="427"/>
  <unicode hex="1B3B"/>
  <outline>
    <contour>
      <point x="215" y="2" type="qcurve" smooth="yes"/>
      <point x="167" y="2"/>
      <point x="123" y="49" type="qcurve"/>
      <point x="158" y="41"/>
      <point x="185" y="41" type="qcurve" smooth="yes"/>
      <point x="275" y="41"/>
      <point x="370" y="144"/>
      <point x="370" y="224" type="qcurve" smooth="yes"/>
      <point x="370" y="385"/>
      <point x="216" y="385" type="qcurve" smooth="yes"/>
      <point x="212" y="385" type="line" smooth="yes"/>
      <point x="119" y="385"/>
      <point x="3" y="300" type="qcurve"/>
      <point x="7" y="327"/>
      <point x="124" y="420"/>
      <point x="228" y="420" type="qcurve"/>
      <point x="404" y="412"/>
      <point x="404" y="233" type="qcurve" smooth="yes"/>
      <point x="404" y="125"/>
      <point x="278" y="2"/>
    </contour>
    <contour>
      <point x="-290" y="-668" type="qcurve"/>
      <point x="-303" y="-541"/>
      <point x="-398" y="-413" type="qcurve"/>
      <point x="-430" y="-377" type="line" smooth="yes"/>
      <point x="-458" y="-350"/>
      <point x="-514" y="-314" type="qcurve"/>
      <point x="-503" y="-298"/>
      <point x="-482" y="-298" type="qcurve" smooth="yes"/>
      <point x="-456" y="-298"/>
      <point x="-411" y="-340" type="qcurve"/>
      <point x="-376" y="-383" type="line" smooth="yes"/>
      <point x="-337" y="-435"/>
      <point x="-284" y="-589"/>
      <point x="-279" y="-629" type="qcurve" smooth="yes"/>
      <point x="-278" y="-644" type="line" smooth="yes"/>
      <point x="-278" y="-668"/>
    </contour>
    <contour>
      <point x="-252" y="-678" type="qcurve" smooth="yes"/>
      <point x="-398" y="-678"/>
      <point x="-595" y="-537"/>
      <point x="-598" y="-418" type="qcurve" smooth="yes"/>
      <point x="-598" y="-405" type="line" smooth="yes"/>
      <point x="-598" y="-310"/>
      <point x="-500" y="-140"/>
      <point x="-448" y="-131" type="qcurve"/>
      <point x="-550" y="-235"/>
      <point x="-563" y="-366" type="qcurve"/>
      <point x="-564" y="-388" type="line"/>
      <point x="-564" y="-600"/>
      <point x="-289" y="-638" type="qcurve"/>
      <point x="-242" y="-640" type="line"/>
      <point x="-107" y="-640"/>
      <point x="53" y="-485"/>
      <point x="53" y="-315" type="qcurve" smooth="yes"/>
      <point x="51" y="-150"/>
      <point x="12" y="-30" type="qcurve"/>
      <point x="20" y="-30" type="line"/>
      <point x="63" y="-47"/>
      <point x="86" y="-306" type="qcurve"/>
      <point x="86" y="-509"/>
      <point x="-101" y="-678"/>
    </contour>
  </outline>
</glyph>
<glyph name="uni1B3D" format="2">
  <advance width="427"/>
  <unicode hex="1B3D"/>
  <outline>
    <contour>
      <point x="215" y="2" type="qcurve" smooth="yes"/>
      <point x="167" y="2"/>
      <point x="123" y="49" type="qcurve"/>
      <point x="158" y="41"/>
      <point x="185" y="41" type="qcurve" smooth="yes"/>
      <point x="275" y="41"/>
      <point x="370" y="144"/>
      <point x="370" y="224" type="qcurve" smooth="yes"/>
      <point x="370" y="385"/>
      <point x="216" y="385" type="qcurve" smooth="yes"/>
      <point x="212" y="385" type="line" smooth="yes"/>
      <point x="119" y="385"/>
      <point x="3" y="300" type="qcurve"/>
      <point x="7" y="327"/>
      <point x="124" y="420"/>
      <point x="228" y="420" type="qcurve"/>
      <point x="404" y="412"/>
      <point x="404" y="233" type="qcurve" smooth="yes"/>
      <point x="404" y="125"/>
      <point x="278" y="2"/>
    </contour>
    <contour>
      <point x="23" y="751" type="line"/>
      <point x="73" y="758" type="line"/>
      <point x="-16" y="839"/>
      <point x="-180" y="839" type="qcurve"/>
      <point x="-210" y="838" type="line"/>
      <point x="-105" y="751"/>
      <point x="16" y="751" type="qcurve" smooth="yes"/>
    </contour>
    <contour>
      <point x="-412" y="591" type="qcurve" smooth="yes"/>
      <point x="-426" y="593" type="line"/>
      <point x="-487" y="612"/>
      <point x="-493" y="701" type="qcurve"/>
      <point x="-489" y="878"/>
      <point x="-175" y="878" type="qcurve" smooth="yes"/>
      <point x="2" y="878"/>
      <point x="108" y="779" type="qcurve"/>
      <point x="108" y="758" type="line" smooth="yes"/>
      <point x="108" y="731"/>
      <point x="23" y="722" type="qcurve"/>
      <point x="-181" y="725"/>
      <point x="-246" y="838" type="qcurve"/>
      <point x="-458" y="810"/>
      <point x="-458" y="701" type="qcurve" smooth="yes"/>
      <point x="-458" y="628"/>
      <point x="-394" y="595" type="qcurve"/>
      <point x="-402" y="591"/>
    </contour>
    <contour>
      <point x="-229" y="-425" type="qcurve"/>
      <point x="-359" y="-417"/>
      <point x="-359" y="-310" type="qcurve"/>
      <point x="-358" y="-296" type="line"/>
      <point x="-340" y="-182"/>
      <point x="-338" y="-155" type="qcurve"/>
      <point x="-341" y="-115"/>
      <point x="-405" y="-115" type="qcurve" smooth="yes"/>
      <point x="-544" y="-115"/>
      <point x="-544" y="-280" type="qcurve"/>
      <point x="-542" y="-320" type="line" smooth="yes"/>
      <point x="-542" y="-372"/>
      <point x="-519" y="-401" type="qcurve"/>
      <point x="-536" y="-420"/>
      <point x="-567" y="-420" type="qcurve" smooth="yes"/>
      <point x="-643" y="-419"/>
      <point x="-643" y="-274" type="qcurve" smooth="yes"/>
      <point x="-643" y="-214"/>
      <point x="-600" y="-128"/>
      <point x="-567" y="-128" type="qcurve"/>
      <point x="-609" y="-193"/>
      <point x="-609" y="-285" type="qcurve" smooth="yes"/>
      <point x="-609" y="-391"/>
      <point x="-566" y="-391" type="qcurve" smooth="yes"/>
      <point x="-561" y="-391" type="line"/>
      <point x="-580" y="-355"/>
      <point x="-580" y="-296" type="qcurve" smooth="yes"/>
      <point x="-580" y="-85"/>
      <point x="-430" y="-85" type="qcurve" smooth="yes"/>
      <point x="-392" y="-85" type="line"/>
      <point x="-306" y="-97"/>
      <point x="-306" y="-167" type="qcurve" smooth="yes"/>
      <point x="-307" y="-189"/>
      <point x="-325" y="-269"/>
      <point x="-325" y="-300" type="qcurve" smooth="yes"/>
      <point x="-325" y="-392"/>
      <point x="-215" y="-392" type="qcurve"/>
      <point x="-50" y="-380"/>
      <point x="-50" y="-202" type="qcurve" smooth="yes"/>
      <point x="-50" y="-105"/>
      <point x="-71" y="-58" type="qcurve"/>
      <point x="-43" y="-63"/>
      <point x="-19" y="-124"/>
      <point x="-19" y="-208" type="qcurve" smooth="yes"/>
      <point x="-19" y="-417"/>
    </contour>
  </outline>
</glyph>
<glyph name="uni1B3E" format="2">
  <advance width="411"/>
  <unicode hex="1B3E"/>
  <outline>
    <contour>
      <point x="255" y="-370" type="line"/>
      <point x="234" y="-370"/>
      <point x="191" y="-301"/>
      <point x="191" y="-240" type="qcurve" smooth="yes"/>
      <point x="192" y="-206" type="line"/>
      <point x="199" y="-121"/>
      <point x="268" y="55" type="qcurve"/>
      <point x="339" y="211"/>
      <point x="339" y="289" type="qcurve"/>
      <point x="338" y="308" type="line"/>
      <point x="326" y="389"/>
      <point x="255" y="389" type="qcurve" smooth="yes"/>
      <point x="156" y="389"/>
      <point x="146" y="260" type="qcurve"/>
      <point x="148" y="196"/>
      <point x="163" y="176" type="qcurve"/>
      <point x="156" y="165" type="line"/>
      <point x="40" y="182"/>
      <point x="40" y="304" type="qcurve"/>
      <point x="46" y="363"/>
      <point x="88" y="367" type="qcurve"/>
      <point x="72" y="350"/>
      <point x="72" y="297" type="qcurve" smooth="yes"/>
      <point x="72" y="223"/>
      <point x="134" y="198" type="qcurve"/>
      <point x="120" y="216"/>
      <point x="118" y="261" type="qcurve" smooth="yes"/>
      <point x="122" y="417"/>
      <point x="250" y="421" type="qcurve" smooth="yes"/>
      <point x="312" y="421"/>
      <point x="371" y="345"/>
      <point x="371" y="287" type="qcurve" smooth="yes"/>
      <point x="371" y="207"/>
      <point x="308" y="50" type="qcurve" smooth="yes"/>
      <point x="235" y="-123"/>
      <point x="224" y="-202" type="qcurve"/>
      <point x="222" y="-230" type="line"/>
      <point x="222" y="-313"/>
      <point x="263" y="-368" type="qcurve"/>
    </contour>
  </outline>
</glyph>
<glyph name="uni1B3F" format="2">
  <advance width="377"/>
  <unicode hex="1B3F"/>
  <outline>
    <contour>
      <point x="231" y="-370" type="line"/>
      <point x="210" y="-370"/>
      <point x="167" y="-301"/>
      <point x="167" y="-240" type="qcurve" smooth="yes"/>
      <point x="168" y="-206" type="line"/>
      <point x="175" y="-121"/>
      <point x="244" y="55" type="qcurve"/>
      <point x="315" y="211"/>
      <point x="315" y="289" type="qcurve"/>
      <point x="314" y="308" type="line"/>
      <point x="302" y="389"/>
      <point x="231" y="389" type="qcurve" smooth="yes"/>
      <point x="132" y="389"/>
      <point x="122" y="260" type="qcurve"/>
      <point x="124" y="196"/>
      <point x="139" y="176" type="qcurve"/>
      <point x="132" y="165" type="line"/>
      <point x="16" y="182"/>
      <point x="16" y="304" type="qcurve"/>
      <point x="22" y="363"/>
      <point x="64" y="367" type="qcurve"/>
      <point x="48" y="350"/>
      <point x="48" y="297" type="qcurve" smooth="yes"/>
      <point x="48" y="223"/>
      <point x="110" y="198" type="qcurve"/>
      <point x="96" y="216"/>
      <point x="94" y="261" type="qcurve" smooth="yes"/>
      <point x="98" y="417"/>
      <point x="226" y="421" type="qcurve" smooth="yes"/>
      <point x="288" y="421"/>
      <point x="347" y="345"/>
      <point x="347" y="287" type="qcurve" smooth="yes"/>
      <point x="347" y="207"/>
      <point x="284" y="50" type="qcurve" smooth="yes"/>
      <point x="211" y="-123"/>
      <point x="200" y="-202" type="qcurve"/>
      <point x="198" y="-230" type="line"/>
      <point x="198" y="-313"/>
      <point x="239" y="-368" type="qcurve"/>
    </contour>
    <contour>
      <point x="273" y="678" type="qcurve" smooth="yes"/>
      <point x="420" y="678"/>
      <point x="424" y="530" type="qcurve" smooth="yes"/>
      <point x="424" y="419"/>
      <point x="336" y="328" type="qcurve"/>
      <point x="330" y="341" type="line"/>
      <point x="390" y="423"/>
      <point x="390" y="523" type="qcurve" smooth="yes"/>
      <point x="390" y="651"/>
      <point x="249" y="651" type="qcurve" smooth="yes"/>
      <point x="235" y="651" type="line" smooth="yes"/>
      <point x="207" y="651"/>
      <point x="181" y="638" type="qcurve"/>
      <point x="174" y="651" type="line"/>
      <point x="210" y="678"/>
    </contour>
  </outline>
</glyph>
<glyph name="uni1B40" format="2">
  <advance width="1332"/>
  <unicode hex="1B40"/>
  <outline>
    <contour>
      <point x="828" y="419" type="qcurve" smooth="yes"/>
      <point x="828" y="395"/>
      <point x="804" y="395" type="qcurve" smooth="yes"/>
      <point x="779" y="395"/>
      <point x="779" y="419" type="qcurve" smooth="yes"/>
      <point x="779" y="443"/>
      <point x="804" y="443" type="qcurve" smooth="yes"/>
      <point x="828" y="443"/>
    </contour>
    <contour>
      <point x="755" y="467" type="qcurve" smooth="yes"/>
      <point x="755" y="443"/>
      <point x="732" y="443" type="qcurve" smooth="yes"/>
      <point x="706" y="443"/>
      <point x="706" y="467" type="qcurve" smooth="yes"/>
      <point x="706" y="492"/>
      <point x="732" y="492" type="qcurve" smooth="yes"/>
      <point x="755" y="492"/>
    </contour>
    <contour>
      <point x="876" y="347" type="qcurve" smooth="yes"/>
      <point x="876" y="322"/>
      <point x="851" y="322" type="qcurve" smooth="yes"/>
      <point x="827" y="322"/>
      <point x="827" y="347" type="qcurve" smooth="yes"/>
      <point x="827" y="371"/>
      <point x="852" y="371" type="qcurve" smooth="yes"/>
      <point x="876" y="371"/>
    </contour>
    <contour>
      <point x="893" y="262" type="qcurve" smooth="yes"/>
      <point x="893" y="237"/>
      <point x="870" y="237" type="qcurve" smooth="yes"/>
      <point x="845" y="237"/>
      <point x="845" y="262" type="qcurve" smooth="yes"/>
      <point x="845" y="286"/>
      <point x="870" y="286" type="qcurve" smooth="yes"/>
      <point x="893" y="286"/>
    </contour>
    <contour>
      <point x="670" y="485" type="qcurve" smooth="yes"/>
      <point x="670" y="460"/>
      <point x="646" y="460" type="qcurve" smooth="yes"/>
      <point x="621" y="460"/>
      <point x="621" y="485" type="qcurve" smooth="yes"/>
      <point x="621" y="509"/>
      <point x="646" y="509" type="qcurve" smooth="yes"/>
      <point x="670" y="509"/>
    </contour>
    <contour>
      <point x="586" y="467" type="qcurve" smooth="yes"/>
      <point x="586" y="443"/>
      <point x="561" y="443" type="qcurve" smooth="yes"/>
      <point x="537" y="443"/>
      <point x="537" y="467" type="qcurve" smooth="yes"/>
      <point x="537" y="492"/>
      <point x="561" y="492" type="qcurve" smooth="yes"/>
      <point x="586" y="492"/>
    </contour>
    <contour>
      <point x="876" y="177" type="qcurve" smooth="yes"/>
      <point x="876" y="153"/>
      <point x="851" y="153" type="qcurve" smooth="yes"/>
      <point x="827" y="153"/>
      <point x="827" y="177" type="qcurve" smooth="yes"/>
      <point x="827" y="202"/>
      <point x="851" y="202" type="qcurve" smooth="yes"/>
      <point x="876" y="202"/>
    </contour>
    <contour>
      <point x="514" y="419" type="qcurve" smooth="yes"/>
      <point x="514" y="395"/>
      <point x="489" y="395" type="qcurve" smooth="yes"/>
      <point x="465" y="395"/>
      <point x="465" y="417" type="qcurve" smooth="yes"/>
      <point x="465" y="443"/>
      <point x="489" y="443" type="qcurve" smooth="yes"/>
      <point x="514" y="443"/>
    </contour>
    <contour>
      <point x="828" y="104" type="qcurve" smooth="yes"/>
      <point x="828" y="80"/>
      <point x="804" y="80" type="qcurve" smooth="yes"/>
      <point x="779" y="80"/>
      <point x="779" y="104" type="qcurve" smooth="yes"/>
      <point x="779" y="128"/>
      <point x="804" y="128" type="qcurve" smooth="yes"/>
      <point x="828" y="128"/>
    </contour>
    <contour>
      <point x="755" y="56" type="qcurve" smooth="yes"/>
      <point x="755" y="32"/>
      <point x="732" y="32" type="qcurve" smooth="yes"/>
      <point x="706" y="32"/>
      <point x="706" y="56" type="qcurve" smooth="yes"/>
      <point x="706" y="81"/>
      <point x="732" y="81" type="qcurve" smooth="yes"/>
      <point x="755" y="81"/>
    </contour>
    <contour>
      <point x="465" y="347" type="qcurve" smooth="yes"/>
      <point x="465" y="322"/>
      <point x="442" y="322" type="qcurve" smooth="yes"/>
      <point x="416" y="322"/>
      <point x="416" y="347" type="qcurve" smooth="yes"/>
      <point x="416" y="371"/>
      <point x="441" y="371" type="qcurve" smooth="yes"/>
      <point x="465" y="371"/>
    </contour>
    <contour>
      <point x="448" y="262" type="qcurve" smooth="yes"/>
      <point x="448" y="237"/>
      <point x="424" y="237" type="qcurve" smooth="yes"/>
      <point x="399" y="237"/>
      <point x="399" y="262" type="qcurve" smooth="yes"/>
      <point x="399" y="286"/>
      <point x="424" y="286" type="qcurve" smooth="yes"/>
      <point x="448" y="286"/>
    </contour>
    <contour>
      <point x="670" y="40" type="qcurve" smooth="yes"/>
      <point x="670" y="15"/>
      <point x="646" y="15" type="qcurve" smooth="yes"/>
      <point x="621" y="15"/>
      <point x="621" y="40" type="qcurve" smooth="yes"/>
      <point x="621" y="63"/>
      <point x="646" y="63" type="qcurve" smooth="yes"/>
      <point x="670" y="63"/>
    </contour>
    <contour>
      <point x="465" y="177" type="qcurve" smooth="yes"/>
      <point x="465" y="153"/>
      <point x="441" y="153" type="qcurve" smooth="yes"/>
      <point x="416" y="153"/>
      <point x="416" y="177" type="qcurve" smooth="yes"/>
      <point x="416" y="202"/>
      <point x="441" y="202" type="qcurve" smooth="yes"/>
      <point x="465" y="202"/>
    </contour>
    <contour>
      <point x="586" y="58" type="qcurve" smooth="yes"/>
      <point x="586" y="32"/>
      <point x="561" y="32" type="qcurve" smooth="yes"/>
      <point x="537" y="32"/>
      <point x="537" y="56" type="qcurve" smooth="yes"/>
      <point x="537" y="81"/>
      <point x="561" y="81" type="qcurve" smooth="yes"/>
      <point x="586" y="81"/>
    </contour>
    <contour>
      <point x="514" y="104" type="qcurve" smooth="yes"/>
      <point x="514" y="80"/>
      <point x="489" y="80" type="qcurve" smooth="yes"/>
      <point x="465" y="80"/>
      <point x="465" y="104" type="qcurve" smooth="yes"/>
      <point x="465" y="128"/>
      <point x="489" y="128" type="qcurve" smooth="yes"/>
      <point x="514" y="128"/>
    </contour>
    <contour>
      <point x="1126" y="2" type="qcurve" smooth="yes"/>
      <point x="1078" y="2"/>
      <point x="1034" y="49" type="qcurve"/>
      <point x="1069" y="41"/>
      <point x="1096" y="41" type="qcurve" smooth="yes"/>
      <point x="1186" y="41"/>
      <point x="1281" y="144"/>
      <point x="1281" y="224" type="qcurve" smooth="yes"/>
      <point x="1281" y="385"/>
      <point x="1127" y="385" type="qcurve" smooth="yes"/>
      <point x="1123" y="385" type="line" smooth="yes"/>
      <point x="1030" y="385"/>
      <point x="914" y="300" type="qcurve"/>
      <point x="918" y="327"/>
      <point x="1035" y="420"/>
      <point x="1139" y="420" type="qcurve"/>
      <point x="1315" y="412"/>
      <point x="1315" y="233" type="qcurve" smooth="yes"/>
      <point x="1315" y="125"/>
      <point x="1189" y="2"/>
    </contour>
    <contour>
      <point x="231" y="-370" type="line"/>
      <point x="210" y="-370"/>
      <point x="167" y="-301"/>
      <point x="167" y="-240" type="qcurve" smooth="yes"/>
      <point x="168" y="-206" type="line"/>
      <point x="175" y="-121"/>
      <point x="244" y="55" type="qcurve"/>
      <point x="315" y="211"/>
      <point x="315" y="289" type="qcurve"/>
      <point x="314" y="308" type="line"/>
      <point x="302" y="389"/>
      <point x="231" y="389" type="qcurve" smooth="yes"/>
      <point x="132" y="389"/>
      <point x="122" y="260" type="qcurve"/>
      <point x="124" y="196"/>
      <point x="139" y="176" type="qcurve"/>
      <point x="132" y="165" type="line"/>
      <point x="16" y="182"/>
      <point x="16" y="304" type="qcurve"/>
      <point x="22" y="363"/>
      <point x="64" y="367" type="qcurve"/>
      <point x="48" y="350"/>
      <point x="48" y="297" type="qcurve" smooth="yes"/>
      <point x="48" y="223"/>
      <point x="110" y="198" type="qcurve"/>
      <point x="96" y="216"/>
      <point x="94" y="261" type="qcurve" smooth="yes"/>
      <point x="98" y="417"/>
      <point x="226" y="421" type="qcurve" smooth="yes"/>
      <point x="288" y="421"/>
      <point x="347" y="345"/>
      <point x="347" y="287" type="qcurve" smooth="yes"/>
      <point x="347" y="207"/>
      <point x="284" y="50" type="qcurve" smooth="yes"/>
      <point x="211" y="-123"/>
      <point x="200" y="-202" type="qcurve"/>
      <point x="198" y="-230" type="line"/>
      <point x="198" y="-313"/>
      <point x="239" y="-368" type="qcurve"/>
    </contour>
  </outline>
</glyph>
<glyph name="uni1B43" format="2">
  <advance width="427"/>
  <unicode hex="1B43"/>
  <outline>
    <contour>
      <point x="-55" y="751" type="line"/>
      <point x="-5" y="758" type="line"/>
      <point x="-94" y="839"/>
      <point x="-258" y="839" type="qcurve"/>
      <point x="-288" y="838" type="line"/>
      <point x="-183" y="751"/>
      <point x="-62" y="751" type="qcurve" smooth="yes"/>
    </contour>
    <contour>
      <point x="-490" y="591" type="qcurve" smooth="yes"/>
      <point x="-504" y="593" type="line"/>
      <point x="-565" y="612"/>
      <point x="-571" y="701" type="qcurve"/>
      <point x="-567" y="878"/>
      <point x="-253" y="878" type="qcurve" smooth="yes"/>
      <point x="-76" y="878"/>
      <point x="30" y="779" type="qcurve"/>
      <point x="30" y="758" type="line" smooth="yes"/>
      <point x="30" y="731"/>
      <point x="-55" y="722" type="qcurve"/>
      <point x="-259" y="725"/>
      <point x="-324" y="838" type="qcurve"/>
      <point x="-536" y="810"/>
      <point x="-536" y="701" type="qcurve" smooth="yes"/>
      <point x="-536" y="628"/>
      <point x="-472" y="595" type="qcurve"/>
      <point x="-480" y="591"/>
    </contour>
    <contour>
      <point x="215" y="2" type="qcurve" smooth="yes"/>
      <point x="167" y="2"/>
      <point x="123" y="49" type="qcurve"/>
      <point x="158" y="41"/>
      <point x="185" y="41" type="qcurve" smooth="yes"/>
      <point x="275" y="41"/>
      <point x="370" y="144"/>
      <point x="370" y="224" type="qcurve" smooth="yes"/>
      <point x="370" y="385"/>
      <point x="216" y="385" type="qcurve" smooth="yes"/>
      <point x="212" y="385" type="line" smooth="yes"/>
      <point x="119" y="385"/>
      <point x="3" y="300" type="qcurve"/>
      <point x="7" y="327"/>
      <point x="124" y="420"/>
      <point x="228" y="420" type="qcurve"/>
      <point x="404" y="412"/>
      <point x="404" y="233" type="qcurve" smooth="yes"/>
      <point x="404" y="125"/>
      <point x="278" y="2"/>
    </contour>
  </outline>
</glyph>
<glyph name="uni1B44" format="2">
  <advance width="223"/>
  <unicode hex="1B44"/>
  <outline>
    <contour>
      <point x="249" y="-592" type="line"/>
      <point x="8" y="-510"/>
      <point x="8" y="-257" type="qcurve" smooth="yes"/>
      <point x="8" y="-70"/>
      <point x="94" y="254" type="qcurve" smooth="yes"/>
      <point x="153" y="476"/>
      <point x="153" y="594" type="qcurve" smooth="yes"/>
      <point x="153" y="782"/>
      <point x="-6" y="789" type="qcurve"/>
      <point x="-185" y="789"/>
      <point x="-185" y="623" type="qcurve" smooth="yes"/>
      <point x="-182" y="553"/>
      <point x="-160" y="521" type="qcurve"/>
      <point x="-221" y="536"/>
      <point x="-221" y="657" type="qcurve"/>
      <point x="-204" y="825"/>
      <point x="-13" y="825" type="qcurve" smooth="yes"/>
      <point x="183" y="825"/>
      <point x="183" y="586" type="qcurve" smooth="yes"/>
      <point x="183" y="457"/>
      <point x="128" y="245" type="qcurve" smooth="yes"/>
      <point x="46" y="-74"/>
      <point x="44" y="-245" type="qcurve"/>
      <point x="54" y="-486"/>
      <point x="249" y="-576" type="qcurve"/>
    </contour>
  </outline>
</glyph>
<glyph name="uni1B46" format="2">
  <advance width="1092"/>
  <unicode hex="1B46"/>
  <anchor x="680" y="0" name="Anchor-3"/>
  <anchor x="686" y="0" name="Anchor-1"/>
  <anchor x="679" y="490" name="Anchor-0"/>
  <outline>
    <contour>
      <point x="343" y="35" type="qcurve"/>
      <point x="378" y="48"/>
      <point x="380" y="79" type="qcurve" smooth="yes"/>
      <point x="380" y="136"/>
      <point x="300" y="174" type="qcurve"/>
      <point x="325" y="35"/>
    </contour>
    <contour>
      <point x="526" y="307" type="qcurve"/>
      <point x="526" y="396"/>
      <point x="366" y="396" type="qcurve" smooth="yes"/>
      <point x="359" y="396" type="line" smooth="yes"/>
      <point x="292" y="396"/>
      <point x="292" y="254" type="qcurve" smooth="yes"/>
      <point x="292" y="235"/>
      <point x="294" y="217" type="qcurve"/>
      <point x="411" y="156"/>
      <point x="411" y="79" type="qcurve" smooth="yes"/>
      <point x="411" y="11"/>
      <point x="328" y="-5" type="qcurve"/>
      <point x="298" y="-5"/>
      <point x="263" y="193" type="qcurve"/>
      <point x="242" y="195" type="line" smooth="yes"/>
      <point x="225" y="195"/>
      <point x="208" y="190" type="qcurve"/>
      <point x="182" y="127"/>
      <point x="149" y="-5" type="qcurve"/>
      <point x="106" y="4"/>
      <point x="102" y="36" type="qcurve"/>
      <point x="103" y="128"/>
      <point x="187" y="219" type="qcurve"/>
      <point x="219" y="221" type="line"/>
      <point x="232" y="226"/>
      <point x="245" y="226" type="qcurve" smooth="yes"/>
      <point x="254" y="226"/>
      <point x="262" y="224" type="qcurve"/>
      <point x="258" y="246"/>
      <point x="258" y="273" type="qcurve" smooth="yes"/>
      <point x="258" y="428"/>
      <point x="383" y="428" type="qcurve" smooth="yes"/>
      <point x="555" y="424"/>
      <point x="561" y="312" type="qcurve" smooth="yes"/>
      <point x="561" y="246"/>
      <point x="544" y="141" type="qcurve" smooth="yes"/>
      <point x="539" y="113"/>
      <point x="539" y="99" type="qcurve" smooth="yes"/>
      <point x="539" y="33"/>
      <point x="611" y="30" type="qcurve" smooth="yes"/>
      <point x="621" y="30" type="line" smooth="yes"/>
      <point x="692" y="30"/>
      <point x="700" y="117" type="qcurve" smooth="yes"/>
      <point x="708" y="209"/>
      <point x="720" y="421"/>
      <point x="811" y="421" type="qcurve" smooth="yes"/>
      <point x="840" y="421" type="line" smooth="yes"/>
      <point x="902" y="421"/>
      <point x="939" y="362" type="qcurve"/>
      <point x="954" y="421"/>
      <point x="991" y="421" type="qcurve" smooth="yes"/>
      <point x="1092" y="414"/>
      <point x="1092" y="312" type="qcurve" smooth="yes"/>
      <point x="1092" y="246"/>
      <point x="1049" y="1"/>
      <point x="1024" y="1" type="qcurve"/>
      <point x="1049" y="192"/>
      <point x="1053" y="274" type="qcurve" smooth="yes"/>
      <point x="1054" y="307" type="line" smooth="yes"/>
      <point x="1054" y="380"/>
      <point x="1000" y="393" type="qcurve"/>
      <point x="995" y="393" type="line" smooth="yes"/>
      <point x="969" y="393"/>
      <point x="950" y="334" type="qcurve"/>
      <point x="960" y="300"/>
      <point x="962" y="207" type="qcurve"/>
      <point x="960" y="157" type="line"/>
      <point x="947" y="0"/>
      <point x="913" y="0" type="qcurve"/>
      <point x="919" y="50"/>
      <point x="927" y="158" type="qcurve"/>
      <point x="928" y="188" type="line"/>
      <point x="928" y="320"/>
      <point x="882" y="384"/>
      <point x="818" y="388" type="qcurve"/>
      <point x="812" y="388" type="line" smooth="yes"/>
      <point x="755" y="388"/>
      <point x="748" y="314" type="qcurve" smooth="yes"/>
      <point x="733" y="117" type="line" smooth="yes"/>
      <point x="724" y="-1"/>
      <point x="605" y="-5" type="qcurve"/>
      <point x="507" y="5"/>
      <point x="509" y="107" type="qcurve"/>
      <point x="518" y="192"/>
    </contour>
    <contour>
      <point x="208" y="190" type="line"/>
      <point x="182" y="127"/>
      <point x="149" y="-5" type="qcurve"/>
      <point x="106" y="4"/>
      <point x="102" y="36" type="qcurve"/>
      <point x="103" y="128"/>
      <point x="187" y="219" type="qcurve"/>
      <point x="201" y="285"/>
      <point x="202" y="323" type="qcurve" smooth="yes"/>
      <point x="202" y="387"/>
      <point x="154" y="389" type="qcurve" smooth="yes"/>
      <point x="119" y="388"/>
      <point x="66" y="303"/>
      <point x="66" y="234" type="qcurve" smooth="yes"/>
      <point x="66" y="213"/>
      <point x="72" y="195" type="qcurve"/>
      <point x="40" y="195"/>
      <point x="40" y="247" type="qcurve" smooth="yes"/>
      <point x="41" y="272" type="line"/>
      <point x="66" y="421"/>
      <point x="161" y="421" type="qcurve" smooth="yes"/>
      <point x="232" y="419"/>
      <point x="232" y="335" type="qcurve" smooth="yes"/>
      <point x="231" y="284"/>
      <point x="217" y="221" type="qcurve"/>
    </contour>
  </outline>
</glyph>
<glyph name="uni1B4B" format="2">
  <advance width="1255"/>
  <unicode hex="1B4B"/>
  <anchor x="712" y="0" name="Anchor-3"/>
  <anchor x="686" y="0" name="Anchor-1"/>
  <anchor x="716" y="490" name="Anchor-0"/>
  <outline>
    <contour>
      <point x="114" y="-1" type="qcurve"/>
      <point x="106" y="-1" type="line"/>
      <point x="106" y="60" type="line" smooth="yes"/>
      <point x="106" y="100"/>
      <point x="223" y="196" type="qcurve"/>
      <point x="256" y="277"/>
      <point x="256" y="327" type="qcurve" smooth="yes"/>
      <point x="255" y="342" type="line" smooth="yes"/>
      <point x="249" y="394"/>
      <point x="199" y="394" type="qcurve" smooth="yes"/>
      <point x="93" y="394"/>
      <point x="59" y="203" type="qcurve"/>
      <point x="40" y="214"/>
      <point x="40" y="244" type="qcurve" smooth="yes"/>
      <point x="41" y="257" type="line"/>
      <point x="75" y="421"/>
      <point x="196" y="421" type="qcurve" smooth="yes"/>
      <point x="289" y="421"/>
      <point x="289" y="334" type="qcurve" smooth="yes"/>
      <point x="289" y="293"/>
      <point x="254" y="192" type="qcurve"/>
      <point x="298" y="182"/>
      <point x="366" y="73" type="qcurve"/>
      <point x="397" y="31"/>
      <point x="433" y="31" type="qcurve" smooth="yes"/>
      <point x="514" y="31"/>
      <point x="514" y="203" type="qcurve" smooth="yes"/>
      <point x="513" y="305"/>
      <point x="461" y="404" type="qcurve"/>
      <point x="483" y="421"/>
      <point x="518" y="421" type="qcurve" smooth="yes"/>
      <point x="608" y="417"/>
      <point x="608" y="296" type="qcurve" smooth="yes"/>
      <point x="608" y="288" type="line"/>
      <point x="601" y="170"/>
      <point x="601" y="102" type="qcurve" smooth="yes"/>
      <point x="601" y="32"/>
      <point x="657" y="30" type="qcurve"/>
      <point x="792" y="35"/>
      <point x="881" y="419" type="qcurve"/>
      <point x="909" y="416"/>
      <point x="909" y="385" type="qcurve" smooth="yes"/>
      <point x="881" y="112" type="line"/>
      <point x="881" y="33"/>
      <point x="972" y="33" type="qcurve"/>
      <point x="1027" y="37"/>
      <point x="1087" y="149"/>
      <point x="1087" y="243" type="qcurve" smooth="yes"/>
      <point x="1087" y="316"/>
      <point x="1041" y="404" type="qcurve"/>
      <point x="1063" y="421"/>
      <point x="1098" y="421" type="qcurve" smooth="yes"/>
      <point x="1191" y="417"/>
      <point x="1195" y="285" type="qcurve" smooth="yes"/>
      <point x="1195" y="219"/>
      <point x="1152" y="1"/>
      <point x="1127" y="1" type="qcurve"/>
      <point x="1156" y="173"/>
      <point x="1156" y="270" type="qcurve" smooth="yes"/>
      <point x="1153" y="385"/>
      <point x="1087" y="385" type="qcurve" smooth="yes"/>
      <point x="1082" y="385" type="line"/>
      <point x="1118" y="320"/>
      <point x="1118" y="241" type="qcurve" smooth="yes"/>
      <point x="1117" y="215" type="line"/>
      <point x="1104" y="11"/>
      <point x="971" y="0" type="qcurve"/>
      <point x="848" y="0"/>
      <point x="848" y="110" type="qcurve" smooth="yes"/>
      <point x="851" y="175"/>
      <point x="872" y="276" type="qcurve"/>
      <point x="784" y="0"/>
      <point x="652" y="0" type="qcurve" smooth="yes"/>
      <point x="648" y="0" type="line"/>
      <point x="574" y="8"/>
      <point x="570" y="91" type="qcurve"/>
      <point x="570" y="180"/>
      <point x="573" y="286" type="qcurve" smooth="yes"/>
      <point x="573" y="385"/>
      <point x="507" y="385" type="qcurve" smooth="yes"/>
      <point x="502" y="385" type="line"/>
      <point x="544" y="309"/>
      <point x="544" y="202" type="qcurve" smooth="yes"/>
      <point x="544" y="6"/>
      <point x="432" y="1" type="qcurve"/>
      <point x="427" y="1" type="line" smooth="yes"/>
      <point x="382" y="1"/>
      <point x="349" y="48" type="qcurve" smooth="yes"/>
      <point x="291" y="126" type="line" smooth="yes"/>
      <point x="269" y="153"/>
      <point x="246" y="167" type="qcurve"/>
      <point x="180" y="57"/>
    </contour>
  </outline>
</glyph>
<glyph name="uni1B50" format="2">
  <advance width="441"/>
  <unicode hex="1B50"/>
  <anchor x="686" y="0" name="Anchor-1"/>
  <anchor x="240" y="520" name="Anchor-0"/>
  <outline>
    <contour>
      <point x="229" y="71" type="qcurve"/>
      <point x="87" y="90"/>
      <point x="87" y="192" type="qcurve" smooth="yes"/>
      <point x="87" y="257"/>
      <point x="196" y="374"/>
      <point x="267" y="374" type="qcurve" smooth="yes"/>
      <point x="399" y="374"/>
      <point x="404" y="267" type="qcurve"/>
      <point x="404" y="143"/>
    </contour>
    <contour>
      <point x="249" y="98" type="qcurve"/>
      <point x="363" y="178"/>
      <point x="363" y="267" type="qcurve" smooth="yes"/>
      <point x="363" y="273" type="line" smooth="yes"/>
      <point x="363" y="332"/>
      <point x="276" y="341" type="qcurve"/>
      <point x="204" y="341"/>
      <point x="120" y="236"/>
      <point x="120" y="189" type="qcurve" smooth="yes"/>
      <point x="120" y="110"/>
    </contour>
  </outline>
</glyph>
<glyph name="uni1B51" format="2">
  <advance width="755"/>
  <unicode hex="1B51"/>
  <anchor x="686" y="0" name="Anchor-1"/>
  <anchor x="520" y="620" name="Anchor-0"/>
  <outline>
    <contour>
      <point x="662" y="459" type="line"/>
      <point x="638" y="581"/>
      <point x="620" y="581" type="qcurve" smooth="yes"/>
      <point x="611" y="581"/>
      <point x="577" y="514"/>
      <point x="577" y="489" type="qcurve" smooth="yes"/>
      <point x="577" y="459"/>
      <point x="653" y="459" type="qcurve" smooth="yes"/>
    </contour>
    <contour>
      <point x="178" y="0" type="qcurve"/>
      <point x="69" y="8"/>
      <point x="69" y="120" type="qcurve" smooth="yes"/>
      <point x="72" y="194"/>
      <point x="125" y="308" type="qcurve"/>
      <point x="80" y="280"/>
      <point x="53" y="187" type="qcurve"/>
      <point x="40" y="202"/>
      <point x="40" y="219" type="qcurve" smooth="yes"/>
      <point x="52" y="295"/>
      <point x="126" y="340" type="qcurve"/>
      <point x="157" y="340"/>
      <point x="157" y="308" type="qcurve"/>
      <point x="98" y="183"/>
      <point x="98" y="115" type="qcurve" smooth="yes"/>
      <point x="98" y="27"/>
      <point x="195" y="27" type="qcurve"/>
      <point x="212" y="28" type="line"/>
      <point x="161" y="89"/>
      <point x="161" y="196" type="qcurve" smooth="yes"/>
      <point x="161" y="212" type="line"/>
      <point x="165" y="330"/>
      <point x="240" y="330" type="qcurve" smooth="yes"/>
      <point x="293" y="329"/>
      <point x="323" y="288" type="qcurve"/>
      <point x="329" y="424"/>
      <point x="459" y="424" type="qcurve"/>
      <point x="580" y="415"/>
      <point x="582" y="296" type="qcurve" smooth="yes"/>
      <point x="582" y="246"/>
      <point x="561" y="124" type="qcurve" smooth="yes"/>
      <point x="549" y="56"/>
      <point x="549" y="47" type="qcurve" smooth="yes"/>
      <point x="549" y="35"/>
      <point x="563" y="34" type="qcurve" smooth="yes"/>
      <point x="616" y="34"/>
      <point x="679" y="161"/>
      <point x="679" y="267" type="qcurve" smooth="yes"/>
      <point x="676" y="369"/>
      <point x="665" y="439" type="qcurve"/>
      <point x="618" y="432"/>
      <point x="600" y="432" type="qcurve" smooth="yes"/>
      <point x="549" y="432"/>
      <point x="549" y="482" type="qcurve" smooth="yes"/>
      <point x="549" y="519"/>
      <point x="602" y="619"/>
      <point x="628" y="619" type="qcurve" smooth="yes"/>
      <point x="700" y="619"/>
      <point x="711" y="257" type="qcurve"/>
      <point x="701" y="2"/>
      <point x="561" y="2" type="qcurve" smooth="yes"/>
      <point x="549" y="2" type="line" smooth="yes"/>
      <point x="513" y="5"/>
      <point x="513" y="41" type="qcurve" smooth="yes"/>
      <point x="513" y="59"/>
      <point x="519" y="88" type="qcurve" smooth="yes"/>
      <point x="539" y="201"/>
      <point x="543" y="287" type="qcurve"/>
      <point x="541" y="390"/>
      <point x="443" y="390" type="qcurve" smooth="yes"/>
      <point x="347" y="390"/>
      <point x="347" y="203" type="qcurve" smooth="yes"/>
      <point x="348" y="152" type="line" smooth="yes"/>
      <point x="348" y="130"/>
      <point x="329" y="128" type="qcurve"/>
      <point x="319" y="294"/>
      <point x="241" y="294" type="qcurve" smooth="yes"/>
      <point x="190" y="293"/>
      <point x="190" y="205" type="qcurve" smooth="yes"/>
      <point x="190" y="186" type="line"/>
      <point x="195" y="83"/>
      <point x="255" y="20" type="qcurve"/>
      <point x="236" y="0"/>
    </contour>
  </outline>
</glyph>
<glyph name="uni1B55" format="2">
  <advance width="423"/>
  <unicode hex="1B55"/>
  <anchor x="686" y="0" name="Anchor-1"/>
  <anchor x="300" y="660" name="Anchor-0"/>
  <outline>
    <contour>
      <point x="345" y="-363" type="line"/>
      <point x="324" y="-363"/>
      <point x="281" y="-294"/>
      <point x="281" y="-233" type="qcurve" smooth="yes"/>
      <point x="282" y="-199" type="line"/>
      <point x="289" y="-114"/>
      <point x="363" y="268"/>
      <point x="367" y="382" type="qcurve"/>
      <point x="367" y="389" type="line" smooth="yes"/>
      <point x="367" y="496"/>
      <point x="245" y="496" type="qcurve" smooth="yes"/>
      <point x="164" y="496"/>
      <point x="52" y="360"/>
      <point x="52" y="264" type="qcurve" smooth="yes"/>
      <point x="52" y="220"/>
      <point x="65" y="171" type="qcurve" smooth="yes"/>
      <point x="98" y="39"/>
      <point x="172" y="30" type="qcurve"/>
      <point x="269" y="58"/>
      <point x="269" y="156" type="qcurve" smooth="yes"/>
      <point x="269" y="216"/>
      <point x="153" y="222" type="qcurve"/>
      <point x="153" y="229" type="line"/>
      <point x="245" y="309"/>
      <point x="246" y="355" type="qcurve" smooth="yes"/>
      <point x="246" y="381"/>
      <point x="224" y="381" type="qcurve" smooth="yes"/>
      <point x="213" y="380" type="line" smooth="yes"/>
      <point x="179" y="375"/>
      <point x="132" y="330" type="qcurve"/>
      <point x="124" y="336"/>
      <point x="124" y="345" type="qcurve" smooth="yes"/>
      <point x="125" y="350" type="line"/>
      <point x="170" y="409"/>
      <point x="245" y="409" type="qcurve"/>
      <point x="280" y="401"/>
      <point x="280" y="356" type="qcurve" smooth="yes"/>
      <point x="278" y="314"/>
      <point x="198" y="241" type="qcurve"/>
      <point x="299" y="234"/>
      <point x="299" y="155" type="qcurve"/>
      <point x="298" y="139" type="line"/>
      <point x="271" y="7"/>
      <point x="174" y="-7" type="qcurve"/>
      <point x="119" y="-7"/>
      <point x="73" y="58" type="qcurve" smooth="yes"/>
      <point x="20" y="133"/>
      <point x="20" y="273" type="qcurve" smooth="yes"/>
      <point x="20" y="374"/>
      <point x="130" y="517"/>
      <point x="230" y="528" type="qcurve"/>
      <point x="240" y="528" type="line" smooth="yes"/>
      <point x="397" y="528"/>
      <point x="402" y="402" type="qcurve" smooth="yes"/>
      <point x="403" y="374" type="line"/>
      <point x="403" y="254"/>
      <point x="366" y="75" type="qcurve" smooth="yes"/>
      <point x="325" y="-126"/>
      <point x="314" y="-205" type="qcurve"/>
      <point x="312" y="-233" type="line"/>
      <point x="312" y="-298"/>
      <point x="353" y="-361" type="qcurve"/>
    </contour>
  </outline>
</glyph>
<glyph name="uni1B56" format="2">
  <advance width="505"/>
  <unicode hex="1B56"/>
  <anchor x="686" y="0" name="Anchor-1"/>
  <anchor x="344" y="499" name="Anchor-0"/>
  <outline>
    <contour>
      <point x="186" y="-11" type="line"/>
      <point x="23" y="12"/>
      <point x="20" y="153" type="qcurve" smooth="yes"/>
      <point x="20" y="162" type="line" smooth="yes"/>
      <point x="20" y="275"/>
      <point x="183" y="408"/>
      <point x="312" y="408" type="qcurve" smooth="yes"/>
      <point x="323" y="408" type="line" smooth="yes"/>
      <point x="458" y="406"/>
      <point x="458" y="382" type="qcurve"/>
      <point x="387" y="383" type="line"/>
      <point x="64" y="383"/>
      <point x="58" y="162" type="qcurve" smooth="yes"/>
      <point x="58" y="51"/>
      <point x="163" y="23" type="qcurve"/>
      <point x="157" y="58"/>
      <point x="157" y="87" type="qcurve" smooth="yes"/>
      <point x="157" y="241"/>
      <point x="290" y="241" type="qcurve" smooth="yes"/>
      <point x="382" y="241"/>
      <point x="485" y="131"/>
      <point x="485" y="72" type="qcurve" smooth="yes"/>
      <point x="485" y="46"/>
      <point x="472" y="25" type="qcurve"/>
      <point x="472" y="91"/>
      <point x="381" y="204"/>
      <point x="292" y="204" type="qcurve" smooth="yes"/>
      <point x="185" y="204"/>
      <point x="185" y="30" type="qcurve"/>
    </contour>
  </outline>
</glyph>
<glyph name="uni1B57" format="2">
  <advance width="624"/>
  <unicode hex="1B57"/>
  <anchor x="686" y="0" name="Anchor-1"/>
  <anchor x="380" y="690" name="Anchor-0"/>
  <outline>
    <contour>
      <point x="562" y="459" type="line"/>
      <point x="538" y="581"/>
      <point x="520" y="581" type="qcurve" smooth="yes"/>
      <point x="511" y="581"/>
      <point x="477" y="514"/>
      <point x="477" y="489" type="qcurve" smooth="yes"/>
      <point x="477" y="459"/>
      <point x="553" y="459" type="qcurve" smooth="yes"/>
    </contour>
    <contour>
      <point x="86" y="1" type="qcurve" smooth="yes"/>
      <point x="20" y="2"/>
      <point x="20" y="151" type="qcurve" smooth="yes"/>
      <point x="20" y="166" type="line" smooth="yes"/>
      <point x="20" y="224"/>
      <point x="65" y="353"/>
      <point x="98" y="353" type="qcurve"/>
      <point x="54" y="232"/>
      <point x="54" y="120" type="qcurve" smooth="yes"/>
      <point x="54" y="34"/>
      <point x="97" y="34" type="qcurve" smooth="yes"/>
      <point x="102" y="34" type="line"/>
      <point x="83" y="70"/>
      <point x="83" y="129" type="qcurve" smooth="yes"/>
      <point x="83" y="162"/>
      <point x="92" y="205" type="qcurve" smooth="yes"/>
      <point x="132" y="399"/>
      <point x="299" y="399" type="qcurve" smooth="yes"/>
      <point x="337" y="399" type="line"/>
      <point x="423" y="387"/>
      <point x="423" y="317" type="qcurve" smooth="yes"/>
      <point x="423" y="287"/>
      <point x="386" y="156"/>
      <point x="386" y="125" type="qcurve" smooth="yes"/>
      <point x="386" y="44"/>
      <point x="457" y="34" type="qcurve"/>
      <point x="516" y="34"/>
      <point x="579" y="161"/>
      <point x="579" y="267" type="qcurve" smooth="yes"/>
      <point x="576" y="369"/>
      <point x="565" y="439" type="qcurve"/>
      <point x="518" y="432"/>
      <point x="500" y="432" type="qcurve" smooth="yes"/>
      <point x="449" y="432"/>
      <point x="449" y="482" type="qcurve" smooth="yes"/>
      <point x="449" y="519"/>
      <point x="502" y="619"/>
      <point x="528" y="619" type="qcurve" smooth="yes"/>
      <point x="600" y="619"/>
      <point x="611" y="257" type="qcurve"/>
      <point x="601" y="2"/>
      <point x="461" y="2" type="qcurve" smooth="yes"/>
      <point x="449" y="2" type="line"/>
      <point x="353" y="16"/>
      <point x="353" y="129" type="qcurve" smooth="yes"/>
      <point x="353" y="153"/>
      <point x="360" y="183" type="qcurve" smooth="yes"/>
      <point x="381" y="282"/>
      <point x="385" y="326" type="qcurve"/>
      <point x="385" y="330" type="line" smooth="yes"/>
      <point x="385" y="369"/>
      <point x="324" y="369" type="qcurve" smooth="yes"/>
      <point x="121" y="369"/>
      <point x="121" y="105" type="qcurve" smooth="yes"/>
      <point x="121" y="53"/>
      <point x="144" y="24" type="qcurve"/>
      <point x="127" y="1"/>
    </contour>
  </outline>
</glyph>
<glyph name="uni1B58" format="2">
  <advance width="411"/>
  <unicode hex="1B58"/>
  <anchor x="686" y="0" name="Anchor-1"/>
  <anchor x="260" y="710" name="Anchor-0"/>
  <outline>
    <contour>
      <point x="342" y="459" type="line"/>
      <point x="318" y="581"/>
      <point x="300" y="581" type="qcurve" smooth="yes"/>
      <point x="291" y="581"/>
      <point x="257" y="514"/>
      <point x="257" y="489" type="qcurve" smooth="yes"/>
      <point x="257" y="459"/>
      <point x="333" y="459" type="qcurve" smooth="yes"/>
    </contour>
    <contour>
      <point x="359" y="161"/>
      <point x="359" y="267" type="qcurve" smooth="yes"/>
      <point x="356" y="369"/>
      <point x="345" y="439" type="qcurve"/>
      <point x="298" y="432"/>
      <point x="280" y="432" type="qcurve" smooth="yes"/>
      <point x="229" y="432"/>
      <point x="229" y="482" type="qcurve" smooth="yes"/>
      <point x="229" y="519"/>
      <point x="282" y="619"/>
      <point x="308" y="619" type="qcurve" smooth="yes"/>
      <point x="380" y="619"/>
      <point x="391" y="257" type="qcurve"/>
      <point x="381" y="2"/>
      <point x="220" y="2" type="qcurve"/>
      <point x="63" y="6"/>
      <point x="63" y="148" type="qcurve" smooth="yes"/>
      <point x="63" y="153" type="line" smooth="yes"/>
      <point x="63" y="227"/>
      <point x="126" y="346" type="qcurve"/>
      <point x="91" y="346"/>
      <point x="34" y="197" type="qcurve"/>
      <point x="20" y="197"/>
      <point x="20" y="226" type="qcurve"/>
      <point x="61" y="388"/>
      <point x="133" y="388" type="qcurve" smooth="yes"/>
      <point x="140" y="388" type="line" smooth="yes"/>
      <point x="163" y="388"/>
      <point x="171" y="353" type="qcurve"/>
      <point x="101" y="242"/>
      <point x="101" y="150" type="qcurve"/>
      <point x="102" y="131" type="line"/>
      <point x="120" y="36"/>
      <point x="208" y="36" type="qcurve" smooth="yes"/>
      <point x="297" y="36"/>
    </contour>
  </outline>
</glyph>
<glyph name="uni1B59" format="2">
  <advance width="631"/>
  <unicode hex="1B59"/>
  <anchor x="686" y="0" name="Anchor-1"/>
  <anchor x="400" y="690" name="Anchor-0"/>
  <outline>
    <contour>
      <point x="562" y="459" type="line"/>
      <point x="538" y="581"/>
      <point x="520" y="581" type="qcurve" smooth="yes"/>
      <point x="511" y="581"/>
      <point x="477" y="514"/>
      <point x="477" y="489" type="qcurve" smooth="yes"/>
      <point x="477" y="459"/>
      <point x="553" y="459" type="qcurve" smooth="yes"/>
    </contour>
    <contour>
      <point x="164" y="-4" type="qcurve" smooth="yes"/>
      <point x="49" y="-4"/>
      <point x="49" y="85" type="qcurve" smooth="yes"/>
      <point x="49" y="127"/>
      <point x="79" y="216"/>
      <point x="126" y="346" type="qcurve"/>
      <point x="91" y="346"/>
      <point x="34" y="197" type="qcurve"/>
      <point x="20" y="197"/>
      <point x="20" y="226" type="qcurve"/>
      <point x="61" y="388"/>
      <point x="133" y="388" type="qcurve" smooth="yes"/>
      <point x="140" y="388" type="line" smooth="yes"/>
      <point x="163" y="388"/>
      <point x="171" y="353" type="qcurve"/>
      <point x="84" y="151"/>
      <point x="84" y="89" type="qcurve" smooth="yes"/>
      <point x="84" y="29"/>
      <point x="156" y="29" type="qcurve" smooth="yes"/>
      <point x="280" y="29"/>
      <point x="370" y="439" type="qcurve"/>
      <point x="402" y="435"/>
      <point x="402" y="379" type="qcurve" smooth="yes"/>
      <point x="402" y="357"/>
      <point x="397" y="326" type="qcurve" smooth="yes"/>
      <point x="380" y="219"/>
      <point x="371" y="126" type="qcurve" smooth="yes"/>
      <point x="370" y="112" type="line"/>
      <point x="370" y="33"/>
      <point x="461" y="33" type="qcurve"/>
      <point x="522" y="38"/>
      <point x="579" y="177"/>
      <point x="579" y="267" type="qcurve" smooth="yes"/>
      <point x="576" y="369"/>
      <point x="565" y="439" type="qcurve"/>
      <point x="518" y="432"/>
      <point x="500" y="432" type="qcurve" smooth="yes"/>
      <point x="449" y="432"/>
      <point x="449" y="482" type="qcurve" smooth="yes"/>
      <point x="449" y="519"/>
      <point x="502" y="619"/>
      <point x="528" y="619" type="qcurve" smooth="yes"/>
      <point x="600" y="619"/>
      <point x="611" y="257" type="qcurve"/>
      <point x="601" y="10"/>
      <point x="460" y="-1" type="qcurve"/>
      <point x="340" y="-1"/>
      <point x="340" y="115" type="qcurve" smooth="yes"/>
      <point x="340" y="175"/>
      <point x="361" y="276" type="qcurve"/>
      <point x="272" y="-4"/>
    </contour>
  </outline>
</glyph>
<glyph name="uni1B5A" format="2">
  <advance width="615"/>
  <unicode hex="1B5A"/>
  <outline>
    <contour>
      <point x="407" y="-585" type="qcurve" smooth="yes"/>
      <point x="397" y="-583" type="line"/>
      <point x="313" y="-534"/>
      <point x="313" y="-436" type="qcurve" smooth="yes"/>
      <point x="313" y="-318"/>
      <point x="427" y="-34"/>
      <point x="560" y="304"/>
      <point x="560" y="415" type="qcurve" smooth="yes"/>
      <point x="560" y="556"/>
      <point x="440" y="556" type="qcurve" smooth="yes"/>
      <point x="373" y="556"/>
      <point x="326" y="509" type="qcurve"/>
      <point x="323" y="517"/>
      <point x="323" y="526" type="qcurve" smooth="yes"/>
      <point x="323" y="536"/>
      <point x="327" y="546" type="qcurve" smooth="yes"/>
      <point x="365" y="591"/>
      <point x="447" y="591" type="qcurve" smooth="yes"/>
      <point x="593" y="591"/>
      <point x="595" y="415" type="qcurve" smooth="yes"/>
      <point x="595" y="408" type="line" smooth="yes"/>
      <point x="595" y="281"/>
      <point x="421" y="-139"/>
      <point x="357" y="-346"/>
      <point x="352" y="-432" type="qcurve"/>
      <point x="352" y="-518"/>
      <point x="424" y="-581" type="qcurve"/>
      <point x="415" y="-585"/>
    </contour>
    <contour>
      <point x="365" y="-10" type="qcurve" smooth="yes"/>
      <point x="351" y="-10"/>
      <point x="343" y="-4" type="qcurve"/>
      <point x="414" y="128"/>
      <point x="414" y="291" type="qcurve" smooth="yes"/>
      <point x="414" y="365"/>
      <point x="348" y="365" type="qcurve" smooth="yes"/>
      <point x="339" y="365" type="line"/>
      <point x="340" y="325" type="line"/>
      <point x="338" y="184"/>
      <point x="284" y="37"/>
      <point x="241" y="37" type="qcurve" smooth="yes"/>
      <point x="214" y="37"/>
      <point x="182" y="61" type="qcurve"/>
      <point x="239" y="225"/>
      <point x="239" y="344" type="qcurve"/>
      <point x="234" y="400"/>
      <point x="182" y="400" type="qcurve" smooth="yes"/>
      <point x="175" y="400" type="line"/>
      <point x="158" y="40"/>
      <point x="55" y="40" type="qcurve" smooth="yes"/>
      <point x="31" y="40"/>
      <point x="20" y="61" type="qcurve"/>
      <point x="70" y="64"/>
      <point x="95" y="112" type="qcurve"/>
      <point x="134" y="218"/>
      <point x="142" y="414" type="qcurve"/>
      <point x="175" y="429"/>
      <point x="189" y="429" type="qcurve" smooth="yes"/>
      <point x="274" y="429"/>
      <point x="274" y="330" type="qcurve"/>
      <point x="253" y="147"/>
      <point x="222" y="77" type="qcurve"/>
      <point x="232" y="72"/>
      <point x="240" y="72" type="qcurve" smooth="yes"/>
      <point x="247" y="73" type="line"/>
      <point x="300" y="73"/>
      <point x="308" y="351" type="qcurve" smooth="yes"/>
      <point x="308" y="382"/>
      <point x="346" y="398" type="qcurve"/>
      <point x="447" y="394"/>
      <point x="447" y="293" type="qcurve"/>
      <point x="446" y="268" type="line"/>
      <point x="413" y="-10"/>
    </contour>
  </outline>
</glyph>
<glyph name="uni1B5B" format="2">
  <advance width="844"/>
  <unicode hex="1B5B"/>
  <outline>
    <contour>
      <point x="798" y="-769" type="line"/>
      <point x="791" y="-769" type="line"/>
      <point x="682" y="-735"/>
      <point x="682" y="-566" type="qcurve"/>
      <point x="683" y="-539" type="line" smooth="yes"/>
      <point x="690" y="-437"/>
      <point x="780" y="146" type="qcurve" smooth="yes"/>
      <point x="789" y="195"/>
      <point x="789" y="234" type="qcurve" smooth="yes"/>
      <point x="789" y="348"/>
      <point x="713" y="382" type="qcurve"/>
      <point x="743" y="327"/>
      <point x="743" y="233" type="qcurve" smooth="yes"/>
      <point x="741" y="185" type="line" smooth="yes"/>
      <point x="732" y="56"/>
      <point x="616" y="-698"/>
      <point x="510" y="-698" type="qcurve" smooth="yes"/>
      <point x="426" y="-698"/>
      <point x="426" y="-596" type="qcurve" smooth="yes"/>
      <point x="426" y="-589" type="line" smooth="yes"/>
      <point x="426" y="-534"/>
      <point x="537" y="-21"/>
      <point x="565" y="-21" type="qcurve"/>
      <point x="468" y="-495"/>
      <point x="465" y="-582" type="qcurve" smooth="yes"/>
      <point x="465" y="-592" type="line" smooth="yes"/>
      <point x="465" y="-653"/>
      <point x="511" y="-659" type="qcurve"/>
      <point x="562" y="-659"/>
      <point x="634" y="-407"/>
      <point x="709" y="112"/>
      <point x="709" y="219" type="qcurve" smooth="yes"/>
      <point x="709" y="344"/>
      <point x="670" y="426" type="qcurve"/>
      <point x="826" y="412"/>
      <point x="826" y="241" type="qcurve" smooth="yes"/>
      <point x="826" y="198"/>
      <point x="816" y="144" type="qcurve" smooth="yes"/>
      <point x="726" y="-481" type="line" smooth="yes"/>
      <point x="717" y="-542"/>
      <point x="717" y="-594" type="qcurve" smooth="yes"/>
      <point x="724" y="-720"/>
      <point x="798" y="-755" type="qcurve"/>
    </contour>
    <contour>
      <point x="176" y="-689" type="qcurve" smooth="yes"/>
      <point x="296" y="-689"/>
      <point x="420" y="-193" type="qcurve"/>
      <point x="198" y="-602"/>
      <point x="159" y="-677" type="qcurve"/>
      <point x="159" y="-689"/>
    </contour>
    <contour>
      <point x="191" y="-725" type="qcurve"/>
      <point x="122" y="-721"/>
      <point x="121" y="-685" type="qcurve"/>
      <point x="154" y="-580"/>
      <point x="416" y="-144" type="qcurve"/>
      <point x="416" y="-136" type="line" smooth="yes"/>
      <point x="416" y="-72"/>
      <point x="347" y="-72" type="qcurve" smooth="yes"/>
      <point x="280" y="-75"/>
      <point x="280" y="-141" type="qcurve" smooth="yes"/>
      <point x="281" y="-202"/>
      <point x="287" y="-232" type="qcurve"/>
      <point x="193" y="-249"/>
      <point x="127" y="-249" type="qcurve" smooth="yes"/>
      <point x="-26" y="-249"/>
      <point x="-26" y="-147" type="qcurve" smooth="yes"/>
      <point x="-26" y="-85"/>
      <point x="56" y="40"/>
      <point x="89" y="40" type="qcurve" smooth="yes"/>
      <point x="96" y="40"/>
      <point x="99" y="36" type="qcurve"/>
      <point x="9" y="-45"/>
      <point x="9" y="-149" type="qcurve"/>
      <point x="16" y="-213"/>
      <point x="129" y="-213" type="qcurve" smooth="yes"/>
      <point x="182" y="-213"/>
      <point x="255" y="-200" type="qcurve"/>
      <point x="249" y="-173"/>
      <point x="249" y="-150" type="qcurve" smooth="yes"/>
      <point x="249" y="-38"/>
      <point x="360" y="-38" type="qcurve" smooth="yes"/>
      <point x="432" y="-41"/>
      <point x="439" y="-109" type="qcurve"/>
      <point x="577" y="235"/>
      <point x="577" y="311" type="qcurve" smooth="yes"/>
      <point x="574" y="381"/>
      <point x="500" y="390" type="qcurve"/>
      <point x="444" y="390"/>
      <point x="415" y="286"/>
      <point x="415" y="158" type="qcurve" smooth="yes"/>
      <point x="415" y="130"/>
      <point x="396" y="128" type="qcurve"/>
      <point x="386" y="294"/>
      <point x="308" y="294" type="qcurve" smooth="yes"/>
      <point x="257" y="293"/>
      <point x="257" y="205" type="qcurve" smooth="yes"/>
      <point x="257" y="186" type="line"/>
      <point x="262" y="83"/>
      <point x="322" y="23" type="qcurve"/>
      <point x="303" y="3"/>
      <point x="265" y="3" type="qcurve" smooth="yes"/>
      <point x="251" y="4" type="line"/>
      <point x="136" y="21"/>
      <point x="136" y="118" type="qcurve" smooth="yes"/>
      <point x="136" y="122" type="line" smooth="yes"/>
      <point x="139" y="194"/>
      <point x="192" y="308" type="qcurve"/>
      <point x="147" y="280"/>
      <point x="120" y="187" type="qcurve"/>
      <point x="112" y="202"/>
      <point x="112" y="219" type="qcurve" smooth="yes"/>
      <point x="124" y="295"/>
      <point x="193" y="340" type="qcurve"/>
      <point x="224" y="340"/>
      <point x="224" y="308" type="qcurve"/>
      <point x="165" y="183"/>
      <point x="165" y="135" type="qcurve" smooth="yes"/>
      <point x="165" y="33"/>
      <point x="279" y="31" type="qcurve"/>
      <point x="228" y="89"/>
      <point x="228" y="196" type="qcurve" smooth="yes"/>
      <point x="228" y="212" type="line"/>
      <point x="232" y="330"/>
      <point x="307" y="330" type="qcurve" smooth="yes"/>
      <point x="360" y="329"/>
      <point x="390" y="288" type="qcurve"/>
      <point x="396" y="424"/>
      <point x="496" y="424" type="qcurve"/>
      <point x="532" y="420" type="line"/>
      <point x="612" y="403"/>
      <point x="612" y="312" type="qcurve" smooth="yes"/>
      <point x="612" y="291" type="line" smooth="yes"/>
      <point x="612" y="241"/>
      <point x="447" y="-170" type="qcurve"/>
      <point x="415" y="-371"/>
      <point x="284" y="-712"/>
    </contour>
  </outline>
</glyph>
<glyph name="uni1B5C" format="2">
  <advance width="424"/>
  <unicode hex="1B5C"/>
  <outline>
    <contour>
      <point x="201" y="71" type="qcurve"/>
      <point x="59" y="90"/>
      <point x="59" y="192" type="qcurve" smooth="yes"/>
      <point x="59" y="257"/>
      <point x="168" y="374"/>
      <point x="239" y="374" type="qcurve" smooth="yes"/>
      <point x="371" y="374"/>
      <point x="376" y="267" type="qcurve"/>
      <point x="376" y="143"/>
    </contour>
    <contour>
      <point x="221" y="98" type="qcurve"/>
      <point x="335" y="178"/>
      <point x="335" y="267" type="qcurve" smooth="yes"/>
      <point x="335" y="273" type="line" smooth="yes"/>
      <point x="335" y="332"/>
      <point x="248" y="341" type="qcurve"/>
      <point x="176" y="341"/>
      <point x="92" y="236"/>
      <point x="92" y="189" type="qcurve" smooth="yes"/>
      <point x="92" y="110"/>
    </contour>
  </outline>
</glyph>
<glyph name="uni1B5D" format="2">
  <advance width="203"/>
  <unicode hex="1B5D"/>
  <outline>
    <contour>
      <point x="27" y="414" type="line"/>
      <point x="169" y="382"/>
      <point x="160" y="224" type="qcurve"/>
      <point x="144" y="222" type="line"/>
      <point x="132" y="271"/>
      <point x="63" y="384"/>
      <point x="20" y="400" type="qcurve"/>
    </contour>
    <contour>
      <point x="27" y="174" type="line"/>
      <point x="169" y="142"/>
      <point x="160" y="-16" type="qcurve"/>
      <point x="144" y="-18" type="line"/>
      <point x="132" y="31"/>
      <point x="63" y="144"/>
      <point x="20" y="160" type="qcurve"/>
    </contour>
  </outline>
</glyph>
<glyph name="uni1B5E" format="2">
  <advance width="254"/>
  <unicode hex="1B5E"/>
  <outline>
    <contour>
      <point x="27" y="414" type="line"/>
      <point x="204" y="333"/>
      <point x="204" y="138" type="qcurve" smooth="yes"/>
      <point x="204" y="89" type="line"/>
      <point x="193" y="-95"/>
      <point x="176" y="-95" type="qcurve"/>
      <point x="176" y="-32" type="line" smooth="yes"/>
      <point x="176" y="185"/>
      <point x="98" y="335"/>
      <point x="20" y="400" type="qcurve"/>
    </contour>
  </outline>
</glyph>
<glyph name="uni1B5F" format="2">
  <advance width="326"/>
  <unicode hex="1B5F"/>
  <outline>
    <contour>
      <point x="27" y="414" type="line"/>
      <point x="204" y="333"/>
      <point x="204" y="138" type="qcurve" smooth="yes"/>
      <point x="204" y="89" type="line"/>
      <point x="193" y="-95"/>
      <point x="176" y="-95" type="qcurve"/>
      <point x="176" y="-32" type="line" smooth="yes"/>
      <point x="176" y="185"/>
      <point x="98" y="335"/>
      <point x="20" y="400" type="qcurve"/>
    </contour>
    <contour>
      <point x="127" y="414" type="line"/>
      <point x="304" y="333"/>
      <point x="304" y="138" type="qcurve" smooth="yes"/>
      <point x="304" y="89" type="line"/>
      <point x="293" y="-95"/>
      <point x="276" y="-95" type="qcurve"/>
      <point x="276" y="-32" type="line" smooth="yes"/>
      <point x="276" y="185"/>
      <point x="198" y="335"/>
      <point x="120" y="400" type="qcurve"/>
    </contour>
  </outline>
</glyph>
<glyph name="uni1B60" format="2">
  <advance width="215"/>
  <unicode hex="1B60"/>
  <outline>
    <contour>
      <point x="70" y="-7" type="qcurve" smooth="yes"/>
      <point x="42" y="-7"/>
      <point x="42" y="6" type="qcurve"/>
      <point x="165" y="67"/>
      <point x="165" y="156" type="qcurve" smooth="yes"/>
      <point x="165" y="216"/>
      <point x="49" y="222" type="qcurve"/>
      <point x="49" y="229" type="line"/>
      <point x="141" y="309"/>
      <point x="142" y="353" type="qcurve" smooth="yes"/>
      <point x="142" y="356" type="line" smooth="yes"/>
      <point x="142" y="381"/>
      <point x="120" y="381" type="qcurve" smooth="yes"/>
      <point x="109" y="380" type="line" smooth="yes"/>
      <point x="75" y="375"/>
      <point x="28" y="330" type="qcurve"/>
      <point x="20" y="336"/>
      <point x="20" y="345" type="qcurve" smooth="yes"/>
      <point x="21" y="350" type="line"/>
      <point x="66" y="409"/>
      <point x="141" y="409" type="qcurve"/>
      <point x="176" y="401"/>
      <point x="176" y="356" type="qcurve" smooth="yes"/>
      <point x="174" y="314"/>
      <point x="94" y="241" type="qcurve"/>
      <point x="195" y="234"/>
      <point x="195" y="155" type="qcurve"/>
      <point x="194" y="139" type="line"/>
      <point x="167" y="7"/>
    </contour>
  </outline>
</glyph>
<glyph name="uni1B65" format="2">
  <advance width="586"/>
  <unicode hex="1B65"/>
  <anchor x="287" y="-200" name="Anchor-1"/>
  <anchor x="313" y="620" name="Anchor-0"/>
  <outline>
    <contour>
      <point x="484" y="54" type="line"/>
      <point x="347" y="77"/>
      <point x="168" y="162"/>
      <point x="66" y="289"/>
      <point x="66" y="357" type="qcurve" smooth="yes"/>
      <point x="66" y="395"/>
      <point x="86" y="422" type="qcurve"/>
      <point x="85" y="405" type="line"/>
      <point x="85" y="294"/>
      <point x="290" y="104"/>
      <point x="488" y="69" type="qcurve"/>
    </contour>
  </outline>
</glyph>
<glyph name="uni1B6B" format="2">
  <advance width="0"/>
  <unicode hex="1B6B"/>
  <anchor x="-182" y="461" name="_Anchor-0"/>
  <outline>
    <contour>
      <point x="-351" y="458" type="qcurve"/>
      <point x="-347" y="471" type="line"/>
      <point x="-236" y="517"/>
      <point x="-236" y="577" type="qcurve" smooth="yes"/>
      <point x="-236" y="592"/>
      <point x="-259" y="592" type="qcurve" smooth="yes"/>
      <point x="-326" y="592"/>
      <point x="-385" y="503"/>
      <point x="-394" y="410" type="qcurve"/>
      <point x="-405" y="447"/>
      <point x="-405" y="478" type="qcurve" smooth="yes"/>
      <point x="-405" y="534"/>
      <point x="-337" y="621"/>
      <point x="-273" y="621" type="qcurve" smooth="yes"/>
      <point x="-212" y="621"/>
      <point x="-210" y="571" type="qcurve" smooth="yes"/>
      <point x="-210" y="482"/>
    </contour>
  </outline>
</glyph>
<glyph name="uni1B6C" format="2">
  <advance width="0"/>
  <unicode hex="1B6C"/>
  <anchor x="-180" y="-93" name="_Anchor-1"/>
  <outline>
    <contour>
      <point x="-351" y="-242" type="qcurve"/>
      <point x="-347" y="-229" type="line"/>
      <point x="-236" y="-183"/>
      <point x="-236" y="-123" type="qcurve" smooth="yes"/>
      <point x="-236" y="-108"/>
      <point x="-259" y="-108" type="qcurve" smooth="yes"/>
      <point x="-326" y="-108"/>
      <point x="-385" y="-197"/>
      <point x="-394" y="-290" type="qcurve"/>
      <point x="-405" y="-253"/>
      <point x="-405" y="-222" type="qcurve" smooth="yes"/>
      <point x="-405" y="-166"/>
      <point x="-337" y="-79"/>
      <point x="-273" y="-79" type="qcurve" smooth="yes"/>
      <point x="-212" y="-79"/>
      <point x="-210" y="-129" type="qcurve" smooth="yes"/>
      <point x="-210" y="-218"/>
    </contour>
  </outline>
</glyph>
<glyph name="uni1B6D" format="2">
  <advance width="0"/>
  <unicode hex="1B6D"/>
  <anchor x="-275" y="475" name="_Anchor-0"/>
  <outline>
    <contour>
      <point x="-322" y="845" type="line"/>
      <point x="-208" y="842"/>
      <point x="-204" y="724" type="qcurve" smooth="yes"/>
      <point x="-204" y="613"/>
      <point x="-302" y="468" type="qcurve"/>
      <point x="-317" y="476" type="line"/>
      <point x="-238" y="617"/>
      <point x="-238" y="717" type="qcurve" smooth="yes"/>
      <point x="-238" y="815"/>
      <point x="-326" y="826" type="qcurve"/>
    </contour>
    <contour>
      <point x="-16" y="658" type="line"/>
      <point x="-120" y="681"/>
      <point x="-355" y="655"/>
      <point x="-433" y="577" type="qcurve"/>
      <point x="-442" y="565" type="line"/>
      <point x="-440" y="595"/>
      <point x="-420" y="620" type="qcurve" smooth="yes"/>
      <point x="-374" y="673"/>
      <point x="-135" y="716"/>
      <point x="-14" y="676" type="qcurve"/>
    </contour>
  </outline>
</glyph>
<glyph name="uni1B6E" format="2">
  <advance width="0"/>
  <unicode hex="1B6E"/>
  <anchor x="-253" y="594" name="_Anchor-0"/>
  <outline>
    <contour>
      <point x="-16" y="658" type="line"/>
      <point x="-120" y="681"/>
      <point x="-355" y="655"/>
      <point x="-433" y="577" type="qcurve"/>
      <point x="-442" y="565" type="line"/>
      <point x="-440" y="595"/>
      <point x="-420" y="620" type="qcurve" smooth="yes"/>
      <point x="-374" y="673"/>
      <point x="-135" y="716"/>
      <point x="-14" y="676" type="qcurve"/>
    </contour>
  </outline>
</glyph>
<glyph name="uni1B6F" format="2">
  <advance width="0"/>
  <unicode hex="1B6F"/>
  <anchor x="-278" y="489" name="_Anchor-0"/>
  <outline>
    <contour>
      <point x="-397" y="509" type="line"/>
      <point x="-336" y="620"/>
      <point x="-228" y="759" type="qcurve"/>
      <point x="-112" y="742"/>
      <point x="-112" y="620" type="qcurve"/>
      <point x="-118" y="561"/>
      <point x="-160" y="557" type="qcurve"/>
      <point x="-144" y="574"/>
      <point x="-144" y="627" type="qcurve" smooth="yes"/>
      <point x="-144" y="701"/>
      <point x="-206" y="726" type="qcurve"/>
      <point x="-299" y="615"/>
      <point x="-382" y="499" type="qcurve"/>
    </contour>
  </outline>
</glyph>
<glyph name="uni1B70" format="2">
  <advance width="0"/>
  <unicode hex="1B70"/>
  <anchor x="-276" y="475" name="_Anchor-0"/>
  <outline>
    <contour>
      <point x="-243" y="924" type="line"/>
      <point x="-161" y="811"/>
      <point x="-217" y="526" type="qcurve"/>
      <point x="-232" y="527" type="line"/>
      <point x="-203" y="807"/>
      <point x="-260" y="914" type="qcurve"/>
    </contour>
    <contour>
      <point x="-16" y="728" type="line"/>
      <point x="-120" y="751"/>
      <point x="-355" y="725"/>
      <point x="-433" y="647" type="qcurve"/>
      <point x="-442" y="635" type="line"/>
      <point x="-440" y="665"/>
      <point x="-420" y="690" type="qcurve" smooth="yes"/>
      <point x="-374" y="743"/>
      <point x="-135" y="786"/>
      <point x="-14" y="746" type="qcurve"/>
    </contour>
    <contour>
      <point x="-397" y="509" type="line"/>
      <point x="-336" y="620"/>
      <point x="-228" y="759" type="qcurve"/>
      <point x="-69" y="716"/>
      <point x="-69" y="594" type="qcurve"/>
      <point x="-75" y="535"/>
      <point x="-117" y="531" type="qcurve"/>
      <point x="-101" y="548"/>
      <point x="-101" y="601" type="qcurve" smooth="yes"/>
      <point x="-101" y="675"/>
      <point x="-206" y="726" type="qcurve"/>
      <point x="-299" y="615"/>
      <point x="-382" y="499" type="qcurve"/>
    </contour>
  </outline>
</glyph>
<glyph name="uni1B71" format="2">
  <advance width="0"/>
  <unicode hex="1B71"/>
  <anchor x="-272" y="492" name="_Anchor-0"/>
  <outline>
    <contour>
      <point x="-16" y="728" type="line"/>
      <point x="-120" y="751"/>
      <point x="-355" y="725"/>
      <point x="-433" y="647" type="qcurve"/>
      <point x="-442" y="635" type="line"/>
      <point x="-440" y="665"/>
      <point x="-420" y="690" type="qcurve" smooth="yes"/>
      <point x="-374" y="743"/>
      <point x="-135" y="786"/>
      <point x="-14" y="746" type="qcurve"/>
    </contour>
    <contour>
      <point x="-397" y="509" type="line"/>
      <point x="-336" y="620"/>
      <point x="-228" y="759" type="qcurve"/>
      <point x="-112" y="742"/>
      <point x="-112" y="620" type="qcurve"/>
      <point x="-118" y="561"/>
      <point x="-160" y="557" type="qcurve"/>
      <point x="-144" y="574"/>
      <point x="-144" y="627" type="qcurve" smooth="yes"/>
      <point x="-144" y="701"/>
      <point x="-206" y="726" type="qcurve"/>
      <point x="-299" y="615"/>
      <point x="-382" y="499" type="qcurve"/>
    </contour>
  </outline>
</glyph>
<glyph name="uni1B72" format="2">
  <advance width="0"/>
  <unicode hex="1B72"/>
  <anchor x="-276" y="486" name="_Anchor-0"/>
  <outline>
    <contour>
      <point x="-112" y="749" type="line"/>
      <point x="-173" y="638"/>
      <point x="-281" y="499" type="qcurve"/>
      <point x="-397" y="516"/>
      <point x="-397" y="638" type="qcurve"/>
      <point x="-391" y="697"/>
      <point x="-349" y="701" type="qcurve"/>
      <point x="-365" y="684"/>
      <point x="-365" y="631" type="qcurve" smooth="yes"/>
      <point x="-365" y="557"/>
      <point x="-303" y="532" type="qcurve"/>
      <point x="-210" y="643"/>
      <point x="-127" y="759" type="qcurve"/>
    </contour>
  </outline>
</glyph>
<glyph name="uni1B73" format="2">
  <advance width="0"/>
  <unicode hex="1B73"/>
  <anchor x="-250" y="487" name="_Anchor-0"/>
  <outline>
    <contour>
      <point x="-260" y="626" type="qcurve"/>
      <point x="-265" y="695"/>
      <point x="-342" y="695" type="qcurve" smooth="yes"/>
      <point x="-410" y="693"/>
      <point x="-416" y="629" type="qcurve"/>
      <point x="-416" y="622" type="line" smooth="yes"/>
      <point x="-416" y="549"/>
      <point x="-299" y="532" type="qcurve"/>
      <point x="-261" y="558"/>
    </contour>
    <contour>
      <point x="-445" y="623" type="qcurve" smooth="yes"/>
      <point x="-445" y="666"/>
      <point x="-390" y="727"/>
      <point x="-336" y="727" type="qcurve" smooth="yes"/>
      <point x="-281" y="725"/>
      <point x="-233" y="672"/>
      <point x="-233" y="623" type="qcurve" smooth="yes"/>
      <point x="-235" y="548"/>
      <point x="-288" y="510" type="qcurve" smooth="yes"/>
      <point x="-292" y="507"/>
      <point x="-294" y="507" type="qcurve" smooth="yes"/>
      <point x="-445" y="517"/>
    </contour>
  </outline>
</glyph>
<glyph name="uni1B74" format="2">
  <advance width="586"/>
  <unicode hex="1B74"/>
  <anchor x="312" y="-200" name="Anchor-1"/>
  <anchor x="294" y="630" name="Anchor-0"/>
  <outline>
    <contour>
      <point x="288" y="297"/>
      <point x="187" y="82"/>
      <point x="106" y="-19"/>
      <point x="79" y="-8" type="qcurve"/>
      <point x="160" y="95"/>
      <point x="261" y="317"/>
      <point x="282" y="385" type="qcurve"/>
      <point x="297" y="358"/>
    </contour>
    <contour>
      <point x="242" y="414" type="line"/>
      <point x="375" y="352"/>
      <point x="494" y="51"/>
      <point x="470" y="0" type="qcurve"/>
      <point x="423" y="168"/>
      <point x="313" y="335"/>
      <point x="235" y="400" type="qcurve"/>
    </contour>
  </outline>
</glyph>
<glyph name="uni1B76" format="2">
  <advance width="586"/>
  <unicode hex="1B76"/>
  <anchor x="312" y="-200" name="Anchor-1"/>
  <anchor x="294" y="630" name="Anchor-0"/>
  <outline>
    <contour>
      <point x="288" y="297"/>
      <point x="187" y="82"/>
      <point x="106" y="-19"/>
      <point x="79" y="-8" type="qcurve"/>
      <point x="160" y="95"/>
      <point x="261" y="317"/>
      <point x="282" y="385" type="qcurve"/>
      <point x="297" y="358"/>
    </contour>
    <contour>
      <point x="242" y="414" type="line"/>
      <point x="375" y="352"/>
      <point x="494" y="51"/>
      <point x="470" y="0" type="qcurve"/>
      <point x="423" y="168"/>
      <point x="313" y="335"/>
      <point x="235" y="400" type="qcurve"/>
    </contour>
    <contour>
      <point x="289" y="-25" type="qcurve"/>
      <point x="277" y="92"/>
      <point x="189" y="211" type="qcurve"/>
      <point x="160" y="244" type="line" smooth="yes"/>
      <point x="134" y="269"/>
      <point x="82" y="302" type="qcurve"/>
      <point x="92" y="317"/>
      <point x="112" y="317" type="qcurve" smooth="yes"/>
      <point x="136" y="317"/>
      <point x="177" y="278" type="qcurve"/>
      <point x="210" y="238" type="line" smooth="yes"/>
      <point x="246" y="190"/>
      <point x="295" y="48"/>
      <point x="299" y="11" type="qcurve" smooth="yes"/>
      <point x="300" y="-3" type="line" smooth="yes"/>
      <point x="300" y="-25"/>
    </contour>
  </outline>
</glyph>
<glyph name="uni1B77" format="2">
  <advance width="585"/>
  <unicode hex="1B77"/>
  <anchor x="305" y="-220" name="Anchor-1"/>
  <anchor x="305" y="610" name="Anchor-0"/>
  <outline>
    <contour>
      <point x="281" y="71" type="qcurve"/>
      <point x="139" y="90"/>
      <point x="139" y="192" type="qcurve" smooth="yes"/>
      <point x="139" y="257"/>
      <point x="248" y="374"/>
      <point x="319" y="374" type="qcurve" smooth="yes"/>
      <point x="451" y="374"/>
      <point x="456" y="267" type="qcurve"/>
      <point x="456" y="143"/>
    </contour>
    <contour>
      <point x="301" y="98" type="qcurve"/>
      <point x="415" y="178"/>
      <point x="415" y="267" type="qcurve" smooth="yes"/>
      <point x="415" y="273" type="line" smooth="yes"/>
      <point x="415" y="332"/>
      <point x="328" y="341" type="qcurve"/>
      <point x="256" y="341"/>
      <point x="172" y="236"/>
      <point x="172" y="189" type="qcurve" smooth="yes"/>
      <point x="172" y="110"/>
    </contour>
    <contour>
      <point x="409" y="-25" type="qcurve"/>
      <point x="397" y="92"/>
      <point x="309" y="211" type="qcurve"/>
      <point x="280" y="244" type="line" smooth="yes"/>
      <point x="254" y="269"/>
      <point x="202" y="302" type="qcurve"/>
      <point x="212" y="317"/>
      <point x="232" y="317" type="qcurve" smooth="yes"/>
      <point x="256" y="317"/>
      <point x="297" y="278" type="qcurve"/>
      <point x="330" y="238" type="line" smooth="yes"/>
      <point x="366" y="190"/>
      <point x="415" y="48"/>
      <point x="419" y="11" type="qcurve" smooth="yes"/>
      <point x="420" y="-3" type="line" smooth="yes"/>
      <point x="420" y="-25"/>
    </contour>
  </outline>
</glyph>
<glyph name="uni1B78" format="2">
  <advance width="586"/>
  <unicode hex="1B78"/>
  <anchor x="305" y="-140" name="Anchor-1"/>
  <anchor x="305" y="610" name="Anchor-0"/>
  <outline>
    <contour>
      <point x="553" y="232" type="line"/>
      <point x="455" y="268"/>
      <point x="159" y="268"/>
      <point x="68" y="179" type="qcurve"/>
      <point x="58" y="165" type="line"/>
      <point x="60" y="199"/>
      <point x="84" y="228" type="qcurve" smooth="yes"/>
      <point x="137" y="288"/>
      <point x="418" y="313"/>
      <point x="560" y="246" type="qcurve"/>
    </contour>
  </outline>
</glyph>
<glyph name="uni1B79" format="2">
  <advance width="586"/>
  <unicode hex="1B79"/>
  <anchor x="287" y="-200" name="Anchor-1"/>
  <anchor x="313" y="620" name="Anchor-0"/>
  <outline>
    <contour>
      <point x="288" y="307"/>
      <point x="187" y="92"/>
      <point x="106" y="-9"/>
      <point x="79" y="2" type="qcurve"/>
      <point x="160" y="105"/>
      <point x="261" y="327"/>
      <point x="282" y="395" type="qcurve"/>
      <point x="297" y="368"/>
    </contour>
    <contour>
      <point x="553" y="12" type="line"/>
      <point x="455" y="48"/>
      <point x="159" y="48"/>
      <point x="68" y="-41" type="qcurve"/>
      <point x="58" y="-55" type="line"/>
      <point x="60" y="-21"/>
      <point x="84" y="8" type="qcurve" smooth="yes"/>
      <point x="137" y="68"/>
      <point x="418" y="93"/>
      <point x="560" y="26" type="qcurve"/>
    </contour>
  </outline>
</glyph>
<glyph name="uni1B7A" format="2">
  <advance width="586"/>
  <unicode hex="1B7A"/>
  <anchor x="305" y="-140" name="Anchor-1"/>
  <anchor x="305" y="610" name="Anchor-0"/>
  <outline>
    <contour>
      <point x="389" y="75" type="qcurve"/>
      <point x="377" y="192"/>
      <point x="289" y="311" type="qcurve"/>
      <point x="260" y="344" type="line" smooth="yes"/>
      <point x="234" y="369"/>
      <point x="182" y="402" type="qcurve"/>
      <point x="192" y="417"/>
      <point x="212" y="417" type="qcurve" smooth="yes"/>
      <point x="236" y="417"/>
      <point x="277" y="378" type="qcurve"/>
      <point x="310" y="338" type="line" smooth="yes"/>
      <point x="346" y="290"/>
      <point x="395" y="148"/>
      <point x="399" y="111" type="qcurve" smooth="yes"/>
      <point x="400" y="97" type="line" smooth="yes"/>
      <point x="400" y="75"/>
    </contour>
    <contour>
      <point x="553" y="232" type="line"/>
      <point x="455" y="268"/>
      <point x="159" y="268"/>
      <point x="68" y="179" type="qcurve"/>
      <point x="58" y="165" type="line"/>
      <point x="60" y="199"/>
      <point x="84" y="228" type="qcurve" smooth="yes"/>
      <point x="137" y="288"/>
      <point x="418" y="313"/>
      <point x="560" y="246" type="qcurve"/>
    </contour>
  </outline>
</glyph>
<glyph name="uni1B7C" format="2">
  <advance width="586"/>
  <unicode hex="1B7C"/>
  <anchor x="304" y="-120" name="Anchor-1"/>
  <anchor x="298" y="580" name="Anchor-0"/>
  <outline>
    <contour>
      <point x="239" y="168" type="qcurve"/>
      <point x="243" y="181" type="line"/>
      <point x="354" y="227"/>
      <point x="354" y="287" type="qcurve" smooth="yes"/>
      <point x="354" y="302"/>
      <point x="331" y="302" type="qcurve" smooth="yes"/>
      <point x="264" y="302"/>
      <point x="205" y="213"/>
      <point x="196" y="120" type="qcurve"/>
      <point x="185" y="157"/>
      <point x="185" y="188" type="qcurve" smooth="yes"/>
      <point x="185" y="244"/>
      <point x="253" y="331"/>
      <point x="317" y="331" type="qcurve" smooth="yes"/>
      <point x="378" y="331"/>
      <point x="380" y="281" type="qcurve" smooth="yes"/>
      <point x="380" y="192"/>
    </contour>
  </outline>
</glyph>
<glyph name="cereg1" format="2">
  <advance width="0"/>
  <outline>
    <contour>
      <point x="419" y="-425" type="qcurve"/>
      <point x="418" y="-286"/>
      <point x="378" y="-146"/>
      <point x="322" y="-141" type="qcurve"/>
      <point x="316" y="-141" type="line" smooth="yes"/>
      <point x="262" y="-141"/>
      <point x="231" y="-217" type="qcurve"/>
      <point x="148" y="-187"/>
      <point x="148" y="-132" type="qcurve" smooth="yes"/>
      <point x="148" y="-82"/>
      <point x="241" y="-16"/>
      <point x="279" y="-16" type="qcurve"/>
      <point x="285" y="-17" type="line"/>
      <point x="186" y="-74"/>
      <point x="182" y="-120" type="qcurve"/>
      <point x="182" y="-128" type="line" smooth="yes"/>
      <point x="182" y="-168"/>
      <point x="220" y="-178" type="qcurve"/>
      <point x="250" y="-122"/>
      <point x="298" y="-113" type="qcurve"/>
      <point x="320" y="-111" type="line"/>
      <point x="436" y="-111"/>
      <point x="436" y="-326" type="qcurve"/>
      <point x="434" y="-378" type="line" smooth="yes"/>
      <point x="434" y="-409"/>
    </contour>
  </outline>
</glyph>
<glyph name="cereg2" format="2">
  <advance width="0"/>
  <outline>
    <contour>
      <point x="235" y="678" type="qcurve" smooth="yes"/>
      <point x="382" y="678"/>
      <point x="386" y="530" type="qcurve" smooth="yes"/>
      <point x="386" y="419"/>
      <point x="298" y="328" type="qcurve"/>
      <point x="292" y="341" type="line"/>
      <point x="352" y="423"/>
      <point x="352" y="523" type="qcurve" smooth="yes"/>
      <point x="352" y="651"/>
      <point x="211" y="651" type="qcurve" smooth="yes"/>
      <point x="197" y="651" type="line" smooth="yes"/>
      <point x="169" y="651"/>
      <point x="143" y="638" type="qcurve"/>
      <point x="136" y="651" type="line"/>
      <point x="172" y="678"/>
    </contour>
  </outline>
</glyph>
<glyph name="cereg4" format="2">
  <advance width="0"/>
  <outline>
    <contour>
      <point x="281" y="-291" type="line"/>
      <point x="221" y="-265"/>
      <point x="148" y="-187"/>
      <point x="148" y="-132" type="qcurve" smooth="yes"/>
      <point x="148" y="-82"/>
      <point x="241" y="-16"/>
      <point x="279" y="-16" type="qcurve"/>
      <point x="285" y="-17" type="line"/>
      <point x="186" y="-74"/>
      <point x="182" y="-120" type="qcurve"/>
      <point x="182" y="-128" type="line" smooth="yes"/>
      <point x="182" y="-168"/>
      <point x="227" y="-232"/>
      <point x="290" y="-276" type="qcurve"/>
    </contour>
  </outline>
</glyph>
<glyph name="uni1B03.2" format="2">
  <advance width="0"/>
  <outline>
    <contour>
      <point x="-412" y="979" type="qcurve"/>
      <point x="-459" y="918"/>
      <point x="-459" y="858" type="qcurve" smooth="yes"/>
      <point x="-460" y="761"/>
      <point x="-334" y="610"/>
      <point x="-216" y="520" type="qcurve"/>
      <point x="-223" y="506" type="line"/>
      <point x="-370" y="597"/>
      <point x="-496" y="767"/>
      <point x="-497" y="858" type="qcurve" smooth="yes"/>
      <point x="-494" y="949"/>
    </contour>
  </outline>
</glyph>
<glyph name="uni1B03.3" format="2">
  <advance width="0"/>
  <outline>
    <contour>
      <point x="-110" y="799" type="line"/>
      <point x="-353" y="837"/>
      <point x="-500" y="892"/>
      <point x="-495" y="933" type="qcurve"/>
      <point x="-436" y="882"/>
      <point x="-106" y="814" type="qcurve"/>
    </contour>
  </outline>
</glyph>
<glyph name="uni1B0E.conj" format="2">
  <advance width="0"/>
  <outline>
    <contour>
      <point x="-91" y="-441" type="qcurve"/>
      <point x="-130" y="-425"/>
      <point x="-178" y="-420" type="qcurve" smooth="yes"/>
      <point x="-288" y="-408"/>
      <point x="-313" y="-541"/>
      <point x="-193" y="-610"/>
      <point x="-155" y="-640" type="qcurve"/>
      <point x="-117" y="-519"/>
    </contour>
    <contour>
      <point x="-84" y="-439" type="qcurve"/>
      <point x="-56" y="-252"/>
      <point x="-56" y="-209" type="qcurve" smooth="yes"/>
      <point x="-60" y="-123"/>
      <point x="-127" y="-123" type="qcurve" smooth="yes"/>
      <point x="-156" y="-123"/>
      <point x="-180" y="-178"/>
      <point x="-180" y="-243" type="qcurve" smooth="yes"/>
      <point x="-179" y="-279" type="line" smooth="yes"/>
      <point x="-179" y="-307"/>
      <point x="-198" y="-309" type="qcurve"/>
      <point x="-208" y="-143"/>
      <point x="-286" y="-143" type="qcurve" smooth="yes"/>
      <point x="-337" y="-144"/>
      <point x="-337" y="-232" type="qcurve" smooth="yes"/>
      <point x="-337" y="-251" type="line"/>
      <point x="-332" y="-354"/>
      <point x="-272" y="-414" type="qcurve"/>
      <point x="-291" y="-434"/>
      <point x="-329" y="-434" type="qcurve" smooth="yes"/>
      <point x="-343" y="-433" type="line"/>
      <point x="-458" y="-416"/>
      <point x="-458" y="-319" type="qcurve" smooth="yes"/>
      <point x="-458" y="-315" type="line" smooth="yes"/>
      <point x="-455" y="-243"/>
      <point x="-402" y="-129" type="qcurve"/>
      <point x="-447" y="-157"/>
      <point x="-474" y="-250" type="qcurve"/>
      <point x="-482" y="-235"/>
      <point x="-482" y="-218" type="qcurve" smooth="yes"/>
      <point x="-470" y="-142"/>
      <point x="-401" y="-97" type="qcurve"/>
      <point x="-370" y="-97"/>
      <point x="-370" y="-129" type="qcurve"/>
      <point x="-429" y="-254"/>
      <point x="-429" y="-302" type="qcurve" smooth="yes"/>
      <point x="-429" y="-404"/>
      <point x="-315" y="-406" type="qcurve"/>
      <point x="-366" y="-348"/>
      <point x="-366" y="-241" type="qcurve" smooth="yes"/>
      <point x="-366" y="-225" type="line"/>
      <point x="-362" y="-107"/>
      <point x="-287" y="-107" type="qcurve" smooth="yes"/>
      <point x="-231" y="-108"/>
      <point x="-205" y="-160" type="qcurve"/>
      <point x="-193" y="-91"/>
      <point x="-129" y="-91" type="qcurve" smooth="yes"/>
      <point x="-110" y="-92" type="line"/>
      <point x="-29" y="-103"/>
      <point x="-20" y="-205" type="qcurve"/>
      <point x="-21" y="-265"/>
      <point x="-58" y="-439"/>
    </contour>
    <contour>
      <point x="-43" y="-541" type="qcurve"/>
      <point x="58" y="-548"/>
      <point x="58" y="-627" type="qcurve"/>
      <point x="57" y="-643" type="line"/>
      <point x="30" y="-775"/>
      <point x="-67" y="-789" type="qcurve" smooth="yes"/>
      <point x="-95" y="-789"/>
      <point x="-95" y="-776" type="qcurve"/>
      <point x="28" y="-715"/>
      <point x="28" y="-626" type="qcurve" smooth="yes"/>
      <point x="28" y="-566"/>
      <point x="-83" y="-565" type="qcurve"/>
      <point x="-83" y="-558" type="line"/>
      <point x="-51" y="-523"/>
      <point x="-39" y="-469"/>
      <point x="-68" y="-452" type="qcurve"/>
      <point x="-95" y="-554"/>
      <point x="-135" y="-665" type="qcurve"/>
      <point x="-134" y="-736"/>
      <point x="-179" y="-777" type="qcurve"/>
      <point x="-194" y="-776"/>
      <point x="-194" y="-760" type="qcurve" smooth="yes"/>
      <point x="-192" y="-739"/>
      <point x="-168" y="-668" type="qcurve"/>
      <point x="-181" y="-646"/>
      <point x="-344" y="-556"/>
      <point x="-320" y="-386"/>
      <point x="-179" y="-396" type="qcurve" smooth="yes"/>
      <point x="-122" y="-400"/>
      <point x="-83" y="-418" type="qcurve"/>
      <point x="-31" y="-265"/>
      <point x="-34" y="-311" type="qcurve"/>
      <point x="-62" y="-430" type="line"/>
      <point x="9" y="-469"/>
    </contour>
  </outline>
</glyph>
<glyph name="uni1B13.ra" format="2">
  <advance width="771"/>
  <anchor x="984" y="-453" name="Anchor-2"/>
  <anchor x="686" y="0" name="Anchor-1"/>
  <anchor x="626" y="490" name="Anchor-0"/>
  <outline>
    <contour>
      <point x="343" y="35" type="qcurve"/>
      <point x="378" y="48"/>
      <point x="380" y="79" type="qcurve" smooth="yes"/>
      <point x="380" y="136"/>
      <point x="300" y="174" type="qcurve"/>
      <point x="325" y="35"/>
    </contour>
    <contour>
      <point x="330" y="-5" type="qcurve"/>
      <point x="300" y="-5"/>
      <point x="265" y="193" type="qcurve"/>
      <point x="242" y="195" type="line" smooth="yes"/>
      <point x="225" y="195"/>
      <point x="208" y="190" type="qcurve"/>
      <point x="182" y="127"/>
      <point x="149" y="-5" type="qcurve"/>
      <point x="106" y="4"/>
      <point x="102" y="36" type="qcurve"/>
      <point x="103" y="128"/>
      <point x="187" y="219" type="qcurve"/>
      <point x="201" y="285"/>
      <point x="202" y="323" type="qcurve" smooth="yes"/>
      <point x="202" y="387"/>
      <point x="154" y="389" type="qcurve" smooth="yes"/>
      <point x="119" y="388"/>
      <point x="66" y="303"/>
      <point x="66" y="234" type="qcurve" smooth="yes"/>
      <point x="66" y="213"/>
      <point x="72" y="195" type="qcurve"/>
      <point x="40" y="195"/>
      <point x="40" y="247" type="qcurve" smooth="yes"/>
      <point x="41" y="272" type="line"/>
      <point x="66" y="421"/>
      <point x="161" y="421" type="qcurve" smooth="yes"/>
      <point x="232" y="419"/>
      <point x="232" y="335" type="qcurve" smooth="yes"/>
      <point x="231" y="284"/>
      <point x="217" y="221" type="qcurve"/>
      <point x="232" y="225"/>
      <point x="246" y="225" type="qcurve" smooth="yes"/>
      <point x="262" y="224" type="line"/>
      <point x="258" y="246"/>
      <point x="258" y="273" type="qcurve" smooth="yes"/>
      <point x="258" y="428"/>
      <point x="383" y="428" type="qcurve"/>
      <point x="521" y="414"/>
      <point x="566" y="329" type="qcurve"/>
      <point x="576" y="421"/>
      <point x="630" y="421" type="qcurve" smooth="yes"/>
      <point x="731" y="414"/>
      <point x="731" y="312" type="qcurve" smooth="yes"/>
      <point x="731" y="246"/>
      <point x="688" y="1"/>
      <point x="663" y="1" type="qcurve"/>
      <point x="688" y="192"/>
      <point x="692" y="274" type="qcurve" smooth="yes"/>
      <point x="693" y="307" type="line" smooth="yes"/>
      <point x="693" y="380"/>
      <point x="639" y="388" type="qcurve"/>
      <point x="634" y="388" type="line" smooth="yes"/>
      <point x="601" y="388"/>
      <point x="593" y="287" type="qcurve"/>
      <point x="591" y="211"/>
      <point x="580" y="31"/>
      <point x="565" y="1"/>
      <point x="553" y="1" type="qcurve"/>
      <point x="558" y="138"/>
      <point x="558" y="242" type="qcurve" smooth="yes"/>
      <point x="558" y="249" type="line"/>
      <point x="554" y="376"/>
      <point x="379" y="396" type="qcurve"/>
      <point x="372" y="396" type="line" smooth="yes"/>
      <point x="292" y="396"/>
      <point x="292" y="254" type="qcurve" smooth="yes"/>
      <point x="292" y="235"/>
      <point x="295" y="213" type="qcurve"/>
      <point x="414" y="156"/>
      <point x="414" y="79" type="qcurve" smooth="yes"/>
      <point x="414" y="11"/>
    </contour>
    <contour>
      <point x="357" y="-678" type="qcurve" smooth="yes"/>
      <point x="195" y="-678"/>
      <point x="-4" y="-481"/>
      <point x="-4" y="-315" type="qcurve" smooth="yes"/>
      <point x="-4" y="-225"/>
      <point x="66" y="-19"/>
      <point x="99" y="-11" type="qcurve"/>
      <point x="35" y="-172"/>
      <point x="35" y="-301" type="qcurve" smooth="yes"/>
      <point x="35" y="-457"/>
      <point x="195" y="-631"/>
      <point x="354" y="-638" type="qcurve"/>
      <point x="504" y="-638"/>
      <point x="682" y="-470"/>
      <point x="687" y="-322" type="qcurve"/>
      <point x="687" y="-298" type="line" smooth="yes"/>
      <point x="687" y="-154"/>
      <point x="633" y="-30" type="qcurve"/>
      <point x="723" y="-99"/>
      <point x="723" y="-287" type="qcurve"/>
      <point x="722" y="-321" type="line" smooth="yes"/>
      <point x="716" y="-485"/>
      <point x="524" y="-678"/>
    </contour>
  </outline>
</glyph>
<glyph name="uni1B13.td" format="2">
  <advance width="974"/>
  <anchor x="686" y="0" name="Anchor-1"/>
  <anchor x="344" y="490" name="Anchor-0"/>
  <outline>
    <contour>
      <point x="343" y="35" type="qcurve"/>
      <point x="378" y="48"/>
      <point x="380" y="79" type="qcurve" smooth="yes"/>
      <point x="380" y="136"/>
      <point x="300" y="174" type="qcurve"/>
      <point x="325" y="35"/>
    </contour>
    <contour>
      <point x="330" y="-5" type="qcurve"/>
      <point x="300" y="-5"/>
      <point x="265" y="193" type="qcurve"/>
      <point x="242" y="195" type="line" smooth="yes"/>
      <point x="225" y="195"/>
      <point x="208" y="190" type="qcurve"/>
      <point x="182" y="127"/>
      <point x="149" y="-5" type="qcurve"/>
      <point x="106" y="4"/>
      <point x="102" y="36" type="qcurve"/>
      <point x="103" y="128"/>
      <point x="187" y="219" type="qcurve"/>
      <point x="201" y="285"/>
      <point x="202" y="323" type="qcurve" smooth="yes"/>
      <point x="202" y="387"/>
      <point x="154" y="389" type="qcurve" smooth="yes"/>
      <point x="119" y="388"/>
      <point x="66" y="303"/>
      <point x="66" y="234" type="qcurve" smooth="yes"/>
      <point x="66" y="213"/>
      <point x="72" y="195" type="qcurve"/>
      <point x="40" y="195"/>
      <point x="40" y="247" type="qcurve" smooth="yes"/>
      <point x="41" y="272" type="line"/>
      <point x="66" y="421"/>
      <point x="161" y="421" type="qcurve" smooth="yes"/>
      <point x="232" y="419"/>
      <point x="232" y="335" type="qcurve" smooth="yes"/>
      <point x="231" y="284"/>
      <point x="217" y="221" type="qcurve"/>
      <point x="232" y="225"/>
      <point x="246" y="225" type="qcurve" smooth="yes"/>
      <point x="262" y="224" type="line"/>
      <point x="258" y="246"/>
      <point x="258" y="273" type="qcurve" smooth="yes"/>
      <point x="258" y="428"/>
      <point x="383" y="428" type="qcurve"/>
      <point x="521" y="414"/>
      <point x="566" y="329" type="qcurve"/>
      <point x="593" y="287" type="line"/>
      <point x="591" y="211"/>
      <point x="580" y="31"/>
      <point x="565" y="1"/>
      <point x="553" y="1" type="qcurve"/>
      <point x="558" y="138"/>
      <point x="558" y="242" type="qcurve" smooth="yes"/>
      <point x="558" y="249" type="line"/>
      <point x="554" y="376"/>
      <point x="379" y="396" type="qcurve"/>
      <point x="372" y="396" type="line" smooth="yes"/>
      <point x="292" y="396"/>
      <point x="292" y="254" type="qcurve" smooth="yes"/>
      <point x="292" y="235"/>
      <point x="295" y="213" type="qcurve"/>
      <point x="414" y="156"/>
      <point x="414" y="79" type="qcurve" smooth="yes"/>
      <point x="414" y="11"/>
    </contour>
    <contour>
      <point x="593" y="287" type="qcurve" smooth="yes"/>
      <point x="591" y="211"/>
      <point x="580" y="31"/>
      <point x="565" y="1"/>
      <point x="553" y="1" type="qcurve"/>
      <point x="558" y="138"/>
      <point x="558" y="260" type="qcurve" smooth="yes"/>
      <point x="558" y="267" type="line"/>
      <point x="576" y="329" type="line" smooth="yes"/>
      <point x="579" y="352"/>
      <point x="591" y="368" type="qcurve" smooth="yes"/>
      <point x="622" y="420"/>
      <point x="766" y="420" type="qcurve"/>
      <point x="942" y="402"/>
      <point x="942" y="233" type="qcurve" smooth="yes"/>
      <point x="942" y="150"/>
      <point x="816" y="2"/>
      <point x="753" y="2" type="qcurve" smooth="yes"/>
      <point x="705" y="2"/>
      <point x="661" y="49" type="qcurve"/>
      <point x="692" y="45"/>
      <point x="719" y="45" type="qcurve" smooth="yes"/>
      <point x="809" y="45"/>
      <point x="910" y="148"/>
      <point x="910" y="228" type="qcurve" smooth="yes"/>
      <point x="910" y="366"/>
      <point x="773" y="385" type="qcurve"/>
      <point x="759" y="385" type="line" smooth="yes"/>
      <point x="695" y="385"/>
      <point x="607" y="353"/>
      <point x="601" y="334" type="qcurve" smooth="yes"/>
      <point x="596" y="322"/>
    </contour>
  </outline>
</glyph>
<glyph name="uni1B14.conj" format="2">
  <advance width="0"/>
  <anchor x="-59" y="-489" name="Anchor-4"/>
  <outline>
    <contour>
      <point x="-238" y="-392" type="qcurve"/>
      <point x="-203" y="-379"/>
      <point x="-201" y="-348" type="qcurve" smooth="yes"/>
      <point x="-201" y="-311"/>
      <point x="-284" y="-293" type="qcurve"/>
      <point x="-259" y="-392"/>
    </contour>
    <contour>
      <point x="-84" y="-439" type="qcurve"/>
      <point x="-66" y="-302"/>
      <point x="-57" y="-207" type="qcurve"/>
      <point x="-63" y="-138"/>
      <point x="-195" y="-121" type="qcurve"/>
      <point x="-202" y="-121" type="line" smooth="yes"/>
      <point x="-289" y="-121"/>
      <point x="-289" y="-233" type="qcurve" smooth="yes"/>
      <point x="-289" y="-252"/>
      <point x="-287" y="-270" type="qcurve"/>
      <point x="-170" y="-291"/>
      <point x="-170" y="-348" type="qcurve" smooth="yes"/>
      <point x="-170" y="-416"/>
      <point x="-253" y="-432" type="qcurve"/>
      <point x="-283" y="-432"/>
      <point x="-317" y="-291" type="qcurve"/>
      <point x="-356" y="-292"/>
      <point x="-373" y="-297" type="qcurve" smooth="yes"/>
      <point x="-379" y="-300"/>
      <point x="-412" y="-432" type="qcurve"/>
      <point x="-455" y="-423"/>
      <point x="-459" y="-391" type="qcurve"/>
      <point x="-458" y="-299"/>
      <point x="-394" y="-268" type="qcurve"/>
      <point x="-384" y="-214"/>
      <point x="-383" y="-191" type="qcurve" smooth="yes"/>
      <point x="-383" y="-122"/>
      <point x="-427" y="-120" type="qcurve" smooth="yes"/>
      <point x="-462" y="-121"/>
      <point x="-515" y="-206"/>
      <point x="-515" y="-275" type="qcurve" smooth="yes"/>
      <point x="-515" y="-296"/>
      <point x="-509" y="-314" type="qcurve"/>
      <point x="-541" y="-314"/>
      <point x="-541" y="-262" type="qcurve" smooth="yes"/>
      <point x="-540" y="-237" type="line"/>
      <point x="-515" y="-88"/>
      <point x="-420" y="-88" type="qcurve"/>
      <point x="-349" y="-95"/>
      <point x="-349" y="-194" type="qcurve" smooth="yes"/>
      <point x="-350" y="-215"/>
      <point x="-362" y="-266" type="qcurve"/>
      <point x="-320" y="-264" type="line"/>
      <point x="-323" y="-241"/>
      <point x="-323" y="-214" type="qcurve" smooth="yes"/>
      <point x="-323" y="-89"/>
      <point x="-198" y="-89" type="qcurve" smooth="yes"/>
      <point x="-29" y="-93"/>
      <point x="-20" y="-201" type="qcurve"/>
      <point x="-20" y="-205" type="line" smooth="yes"/>
      <point x="-21" y="-265"/>
      <point x="-58" y="-439"/>
    </contour>
  </outline>
</glyph>
